{
.appVersion = "3108";
.formatVersion = 3;
classes = (
{
automatic = 1;
code = "A Aacute Abreve Acaron Acircumflex Adieresis Agrave Amacron Aogonek Aring Atilde AE B C Cacute Ccaron Ccedilla Cdotaccent D Eth Dcaron Dcroat E Eacute Ecaron Ecircumflex Edieresis Edotaccent Egrave Emacron Eogonek F G Gbreve Gcommaaccent Gdotaccent H Hbar I IJ Iacute Icircumflex Idieresis Idotaccent Igrave Imacron Iogonek J K Kcommaaccent L Lacute Lcaron Lcommaaccent Lslash M N Nacute Ncaron Ncommaaccent Ntilde Eng O Oacute Ocircumflex Odieresis Ograve Ohungarumlaut Omacron Oslash Otilde OE P Thorn Q R Racute Rcaron Rcommaaccent S Sacute Scaron Scedilla Scommaaccent uni1E9E T Tbar Tcaron Tcedilla Tcommaaccent U Uacute Ubreve Ucircumflex Udieresis Ugrave Uhungarumlaut Umacron Uogonek Uring V W Wacute Wcircumflex Wdieresis Wgrave X Y Yacute Ycircumflex Ydieresis Ygrave Z Zacute Zcaron Zdotaccent Y.ss02 Yacute.ss02 Ycircumflex.ss02 Ydieresis.ss02 Ygrave.ss02";
name = Uppercase;
}
);
customParameters = (
{
name = "Use Typo Metrics";
value = 1;
},
{
name = fsType;
value = (
);
},
{
name = "Use Line Breaks";
value = 1;
}
);
date = "2019-11-06 04:05:45 +0000";
familyName = "The Neue Black";
featurePrefixes = (
{
code = "languagesystem DFLT dflt;

languagesystem latn dflt;
languagesystem latn AZE;
languagesystem latn CRT;
languagesystem latn KAZ;
languagesystem latn TAT;
languagesystem latn TRK;";
name = Languagesystems;
}
);
features = (
{
automatic = 1;
code = "feature locl;
feature ordn;
feature case;
feature ss01;
feature ss02;
feature ss03;
";
tag = aalt;
},
{
automatic = 1;
code = "lookup ccmp_Other_1 {
	@CombiningTopAccents = [acutecomb brevecomb caroncomb circumflexcomb commaturnedabovecomb dieresiscomb dotaccentcomb gravecomb hungarumlautcomb macroncomb ringcomb tildecomb];
	@CombiningNonTopAccents = [cedillacomb ogonekcomb];
	sub [i j]' @CombiningTopAccents by [idotless jdotless];
	sub [i j]' @CombiningNonTopAccents @CombiningTopAccents by [idotless jdotless];

glyphs = (
{
color = 6;
glyphname = A;
kernLeft = A;
kernRight = A;
lastChange = "2022-03-23 14:57:36 +0000";
layers = (
{
anchors = (
{
name = bottom;
pos = (433,0);
},
{
name = ogonek;
pos = (779,10);
},
{
name = top;
pos = (433,700);
}
);
background = {
shapes = (
{
closed = 1;
nodes = (
(158,0,l),
(224,132,l),
(588,132,l),
(654,0,l),
(873,0,l),
(523,700,l),
(342,700,l),
(-8,0,l)
);
},
{
closed = 1;
nodes = (
(406,496,l),
(516,276,l),
(296,276,l)
);
}
);
};
layerId = "422CF5D5-EDAF-47A9-A829-F34A9B802C97";
shapes = (
{
closed = 1;
nodes = (
(158,0,l),
(224,132,l),
(588,132,l),
(654,0,l),
(873,0,l),
(523,700,l),
(342,700,l),
(-8,0,l)
);
},
{
closed = 1;
nodes = (
(406,496,l),
(516,276,l),
(296,276,l)
);
}
);
width = 865;
}
);
unicode = 65;
},
{
color = 10;
glyphname = Aacute;
kernLeft = A;
kernRight = A;
lastChange = "2022-03-23 14:57:36 +0000";
layers = (
{
background = {
shapes = (
{
closed = 1;
nodes = (
(158,0,l),
(224,132,l),
(588,132,l),
(654,0,l),
(873,0,l),
(523,700,l),
(342,700,l),
(-8,0,l)
);
},
{
closed = 1;
nodes = (
(406,496,l),
(516,276,l),
(296,276,l)
);
},
{
closed = 1;
nodes = (
(422,872,l),
(372,750,l),
(494,750,l),
(624,872,l)
);
}
);
};
layerId = "422CF5D5-EDAF-47A9-A829-F34A9B802C97";
shapes = (
{
ref = A;
},
{
pos = (372,0);
ref = acutecomb.case;
}
);
width = 865;
}
);
unicode = 193;
},
{
color = 10;
glyphname = Abreve;
kernLeft = A;
kernRight = A;
lastChange = "2022-03-23 14:57:36 +0000";
layers = (
{
background = {
shapes = (
{
closed = 1;
nodes = (
(158,0,l),
(224,132,l),
(588,132,l),
(654,0,l),
(873,0,l),
(523,700,l),
(342,700,l),
(-8,0,l)
);
},
{
closed = 1;
nodes = (
(406,496,l),
(516,276,l),
(296,276,l)
);
},
{
closed = 1;
nodes = (
(555,740,o),
(624,787,o),
(624,872,c),
(484,872,l),
(484,846,o),
(464,832,o),
(427,832,cs),
(390,832,o),
(370,846,o),
(370,872,c),
(230,872,l),
(230,786,o),
(299,740,o),
(427,740,cs)
);
}
);
};
layerId = "422CF5D5-EDAF-47A9-A829-F34A9B802C97";
shapes = (
{
ref = A;
},
{
pos = (230,0);
ref = brevecomb.case;
}
);
width = 865;
}
);
unicode = 258;
},
{
color = 10;
glyphname = Acircumflex;
kernLeft = A;
kernRight = A;
lastChange = "2022-03-23 14:57:36 +0000";
layers = (
{
background = {
shapes = (
{
closed = 1;
nodes = (
(158,0,l),
(224,132,l),
(588,132,l),
(654,0,l),
(873,0,l),
(523,700,l),
(342,700,l),
(-8,0,l)
);
},
{
closed = 1;
nodes = (
(406,496,l),
(516,276,l),
(296,276,l)
);
},
{
closed = 1;
nodes = (
(376,750,l),
(433,822,l),
(489,750,l),
(631,750,l),
(531,872,l),
(334,872,l),
(234,750,l)
);
}
);
};
layerId = "422CF5D5-EDAF-47A9-A829-F34A9B802C97";
shapes = (
{
ref = A;
},
{
pos = (234,0);
ref = circumflexcomb.case;
}
);
width = 865;
}
);
unicode = 194;
},
{
color = 10;
glyphname = Adieresis;
kernLeft = A;
kernRight = A;
lastChange = "2022-03-23 14:57:36 +0000";
layers = (
{
background = {
shapes = (
{
closed = 1;
nodes = (
(158,0,l),
(224,132,l),
(588,132,l),
(654,0,l),
(873,0,l),
(523,700,l),
(342,700,l),
(-8,0,l)
);
},
{
closed = 1;
nodes = (
(406,496,l),
(516,276,l),
(296,276,l)
);
},
{
closed = 1;
nodes = (
(219,750,l),
(391,750,l),
(391,872,l),
(219,872,l)
);
},
{
closed = 1;
nodes = (
(469,750,l),
(641,750,l),
(641,872,l),
(469,872,l)
);
}
);
};
layerId = "422CF5D5-EDAF-47A9-A829-F34A9B802C97";
shapes = (
{
ref = A;
},
{
pos = (171,0);
ref = dieresiscomb.case;
}
);
width = 865;
}
);
unicode = 196;
},
{
color = 10;
glyphname = Agrave;
kernLeft = A;
kernRight = A;
lastChange = "2022-03-23 15:19:41 +0000";
layers = (
{
background = {
shapes = (
{
closed = 1;
nodes = (
(158,0,l),
(224,132,l),
(588,132,l),
(654,0,l),
(873,0,l),
(523,700,l),
(342,700,l),
(-8,0,l)
);
},
{
closed = 1;
nodes = (
(406,496,l),
(516,276,l),
(296,276,l)
);
},
{
closed = 1;
nodes = (
(362,750,l),
(484,750,l),
(434,872,l),
(232,872,l)
);
}
);
};
layerId = "422CF5D5-EDAF-47A9-A829-F34A9B802C97";
shapes = (
{
ref = A;
},
{
pos = (242,0);
ref = gravecomb.case;
}
);
width = 865;
}
);
unicode = 192;
},
{
color = 10;
glyphname = Amacron;
kernLeft = A;
kernRight = A;
lastChange = "2022-03-23 14:57:36 +0000";
layers = (
{
background = {
shapes = (
{
closed = 1;
nodes = (
(158,0,l),
(224,132,l),
(588,132,l),
(654,0,l),
(873,0,l),
(523,700,l),
(342,700,l),
(-8,0,l)
);
},
{
closed = 1;
nodes = (
(406,496,l),
(516,276,l),
(296,276,l)
);
},
{
closed = 1;
nodes = (
(619,760,l),
(619,862,l),
(247,862,l),
(247,760,l)
);
}
);
};
layerId = "422CF5D5-EDAF-47A9-A829-F34A9B802C97";
shapes = (
{
ref = A;
},
{
pos = (223,0);
ref = macroncomb.case;
}
);
width = 865;
}
);
unicode = 256;
},
{
color = 10;
glyphname = Aogonek;
kernLeft = A;
kernRight = A;
lastChange = "2022-03-23 14:57:36 +0000";
layers = (
{
background = {
shapes = (
{
closed = 1;
nodes = (
(158,0,l),
(224,132,l),
(588,132,l),
(654,0,l),
(873,0,l),
(523,700,l),
(342,700,l),
(-8,0,l)
);
},
{
closed = 1;
nodes = (
(406,496,l),
(516,276,l),
(296,276,l)
);
},
{
closed = 1;
nodes = (
(685,-73,o),
(686,-46,o),
(717,0,c),
(655,0,l),
(604,-30,o),
(575,-59,o),
(575,-109,cs),
(575,-180,o),
(614,-219,o),
(685,-219,cs),
(799,-219,ls),
(870,-219,o),
(909,-180,o),
(909,-109,c),
(799,-109,l),
(799,-128,o),
(787,-140,o),
(767,-140,cs),
(717,-140,ls),
(697,-140,o),
(685,-128,o),
(685,-109,cs)
);
}
);
};
layerId = "422CF5D5-EDAF-47A9-A829-F34A9B802C97";
shapes = (
{
ref = A;
},
{
pos = (557,0);
ref = ogonekcomb.case;
}
);
width = 865;
}
);
unicode = 260;
},
{
color = 10;
glyphname = Aring;
kernLeft = A;
kernRight = A;
lastChange = "2022-03-23 14:57:36 +0000";
layers = (
{
background = {
shapes = (
{
closed = 1;
nodes = (
(158,0,l),
(224,132,l),
(588,132,l),
(654,0,l),
(873,0,l),
(523,700,l),
(342,700,l),
(-8,0,l)
);
},
{
closed = 1;
nodes = (
(406,496,l),
(516,276,l),
(296,276,l)
);
},
{
closed = 1;
nodes = (
(490,740,ls),
(561,740,o),
(600,779,o),
(600,850,cs),
(600,921,o),
(561,959,o),
(490,959,cs),
(376,959,ls),
(305,959,o),
(266,920,o),
(266,850,cs),
(266,779,o),
(305,740,o),
(376,740,cs)
);
},
{
closed = 1;
nodes = (
(376,870,o),
(388,880,o),
(408,880,cs),
(458,880,ls),
(478,880,o),
(490,869,o),
(490,850,cs),
(490,831,o),
(478,819,o),
(458,819,cs),
(408,819,ls),
(388,819,o),
(376,831,o),
(376,850,cs)
);
}
);
};
layerId = "422CF5D5-EDAF-47A9-A829-F34A9B802C97";
shapes = (
{
ref = A;
},
{
pos = (248,0);
ref = ringcomb.case;
}
);
width = 865;
}
);
unicode = 197;
},
{
color = 10;
glyphname = Atilde;
kernLeft = A;
kernRight = A;
lastChange = "2022-03-23 14:57:36 +0000";
layers = (
{
background = {
shapes = (
{
closed = 1;
nodes = (
(158,0,l),
(224,132,l),
(588,132,l),
(654,0,l),
(873,0,l),
(523,700,l),
(342,700,l),
(-8,0,l)
);
},
{
closed = 1;
nodes = (
(406,496,l),
(516,276,l),
(296,276,l)
);
},
{
closed = 1;
nodes = (
(386,784,o),
(400,776,cs),
(427,761,o),
(465,741,o),
(520,741,cs),
(598,741,o),
(627,787,o),
(627,883,c),
(517,883,l),
(517,857,o),
(517,843,o),
(500,843,cs),
(491,843,o),
(479,849,o),
(465,857,cs),
(438,872,o),
(400,892,o),
(345,892,cs),
(267,892,o),
(238,846,o),
(238,750,c),
(348,750,l),
(348,776,o),
(348,790,o),
(365,790,cs),
(374,790,o)
);
}
);
};
layerId = "422CF5D5-EDAF-47A9-A829-F34A9B802C97";
shapes = (
{
ref = A;
},
{
pos = (220,0);
ref = tildecomb.case;
}
);
width = 865;
}
);
unicode = 195;
},
{
color = 6;
glyphname = AE;
kernLeft = A;
kernRight = E;
lastChange = "2022-03-23 14:57:36 +0000";
layers = (
{
anchors = (
{
name = bottom;
pos = (664,0);
},
{
name = top;
pos = (664,700);
}
);
background = {
shapes = (
{
closed = 1;
nodes = (
(158,0,l),
(264,212,l),
(650,212,l),
(650,0,l),
(1296,0,l),
(1296,144,l),
(854,144,l),
(854,282,l),
(1223,282,l),
(1223,426,l),
(854,426,l),
(854,556,l),
(1296,556,l),
(1296,700,l),
(342,700,l),
(-8,0,l)
);
},
{
closed = 1;
nodes = (
(436,556,l),
(650,556,l),
(650,356,l),
(336,356,l)
);
}
);
};
layerId = "422CF5D5-EDAF-47A9-A829-F34A9B802C97";
shapes = (
{
closed = 1;
nodes = (
(158,0,l),
(264,212,l),
(650,212,l),
(650,0,l),
(1296,0,l),
(1296,144,l),
(854,144,l),
(854,282,l),
(1223,282,l),
(1223,426,l),
(854,426,l),
(854,556,l),
(1296,556,l),
(1296,700,l),
(342,700,l),
(-8,0,l)
);
},
{
closed = 1;
nodes = (
(436,556,l),
(650,556,l),
(650,356,l),
(336,356,l)
);
}
);
width = 1327;
}
);
unicode = 198;
},
{
color = 6;
glyphname = B;
kernLeft = H;
lastChange = "2022-03-23 14:57:36 +0000";
layers = (
{
anchors = (
{
name = bottom;
pos = (417,0);
},
{
name = center;
pos = (417,350);
},
{
name = top;
pos = (417,700);
}
);
background = {
shapes = (
{
closed = 1;
nodes = (
(798,556,ls),
(798,649,o),
(747,700,o),
(654,700,cs),
(50,700,l),
(50,0,l),
(654,0,ls),
(747,0,o),
(798,51,o),
(798,144,cs),
(798,196,ls),
(798,289,o),
(747,339,o),
(654,339,c),
(654,349,l),
(747,349,o),
(798,398,o),
(798,491,cs)
);
},
{
closed = 1;
nodes = (
(254,282,l),
(564,282,ls),
(583,282,o),
(594,271,o),
(594,252,cs),
(594,174,ls),
(594,155,o),
(583,144,o),
(564,144,cs),
(254,144,l)
);
},
{
closed = 1;
nodes = (
(254,556,l),
(564,556,ls),
(583,556,o),
(594,545,o),
(594,526,cs),
(594,456,ls),
(594,437,o),
(583,426,o),
(564,426,cs),
(254,426,l)
);
}
);
};
layerId = "422CF5D5-EDAF-47A9-A829-F34A9B802C97";
shapes = (
{
closed = 1;
nodes = (
(654,0,ls),
(747,0,o),
(798,51,o),
(798,144,cs),
(798,196,ls),
(798,289,o),
(747,339,o),
(654,339,c),
(654,349,l),
(747,349,o),
(798,398,o),
(798,491,cs),
(798,556,ls),
(798,649,o),
(747,700,o),
(654,700,cs),
(50,700,l),
(50,0,l)
);
},
{
closed = 1;
nodes = (
(254,282,l),
(564,282,ls),
(583,282,o),
(594,271,o),
(594,252,cs),
(594,174,ls),
(594,155,o),
(583,144,o),
(564,144,cs),
(254,144,l)
);
},
{
closed = 1;
nodes = (
(254,556,l),
(564,556,ls),
(583,556,o),
(594,545,o),
(594,526,cs),
(594,456,ls),
(594,437,o),
(583,426,o),
(564,426,cs),
(254,426,l)
);
}
);
userData = {
com.schriftgestaltung.Glyphs.lastChange = "2020-01-31 17:27:24 +0000";
};
width = 834;
}
);
unicode = 66;
},
{
color = 6;
glyphname = C;
kernLeft = O;
kernRight = C;
lastChange = "2022-03-23 14:57:36 +0000";
layers = (
{
anchors = (
{
name = bottom;
pos = (410,0);
},
{
name = top;
pos = (410,700);
}
);
background = {
shapes = (
{
closed = 1;
nodes = (
(44,51,o),
(95,0,o),
(188,0,cs),
(648,0,ls),
(741,0,o),
(792,51,o),
(792,144,cs),
(792,216,l),
(588,216,l),
(588,174,ls),
(588,155,o),
(577,144,o),
(558,144,cs),
(278,144,ls),
(259,144,o),
(248,155,o),
(248,174,cs),
(248,526,ls),
(248,545,o),
(259,556,o),
(278,556,cs),
(558,556,ls),
(577,556,o),
(588,545,o),
(588,526,cs),
(588,484,l),
(792,484,l),
(792,556,ls),
(792,649,o),
(741,700,o),
(648,700,cs),
(188,700,ls),
(95,700,o),
(44,649,o),
(44,556,cs),
(44,144,ls)
);
}
);
};
layerId = "422CF5D5-EDAF-47A9-A829-F34A9B802C97";
shapes = (
{
closed = 1;
nodes = (
(648,0,ls),
(741,0,o),
(792,51,o),
(792,144,cs),
(792,216,l),
(588,216,l),
(588,174,ls),
(588,155,o),
(577,144,o),
(558,144,cs),
(278,144,ls),
(259,144,o),
(248,155,o),
(248,174,cs),
(248,526,ls),
(248,545,o),
(259,556,o),
(278,556,cs),
(558,556,ls),
(577,556,o),
(588,545,o),
(588,526,cs),
(588,484,l),
(792,484,l),
(792,556,ls),
(792,649,o),
(741,700,o),
(648,700,cs),
(188,700,ls),
(95,700,o),
(44,649,o),
(44,556,cs),
(44,144,ls),
(44,51,o),
(95,0,o),
(188,0,cs)
);
}
);
width = 819;
}
);
unicode = 67;
},
{
color = 10;
glyphname = Cacute;
kernLeft = O;
kernRight = C;
lastChange = "2022-03-23 14:57:36 +0000";
layers = (
{
background = {
shapes = (
{
closed = 1;
nodes = (
(44,51,o),
(95,0,o),
(188,0,cs),
(648,0,ls),
(741,0,o),
(792,51,o),
(792,144,cs),
(792,216,l),
(588,216,l),
(588,174,ls),
(588,155,o),
(577,144,o),
(558,144,cs),
(278,144,ls),
(259,144,o),
(248,155,o),
(248,174,cs),
(248,526,ls),
(248,545,o),
(259,556,o),
(278,556,cs),
(558,556,ls),
(577,556,o),
(588,545,o),
(588,526,cs),
(588,484,l),
(792,484,l),
(792,556,ls),
(792,649,o),
(741,700,o),
(648,700,cs),
(188,700,ls),
(95,700,o),
(44,649,o),
(44,556,cs),
(44,144,ls)
);
},
{
closed = 1;
nodes = (
(371,872,l),
(321,750,l),
(443,750,l),
(573,872,l)
);
}
);
};
layerId = "422CF5D5-EDAF-47A9-A829-F34A9B802C97";
shapes = (
{
ref = C;
},
{
pos = (349,0);
ref = acutecomb.case;
}
);
width = 819;
}
);
unicode = 262;
},
{
color = 10;
glyphname = Ccaron;
kernLeft = O;
kernRight = C;
lastChange = "2022-03-23 14:57:36 +0000";
layers = (
{
background = {
shapes = (
{
closed = 1;
nodes = (
(44,51,o),
(95,0,o),
(188,0,cs),
(648,0,ls),
(741,0,o),
(792,51,o),
(792,144,cs),
(792,216,l),
(588,216,l),
(588,174,ls),
(588,155,o),
(577,144,o),
(558,144,cs),
(278,144,ls),
(259,144,o),
(248,155,o),
(248,174,cs),
(248,526,ls),
(248,545,o),
(259,556,o),
(278,556,cs),
(558,556,ls),
(577,556,o),
(588,545,o),
(588,526,cs),
(588,484,l),
(792,484,l),
(792,556,ls),
(792,649,o),
(741,700,o),
(648,700,cs),
(188,700,ls),
(95,700,o),
(44,649,o),
(44,556,cs),
(44,144,ls)
);
},
{
closed = 1;
nodes = (
(299,750,l),
(496,750,l),
(596,872,l),
(454,872,l),
(398,800,l),
(341,872,l),
(199,872,l)
);
}
);
};
layerId = "422CF5D5-EDAF-47A9-A829-F34A9B802C97";
shapes = (
{
ref = C;
},
{
pos = (211,0);
ref = caroncomb.case;
}
);
width = 819;
}
);
unicode = 268;
},
{
color = 10;
glyphname = Ccedilla;
kernLeft = O;
kernRight = C;
lastChange = "2022-03-23 14:57:36 +0000";
layers = (
{
background = {
shapes = (
{
closed = 1;
nodes = (
(44,51,o),
(95,0,o),
(188,0,cs),
(648,0,ls),
(741,0,o),
(792,51,o),
(792,144,cs),
(792,216,l),
(588,216,l),
(588,174,ls),
(588,155,o),
(577,144,o),
(558,144,cs),
(278,144,ls),
(259,144,o),
(248,155,o),
(248,174,cs),
(248,526,ls),
(248,545,o),
(259,556,o),
(278,556,cs),
(558,556,ls),
(577,556,o),
(588,545,o),
(588,526,cs),
(588,484,l),
(792,484,l),
(792,556,ls),
(792,649,o),
(741,700,o),
(648,700,cs),
(188,700,ls),
(95,700,o),
(44,649,o),
(44,556,cs),
(44,144,ls)
);
},
{
closed = 1;
nodes = (
(288,-240,l),
(420,-240,ls),
(491,-240,o),
(530,-201,o),
(530,-130,cs),
(530,-59,o),
(491,-21,o),
(420,-21,cs),
(338,-21,l),
(338,-100,l),
(388,-100,ls),
(408,-100,o),
(420,-111,o),
(420,-130,cs),
(420,-149,o),
(408,-161,o),
(388,-161,cs),
(288,-161,l)
);
}
);
};
layerId = "422CF5D5-EDAF-47A9-A829-F34A9B802C97";
shapes = (
{
ref = C;
},
{
pos = (264,0);
ref = cedillacomb.case;
}
);
width = 819;
}
);
unicode = 199;
},
{
color = 10;
glyphname = Cdotaccent;
kernLeft = O;
kernRight = C;
lastChange = "2022-03-23 14:57:36 +0000";
layers = (
{
background = {
shapes = (
{
closed = 1;
nodes = (
(44,51,o),
(95,0,o),
(188,0,cs),
(648,0,ls),
(741,0,o),
(792,51,o),
(792,144,cs),
(792,216,l),
(588,216,l),
(588,174,ls),
(588,155,o),
(577,144,o),
(558,144,cs),
(278,144,ls),
(259,144,o),
(248,155,o),
(248,174,cs),
(248,526,ls),
(248,545,o),
(259,556,o),
(278,556,cs),
(558,556,ls),
(577,556,o),
(588,545,o),
(588,526,cs),
(588,484,l),
(792,484,l),
(792,556,ls),
(792,649,o),
(741,700,o),
(648,700,cs),
(188,700,ls),
(95,700,o),
(44,649,o),
(44,556,cs),
(44,144,ls)
);
},
{
closed = 1;
nodes = (
(332,750,l),
(504,750,l),
(504,872,l),
(332,872,l)
);
}
);
};
layerId = "422CF5D5-EDAF-47A9-A829-F34A9B802C97";
shapes = (
{
ref = C;
},
{
pos = (276,100);
ref = dotaccentcomb.case;
}
);
width = 819;
}
);
unicode = 266;
},
{
color = 6;
glyphname = D;
kernLeft = H;
kernRight = O;
lastChange = "2022-03-23 14:57:36 +0000";
layers = (
{
anchors = (
{
name = bottom;
pos = (421,0);
},
{
name = center;
pos = (421,350);
},
{
name = top;
pos = (421,700);
}
);
background = {
shapes = (
{
closed = 1;
nodes = (
(654,0,ls),
(747,0,o),
(798,51,o),
(798,144,cs),
(798,556,ls),
(798,649,o),
(747,700,o),
(654,700,cs),
(50,700,l),
(50,0,l)
);
},
{
closed = 1;
nodes = (
(254,556,l),
(564,556,ls),
(583,556,o),
(594,545,o),
(594,526,cs),
(594,174,ls),
(594,155,o),
(583,144,o),
(564,144,cs),
(254,144,l)
);
}
);
};
layerId = "422CF5D5-EDAF-47A9-A829-F34A9B802C97";
shapes = (
{
closed = 1;
nodes = (
(654,0,ls),
(747,0,o),
(798,51,o),
(798,144,cs),
(798,556,ls),
(798,649,o),
(747,700,o),
(654,700,cs),
(50,700,l),
(50,0,l)
);
},
{
closed = 1;
nodes = (
(254,556,l),
(564,556,ls),
(583,556,o),
(594,545,o),
(594,526,cs),
(594,174,ls),
(594,155,o),
(583,144,o),
(564,144,cs),
(254,144,l)
);
}
);
width = 842;
}
);
unicode = 68;
},
{
color = 3;
glyphname = Eth;
kernLeft = H;
kernRight = O;
lastChange = "2022-03-23 14:57:36 +0000";
layers = (
{
background = {
shapes = (
{
closed = 1;
nodes = (
(383,299,l),
(383,401,l),
(11,401,l),
(11,299,l)
);
},
{
closed = 1;
nodes = (
(699,0,ls),
(792,0,o),
(843,51,o),
(843,144,cs),
(843,556,ls),
(843,649,o),
(792,700,o),
(699,700,cs),
(95,700,l),
(95,0,l)
);
},
{
closed = 1;
nodes = (
(299,556,l),
(609,556,ls),
(628,556,o),
(639,545,o),
(639,526,cs),
(639,174,ls),
(639,155,o),
(628,144,o),
(609,144,cs),
(299,144,l)
);
}
);
};
layerId = "422CF5D5-EDAF-47A9-A829-F34A9B802C97";
shapes = (
{
closed = 1;
nodes = (
(383,299,l),
(383,401,l),
(11,401,l),
(11,299,l)
);
},
{
pos = (45,0);
ref = D;
}
);
width = 887;
}
);
unicode = 208;
},
{
color = 10;
glyphname = Dcaron;
kernLeft = H;
kernRight = O;
lastChange = "2022-03-23 14:57:36 +0000";
layers = (
{
background = {
shapes = (
{
closed = 1;
nodes = (
(654,0,ls),
(747,0,o),
(798,51,o),
(798,144,cs),
(798,556,ls),
(798,649,o),
(747,700,o),
(654,700,cs),
(50,700,l),
(50,0,l)
);
},
{
closed = 1;
nodes = (
(254,556,l),
(564,556,ls),
(583,556,o),
(594,545,o),
(594,526,cs),
(594,174,ls),
(594,155,o),
(583,144,o),
(564,144,cs),
(254,144,l)
);
},
{
closed = 1;
nodes = (
(302,750,l),
(499,750,l),
(599,872,l),
(457,872,l),
(401,800,l),
(344,872,l),
(202,872,l)
);
}
);
};
layerId = "422CF5D5-EDAF-47A9-A829-F34A9B802C97";
shapes = (
{
ref = D;
},
{
pos = (222,0);
ref = caroncomb.case;
}
);
width = 842;
}
);
unicode = 270;
},
{
color = 10;
glyphname = Dcroat;
kernLeft = H;
kernRight = O;
lastChange = "2022-03-23 14:57:36 +0000";
layers = (
{
background = {
shapes = (
{
closed = 1;
nodes = (
(383,299,l),
(383,401,l),
(11,401,l),
(11,299,l)
);
},
{
closed = 1;
nodes = (
(699,0,ls),
(792,0,o),
(843,51,o),
(843,144,cs),
(843,556,ls),
(843,649,o),
(792,700,o),
(699,700,cs),
(95,700,l),
(95,0,l)
);
},
{
closed = 1;
nodes = (
(299,556,l),
(609,556,ls),
(628,556,o),
(639,545,o),
(639,526,cs),
(639,174,ls),
(639,155,o),
(628,144,o),
(609,144,cs),
(299,144,l)
);
}
);
};
layerId = "422CF5D5-EDAF-47A9-A829-F34A9B802C97";
shapes = (
{
ref = Eth;
}
);
width = 887;
}
);
unicode = 272;
},
{
color = 6;
glyphname = E;
kernLeft = H;
kernRight = E;
lastChange = "2022-03-23 14:57:36 +0000";
layers = (
{
anchors = (
{
name = bottom;
pos = (414,0);
},
{
name = ogonek;
pos = (666,10);
},
{
name = top;
pos = (414,700);
},
{
name = topleft;
pos = (20,700);
}
);
background = {
shapes = (
{
closed = 1;
nodes = (
(796,0,l),
(796,144,l),
(254,144,l),
(254,282,l),
(723,282,l),
(723,426,l),
(254,426,l),
(254,556,l),
(796,556,l),
(796,700,l),
(50,700,l),
(50,0,l)
);
}
);
};
layerId = "422CF5D5-EDAF-47A9-A829-F34A9B802C97";
shapes = (
{
closed = 1;
nodes = (
(796,0,l),
(796,144,l),
(254,144,l),
(254,282,l),
(723,282,l),
(723,426,l),
(254,426,l),
(254,556,l),
(796,556,l),
(796,700,l),
(50,700,l),
(50,0,l)
);
}
);
width = 827;
}
);
unicode = 69;
},
{
color = 10;
glyphname = Eacute;
kernLeft = H;
kernRight = E;
lastChange = "2022-03-23 14:57:36 +0000";
layers = (
{
background = {
shapes = (
{
closed = 1;
nodes = (
(796,0,l),
(796,144,l),
(254,144,l),
(254,282,l),
(723,282,l),
(723,426,l),
(254,426,l),
(254,556,l),
(796,556,l),
(796,700,l),
(50,700,l),
(50,0,l)
);
},
{
closed = 1;
nodes = (
(397,872,l),
(347,750,l),
(469,750,l),
(599,872,l)
);
}
);
};
layerId = "422CF5D5-EDAF-47A9-A829-F34A9B802C97";
shapes = (
{
ref = E;
},
{
pos = (353,0);
ref = acutecomb.case;
}
);
width = 827;
}
);
unicode = 201;
},
{
color = 10;
glyphname = Ecaron;
kernLeft = H;
kernRight = E;
lastChange = "2022-03-23 14:57:36 +0000";
layers = (
{
background = {
shapes = (
{
closed = 1;
nodes = (
(796,0,l),
(796,144,l),
(254,144,l),
(254,282,l),
(723,282,l),
(723,426,l),
(254,426,l),
(254,556,l),
(796,556,l),
(796,700,l),
(50,700,l),
(50,0,l)
);
},
{
closed = 1;
nodes = (
(301,750,l),
(498,750,l),
(598,872,l),
(456,872,l),
(400,800,l),
(343,872,l),
(201,872,l)
);
}
);
};
layerId = "422CF5D5-EDAF-47A9-A829-F34A9B802C97";
shapes = (
{
ref = E;
},
{
pos = (215,0);
ref = caroncomb.case;
}
);
width = 827;
}
);
unicode = 282;
},
{
color = 10;
glyphname = Ecircumflex;
kernLeft = H;
kernRight = E;
lastChange = "2022-03-23 14:57:36 +0000";
layers = (
{
background = {
shapes = (
{
closed = 1;
nodes = (
(796,0,l),
(796,144,l),
(254,144,l),
(254,282,l),
(723,282,l),
(723,426,l),
(254,426,l),
(254,556,l),
(796,556,l),
(796,700,l),
(50,700,l),
(50,0,l)
);
},
{
closed = 1;
nodes = (
(343,750,l),
(400,822,l),
(456,750,l),
(598,750,l),
(498,872,l),
(301,872,l),
(201,750,l)
);
}
);
};
layerId = "422CF5D5-EDAF-47A9-A829-F34A9B802C97";
shapes = (
{
ref = E;
},
{
pos = (215,0);
ref = circumflexcomb.case;
}
);
width = 827;
}
);
unicode = 202;
},
{
color = 10;
glyphname = Edieresis;
kernLeft = H;
kernRight = E;
lastChange = "2022-03-23 14:57:36 +0000";
layers = (
{
background = {
shapes = (
{
closed = 1;
nodes = (
(796,0,l),
(796,144,l),
(254,144,l),
(254,282,l),
(723,282,l),
(723,426,l),
(254,426,l),
(254,556,l),
(796,556,l),
(796,700,l),
(50,700,l),
(50,0,l)
);
},
{
closed = 1;
nodes = (
(212,750,l),
(384,750,l),
(384,872,l),
(212,872,l)
);
},
{
closed = 1;
nodes = (
(462,750,l),
(634,750,l),
(634,872,l),
(462,872,l)
);
}
);
};
layerId = "422CF5D5-EDAF-47A9-A829-F34A9B802C97";
shapes = (
{
ref = E;
},
{
pos = (152,0);
ref = dieresiscomb.case;
}
);
width = 827;
}
);
unicode = 203;
},
{
color = 10;
glyphname = Edotaccent;
kernLeft = H;
kernRight = E;
lastChange = "2022-03-23 14:57:36 +0000";
layers = (
{
background = {
shapes = (
{
closed = 1;
nodes = (
(796,0,l),
(796,144,l),
(254,144,l),
(254,282,l),
(723,282,l),
(723,426,l),
(254,426,l),
(254,556,l),
(796,556,l),
(796,700,l),
(50,700,l),
(50,0,l)
);
},
{
closed = 1;
nodes = (
(337,750,l),
(509,750,l),
(509,872,l),
(337,872,l)
);
}
);
};
layerId = "422CF5D5-EDAF-47A9-A829-F34A9B802C97";
shapes = (
{
ref = E;
},
{
pos = (280,100);
ref = dotaccentcomb.case;
}
);
width = 827;
}
);
unicode = 278;
},
{
color = 10;
glyphname = Egrave;
kernLeft = H;
kernRight = E;
lastChange = "2022-03-23 14:57:36 +0000";
layers = (
{
background = {
shapes = (
{
closed = 1;
nodes = (
(796,0,l),
(796,144,l),
(254,144,l),
(254,282,l),
(723,282,l),
(723,426,l),
(254,426,l),
(254,556,l),
(796,556,l),
(796,700,l),
(50,700,l),
(50,0,l)
);
},
{
closed = 1;
nodes = (
(398,750,l),
(520,750,l),
(470,872,l),
(268,872,l)
);
}
);
};
layerId = "422CF5D5-EDAF-47A9-A829-F34A9B802C97";
shapes = (
{
ref = E;
},
{
pos = (223,0);
ref = gravecomb.case;
}
);
width = 827;
}
);
unicode = 200;
},
{
color = 10;
glyphname = Emacron;
kernLeft = H;
kernRight = E;
lastChange = "2022-03-23 14:57:36 +0000";
layers = (
{
background = {
shapes = (
{
closed = 1;
nodes = (
(796,0,l),
(796,144,l),
(254,144,l),
(254,282,l),
(723,282,l),
(723,426,l),
(254,426,l),
(254,556,l),
(796,556,l),
(796,700,l),
(50,700,l),
(50,0,l)
);
},
{
closed = 1;
nodes = (
(597,760,l),
(597,862,l),
(225,862,l),
(225,760,l)
);
}
);
};
layerId = "422CF5D5-EDAF-47A9-A829-F34A9B802C97";
shapes = (
{
ref = E;
},
{
pos = (204,0);
ref = macroncomb.case;
}
);
width = 827;
}
);
unicode = 274;
},
{
color = 10;
glyphname = Eogonek;
kernLeft = H;
kernRight = E;
lastChange = "2022-03-23 14:57:36 +0000";
layers = (
{
background = {
shapes = (
{
closed = 1;
nodes = (
(796,0,l),
(796,144,l),
(254,144,l),
(254,282,l),
(723,282,l),
(723,426,l),
(254,426,l),
(254,556,l),
(796,556,l),
(796,700,l),
(50,700,l),
(50,0,l)
);
},
{
closed = 1;
nodes = (
(572,-73,o),
(573,-46,o),
(604,0,c),
(542,0,l),
(491,-30,o),
(462,-59,o),
(462,-109,cs),
(462,-180,o),
(501,-219,o),
(572,-219,cs),
(686,-219,ls),
(757,-219,o),
(796,-180,o),
(796,-109,c),
(686,-109,l),
(686,-128,o),
(674,-140,o),
(654,-140,cs),
(604,-140,ls),
(584,-140,o),
(572,-128,o),
(572,-109,cs)
);
}
);
};
layerId = "422CF5D5-EDAF-47A9-A829-F34A9B802C97";
shapes = (
{
ref = E;
},
{
pos = (444,0);
ref = ogonekcomb.case;
}
);
width = 827;
}
);
unicode = 280;
},
{
color = 6;
glyphname = F;
kernLeft = H;
lastChange = "2022-03-23 14:57:36 +0000";
layers = (
{
anchors = (
{
name = bottom;
pos = (407,0);
},
{
name = top;
pos = (407,700);
}
);
background = {
shapes = (
{
closed = 1;
nodes = (
(254,0,l),
(254,282,l),
(723,282,l),
(723,426,l),
(254,426,l),
(254,556,l),
(796,556,l),
(796,700,l),
(50,700,l),
(50,0,l)
);
}
);
};
layerId = "422CF5D5-EDAF-47A9-A829-F34A9B802C97";
shapes = (
{
closed = 1;
nodes = (
(254,0,l),
(254,282,l),
(723,282,l),
(723,426,l),
(254,426,l),
(254,556,l),
(796,556,l),
(796,700,l),
(50,700,l),
(50,0,l)
);
}
);
width = 814;
}
);
unicode = 70;
},
{
color = 6;
glyphname = G;
kernLeft = O;
kernRight = G;
lastChange = "2022-03-23 14:57:36 +0000";
layers = (
{
anchors = (
{
name = bottom;
pos = (418,0);
},
{
name = top;
pos = (418,700);
}
);
background = {
shapes = (
{
closed = 1;
nodes = (
(44,51,o),
(95,0,o),
(188,0,cs),
(648,0,ls),
(741,0,o),
(792,51,o),
(792,144,cs),
(792,426,l),
(366,426,l),
(366,282,l),
(588,282,l),
(588,174,ls),
(588,155,o),
(577,144,o),
(558,144,cs),
(278,144,ls),
(259,144,o),
(248,155,o),
(248,174,cs),
(248,526,ls),
(248,545,o),
(259,556,o),
(278,556,cs),
(558,556,ls),
(577,556,o),
(588,545,o),
(588,526,cs),
(588,472,l),
(792,472,l),
(792,556,ls),
(792,649,o),
(741,700,o),
(648,700,cs),
(188,700,ls),
(95,700,o),
(44,649,o),
(44,556,cs),
(44,144,ls)
);
}
);
};
layerId = "422CF5D5-EDAF-47A9-A829-F34A9B802C97";
shapes = (
{
closed = 1;
nodes = (
(648,0,ls),
(741,0,o),
(792,51,o),
(792,144,cs),
(792,426,l),
(366,426,l),
(366,282,l),
(588,282,l),
(588,174,ls),
(588,155,o),
(577,144,o),
(558,144,cs),
(278,144,ls),
(259,144,o),
(248,155,o),
(248,174,cs),
(248,526,ls),
(248,545,o),
(259,556,o),
(278,556,cs),
(558,556,ls),
(577,556,o),
(588,545,o),
(588,526,cs),
(588,472,l),
(792,472,l),
(792,556,ls),
(792,649,o),
(741,700,o),
(648,700,cs),
(188,700,ls),
(95,700,o),
(44,649,o),
(44,556,cs),
(44,144,ls),
(44,51,o),
(95,0,o),
(188,0,cs)
);
}
);
width = 835;
}
);
unicode = 71;
},
{
color = 10;
glyphname = Gbreve;
kernLeft = O;
kernRight = G;
lastChange = "2022-03-23 14:57:36 +0000";
layers = (
{
background = {
shapes = (
{
closed = 1;
nodes = (
(44,51,o),
(95,0,o),
(188,0,cs),
(648,0,ls),
(741,0,o),
(792,51,o),
(792,144,cs),
(792,426,l),
(366,426,l),
(366,282,l),
(588,282,l),
(588,174,ls),
(588,155,o),
(577,144,o),
(558,144,cs),
(278,144,ls),
(259,144,o),
(248,155,o),
(248,174,cs),
(248,526,ls),
(248,545,o),
(259,556,o),
(278,556,cs),
(558,556,ls),
(577,556,o),
(588,545,o),
(588,526,cs),
(588,472,l),
(792,472,l),
(792,556,ls),
(792,649,o),
(741,700,o),
(648,700,cs),
(188,700,ls),
(95,700,o),
(44,649,o),
(44,556,cs),
(44,144,ls)
);
},
{
closed = 1;
nodes = (
(546,740,o),
(615,787,o),
(615,872,c),
(475,872,l),
(475,846,o),
(455,832,o),
(418,832,cs),
(381,832,o),
(361,846,o),
(361,872,c),
(221,872,l),
(221,786,o),
(290,740,o),
(418,740,cs)
);
}
);
};
layerId = "422CF5D5-EDAF-47A9-A829-F34A9B802C97";
shapes = (
{
ref = G;
},
{
pos = (215,0);
ref = brevecomb.case;
}
);
userData = {
com.schriftgestaltung.Glyphs.lastChange = "2019-11-25 02:35:21 +0000";
};
width = 835;
}
);
unicode = 286;
},
{
color = 10;
glyphname = Gcommaaccent;
kernLeft = O;
kernRight = G;
lastChange = "2022-03-23 14:57:36 +0000";
layers = (
{
background = {
shapes = (
{
closed = 1;
nodes = (
(44,51,o),
(95,0,o),
(188,0,cs),
(648,0,ls),
(741,0,o),
(792,51,o),
(792,144,cs),
(792,426,l),
(366,426,l),
(366,282,l),
(588,282,l),
(588,174,ls),
(588,155,o),
(577,144,o),
(558,144,cs),
(278,144,ls),
(259,144,o),
(248,155,o),
(248,174,cs),
(248,526,ls),
(248,545,o),
(259,556,o),
(278,556,cs),
(558,556,ls),
(577,556,o),
(588,545,o),
(588,526,cs),
(588,472,l),
(792,472,l),
(792,556,ls),
(792,649,o),
(741,700,o),
(648,700,cs),
(188,700,ls),
(95,700,o),
(44,649,o),
(44,556,cs),
(44,144,ls)
);
},
{
closed = 1;
nodes = (
(437,-270,l),
(481,-173,ls),
(491,-151,o),
(495,-133,o),
(495,-117,cs),
(495,-74,o),
(463,-50,o),
(425,-50,cs),
(323,-50,l),
(323,-173,l),
(394,-173,l),
(353,-270,l)
);
}
);
};
layerId = "422CF5D5-EDAF-47A9-A829-F34A9B802C97";
shapes = (
{
ref = G;
},
{
pos = (299,0);
ref = commaaccentcomb.case;
}
);
width = 835;
}
);
unicode = 290;
},
{
color = 10;
glyphname = Gdotaccent;
kernLeft = O;
kernRight = G;
lastChange = "2022-03-23 14:57:36 +0000";
layers = (
{
background = {
shapes = (
{
closed = 1;
nodes = (
(44,51,o),
(95,0,o),
(188,0,cs),
(648,0,ls),
(741,0,o),
(792,51,o),
(792,144,cs),
(792,426,l),
(366,426,l),
(366,282,l),
(588,282,l),
(588,174,ls),
(588,155,o),
(577,144,o),
(558,144,cs),
(278,144,ls),
(259,144,o),
(248,155,o),
(248,174,cs),
(248,526,ls),
(248,545,o),
(259,556,o),
(278,556,cs),
(558,556,ls),
(577,556,o),
(588,545,o),
(588,526,cs),
(588,472,l),
(792,472,l),
(792,556,ls),
(792,649,o),
(741,700,o),
(648,700,cs),
(188,700,ls),
(95,700,o),
(44,649,o),
(44,556,cs),
(44,144,ls)
);
},
{
closed = 1;
nodes = (
(332,750,l),
(504,750,l),
(504,872,l),
(332,872,l)
);
}
);
};
layerId = "422CF5D5-EDAF-47A9-A829-F34A9B802C97";
shapes = (
{
ref = G;
},
{
pos = (284,100);
ref = dotaccentcomb.case;
}
);
width = 835;
}
);
unicode = 288;
},
{
color = 6;
glyphname = H;
kernLeft = H;
kernRight = H;
lastChange = "2022-03-23 14:57:36 +0000";
layers = (
{
anchors = (
{
name = bottom;
pos = (423,0);
},
{
name = center;
pos = (423,350);
},
{
name = top;
pos = (423,700);
},
{
name = topleft;
pos = (20,700);
}
);
background = {
shapes = (
{
closed = 1;
nodes = (
(50,700,l),
(50,0,l),
(254,0,l),
(254,282,l),
(592,282,l),
(592,0,l),
(796,0,l),
(796,700,l),
(592,700,l),
(592,426,l),
(254,426,l),
(254,700,l)
);
}
);
};
layerId = "422CF5D5-EDAF-47A9-A829-F34A9B802C97";
shapes = (
{
closed = 1;
nodes = (
(254,0,l),
(254,282,l),
(592,282,l),
(592,0,l),
(796,0,l),
(796,700,l),
(592,700,l),
(592,426,l),
(254,426,l),
(254,700,l),
(50,700,l),
(50,0,l)
);
}
);
width = 846;
}
);
unicode = 72;
},
{
color = 6;
glyphname = Hbar;
kernLeft = H;
kernRight = H;
lastChange = "2022-03-23 14:57:36 +0000";
layers = (
{
background = {
shapes = (
{
closed = 1;
nodes = (
(76,498,l),
(76,0,l),
(280,0,l),
(280,282,l),
(618,282,l),
(618,0,l),
(822,0,l),
(822,498,l),
(890,498,l),
(890,600,l),
(822,600,l),
(822,700,l),
(618,700,l),
(618,600,l),
(280,600,l),
(280,700,l),
(76,700,l),
(76,600,l),
(8,600,l),
(8,498,l)
);
},
{
closed = 1;
nodes = (
(280,498,l),
(618,498,l),
(618,426,l),
(280,426,l)
);
}
);
};
layerId = "422CF5D5-EDAF-47A9-A829-F34A9B802C97";
shapes = (
{
closed = 1;
nodes = (
(280,0,l),
(280,282,l),
(618,282,l),
(618,0,l),
(822,0,l),
(822,498,l),
(890,498,l),
(890,600,l),
(822,600,l),
(822,700,l),
(618,700,l),
(618,600,l),
(280,600,l),
(280,700,l),
(76,700,l),
(76,600,l),
(8,600,l),
(8,498,l),
(76,498,l),
(76,0,l)
);
},
{
closed = 1;
nodes = (
(280,498,l),
(618,498,l),
(618,426,l),
(280,426,l)
);
}
);
width = 898;
}
);
unicode = 294;
},
{
color = 6;
glyphname = I;
kernLeft = H;
kernRight = H;
lastChange = "2022-03-23 14:57:36 +0000";
layers = (
{
anchors = (
{
name = bottom;
pos = (152,0);
},
{
name = ogonek;
pos = (174,10);
},
{
name = top;
pos = (152,700);
},
{
name = topleft;
pos = (20,700);
}
);
background = {
shapes = (
{
closed = 1;
nodes = (
(50,700,l),
(50,0,l),
(254,0,l),
(254,700,l)
);
}
);
};
layerId = "422CF5D5-EDAF-47A9-A829-F34A9B802C97";
shapes = (
{
closed = 1;
nodes = (
(254,0,l),
(254,700,l),
(50,700,l),
(50,0,l)
);
}
);
width = 304;
}
);
unicode = 73;
},
{
color = 10;
glyphname = Iacute;
kernLeft = H;
kernRight = H;
lastChange = "2022-03-23 14:57:36 +0000";
layers = (
{
background = {
shapes = (
{
closed = 1;
nodes = (
(50,700,l),
(50,0,l),
(254,0,l),
(254,700,l)
);
},
{
closed = 1;
nodes = (
(132,872,l),
(82,750,l),
(204,750,l),
(334,872,l)
);
}
);
};
layerId = "422CF5D5-EDAF-47A9-A829-F34A9B802C97";
shapes = (
{
ref = I;
},
{
pos = (91,0);
ref = acutecomb.case;
}
);
width = 304;
}
);
unicode = 205;
},
{
color = 10;
glyphname = Icircumflex;
kernLeft = H;
kernRight = H;
lastChange = "2022-03-23 14:57:36 +0000";
layers = (
{
background = {
shapes = (
{
closed = 1;
nodes = (
(50,700,l),
(50,0,l),
(254,0,l),
(254,700,l)
);
},
{
closed = 1;
nodes = (
(94,750,l),
(151,822,l),
(207,750,l),
(349,750,l),
(249,872,l),
(52,872,l),
(-48,750,l)
);
}
);
};
layerId = "422CF5D5-EDAF-47A9-A829-F34A9B802C97";
shapes = (
{
ref = I;
},
{
pos = (-47,0);
ref = circumflexcomb.case;
}
);
width = 304;
}
);
unicode = 206;
},
{
color = 10;
glyphname = Idieresis;
kernLeft = H;
kernRight = H;
lastChange = "2022-03-23 14:57:36 +0000";
layers = (
{
background = {
shapes = (
{
closed = 1;
nodes = (
(50,700,l),
(50,0,l),
(254,0,l),
(254,700,l)
);
},
{
closed = 1;
nodes = (
(-59,750,l),
(113,750,l),
(113,872,l),
(-59,872,l)
);
},
{
closed = 1;
nodes = (
(191,750,l),
(363,750,l),
(363,872,l),
(191,872,l)
);
}
);
};
layerId = "422CF5D5-EDAF-47A9-A829-F34A9B802C97";
shapes = (
{
ref = I;
},
{
pos = (-110,0);
ref = dieresiscomb.case;
}
);
width = 304;
}
);
unicode = 207;
},
{
color = 10;
glyphname = Idotaccent;
kernLeft = H;
kernRight = H;
lastChange = "2022-03-23 14:57:36 +0000";
layers = (
{
background = {
shapes = (
{
closed = 1;
nodes = (
(50,700,l),
(50,0,l),
(254,0,l),
(254,700,l)
);
},
{
closed = 1;
nodes = (
(66,750,l),
(238,750,l),
(238,872,l),
(66,872,l)
);
}
);
};
layerId = "422CF5D5-EDAF-47A9-A829-F34A9B802C97";
shapes = (
{
ref = I;
},
{
pos = (18,100);
ref = dotaccentcomb.case;
}
);
width = 304;
}
);
unicode = 304;
},
{
color = 10;
glyphname = Igrave;
kernLeft = H;
kernRight = H;
lastChange = "2022-03-23 14:57:36 +0000";
layers = (
{
background = {
shapes = (
{
closed = 1;
nodes = (
(50,700,l),
(50,0,l),
(254,0,l),
(254,700,l)
);
},
{
closed = 1;
nodes = (
(82,750,l),
(204,750,l),
(154,872,l),
(-48,872,l)
);
}
);
};
layerId = "422CF5D5-EDAF-47A9-A829-F34A9B802C97";
shapes = (
{
ref = I;
},
{
pos = (-39,0);
ref = gravecomb.case;
}
);
width = 304;
}
);
unicode = 204;
},
{
color = 10;
glyphname = Imacron;
kernLeft = H;
kernRight = H;
lastChange = "2022-03-23 14:57:36 +0000";
layers = (
{
background = {
shapes = (
{
closed = 1;
nodes = (
(50,700,l),
(50,0,l),
(254,0,l),
(254,700,l)
);
},
{
closed = 1;
nodes = (
(338,760,l),
(338,862,l),
(-34,862,l),
(-34,760,l)
);
}
);
};
layerId = "422CF5D5-EDAF-47A9-A829-F34A9B802C97";
shapes = (
{
ref = I;
},
{
pos = (-58,0);
ref = macroncomb.case;
}
);
width = 304;
}
);
unicode = 298;
},
{
color = 10;
glyphname = Iogonek;
kernLeft = H;
kernRight = H;
lastChange = "2022-03-23 14:57:36 +0000";
layers = (
{
background = {
shapes = (
{
closed = 1;
nodes = (
(50,700,l),
(50,0,l),
(254,0,l),
(254,700,l)
);
},
{
closed = 1;
nodes = (
(80,-73,o),
(81,-46,o),
(112,0,c),
(50,0,l),
(-1,-30,o),
(-30,-59,o),
(-30,-109,cs),
(-30,-180,o),
(9,-219,o),
(80,-219,cs),
(194,-219,ls),
(265,-219,o),
(304,-180,o),
(304,-109,c),
(194,-109,l),
(194,-128,o),
(182,-140,o),
(162,-140,cs),
(112,-140,ls),
(92,-140,o),
(80,-128,o),
(80,-109,cs)
);
}
);
};
layerId = "422CF5D5-EDAF-47A9-A829-F34A9B802C97";
shapes = (
{
ref = I;
},
{
pos = (-48,0);
ref = ogonekcomb.case;
}
);
width = 304;
}
);
unicode = 302;
},
{
color = 6;
glyphname = J;
lastChange = "2022-03-23 14:57:36 +0000";
layers = (
{
anchors = (
{
name = bottom;
pos = (381,0);
},
{
name = top;
pos = (381,700);
}
);
background = {
shapes = (
{
closed = 1;
nodes = (
(16,51,o),
(67,0,o),
(160,0,cs),
(570,0,ls),
(663,0,o),
(714,51,o),
(714,144,cs),
(714,700,l),
(510,700,l),
(510,174,ls),
(510,155,o),
(499,144,o),
(480,144,cs),
(250,144,ls),
(231,144,o),
(220,155,o),
(220,174,cs),
(220,216,l),
(16,216,l),
(16,144,ls)
);
}
);
};
layerId = "422CF5D5-EDAF-47A9-A829-F34A9B802C97";
shapes = (
{
closed = 1;
nodes = (
(570,0,ls),
(663,0,o),
(714,51,o),
(714,144,cs),
(714,700,l),
(510,700,l),
(510,174,ls),
(510,155,o),
(499,144,o),
(480,144,cs),
(250,144,ls),
(231,144,o),
(220,155,o),
(220,174,cs),
(220,216,l),
(16,216,l),
(16,144,ls),
(16,51,o),
(67,0,o),
(160,0,cs)
);
}
);
width = 762;
}
);
unicode = 74;
},
{
color = 6;
glyphname = K;
kernLeft = H;
kernRight = K;
lastChange = "2022-03-23 14:57:36 +0000";
layers = (
{
anchors = (
{
name = bottom;
pos = (437,0);
},
{
name = top;
pos = (410,700);
}
);
background = {
shapes = (
{
closed = 1;
nodes = (
(50,700,l),
(50,0,l),
(254,0,l),
(254,282,l),
(392,282,l),
(592,0,l),
(826,0,l),
(576,352,l),
(826,700,l),
(602,700,l),
(402,426,l),
(254,426,l),
(254,700,l)
);
}
);
};
layerId = "422CF5D5-EDAF-47A9-A829-F34A9B802C97";
shapes = (
{
closed = 1;
nodes = (
(254,0,l),
(254,282,l),
(392,282,l),
(592,0,l),
(826,0,l),
(576,352,l),
(826,700,l),
(602,700,l),
(402,426,l),
(254,426,l),
(254,700,l),
(50,700,l),
(50,0,l)
);
}
);
width = 820;
}
);
unicode = 75;
},
{
color = 10;
glyphname = Kcommaaccent;
kernLeft = H;
kernRight = K;
lastChange = "2022-03-23 14:57:36 +0000";
layers = (
{
background = {
shapes = (
{
closed = 1;
nodes = (
(50,700,l),
(50,0,l),
(254,0,l),
(254,282,l),
(392,282,l),
(592,0,l),
(826,0,l),
(576,352,l),
(826,700,l),
(602,700,l),
(402,426,l),
(254,426,l),
(254,700,l)
);
},
{
closed = 1;
nodes = (
(456,-270,l),
(500,-173,ls),
(510,-151,o),
(514,-133,o),
(514,-117,cs),
(514,-74,o),
(482,-50,o),
(444,-50,cs),
(342,-50,l),
(342,-173,l),
(413,-173,l),
(372,-270,l)
);
}
);
};
layerId = "422CF5D5-EDAF-47A9-A829-F34A9B802C97";
shapes = (
{
ref = K;
},
{
pos = (318,0);
ref = commaaccentcomb.case;
}
);
width = 820;
}
);
unicode = 310;
},
{
color = 6;
glyphname = L;
kernLeft = H;
kernRight = L;
lastChange = "2022-03-23 14:57:36 +0000";
layers = (
{
anchors = (
{
name = bottom;
pos = (370,0);
},
{
name = center;
pos = (366,340);
},
{
name = top;
pos = (143,700);
},
{
name = topright;
pos = (454,480);
}
);
background = {
shapes = (
{
closed = 1;
nodes = (
(696,0,l),
(696,144,l),
(254,144,l),
(254,700,l),
(50,700,l),
(50,0,l)
);
}
);
};
layerId = "422CF5D5-EDAF-47A9-A829-F34A9B802C97";
shapes = (
{
closed = 1;
nodes = (
(696,0,l),
(696,144,l),
(254,144,l),
(254,700,l),
(50,700,l),
(50,0,l)
);
}
);
width = 711;
}
);
unicode = 76;
},
{
color = 10;
glyphname = Lacute;
kernLeft = H;
kernRight = L;
lastChange = "2022-03-23 14:57:36 +0000";
layers = (
{
background = {
shapes = (
{
closed = 1;
nodes = (
(696,0,l),
(696,144,l),
(254,144,l),
(254,700,l),
(50,700,l),
(50,0,l)
);
},
{
closed = 1;
nodes = (
(132,872,l),
(82,750,l),
(204,750,l),
(334,872,l)
);
}
);
};
layerId = "422CF5D5-EDAF-47A9-A829-F34A9B802C97";
shapes = (
{
ref = L;
},
{
pos = (82,0);
ref = acutecomb.case;
}
);
width = 711;
}
);
unicode = 313;
},
{
color = 10;
glyphname = Lcaron;
kernLeft = H;
kernRight = L;
lastChange = "2022-03-23 14:57:36 +0000";
layers = (
{
background = {
shapes = (
{
closed = 1;
nodes = (
(696,0,l),
(696,144,l),
(254,144,l),
(254,700,l),
(50,700,l),
(50,0,l)
);
},
{
closed = 1;
nodes = (
(538,480,l),
(582,577,ls),
(592,599,o),
(596,617,o),
(596,633,cs),
(596,676,o),
(564,700,o),
(526,700,cs),
(424,700,l),
(424,577,l),
(495,577,l),
(454,480,l)
);
}
);
};
layerId = "422CF5D5-EDAF-47A9-A829-F34A9B802C97";
shapes = (
{
ref = L;
},
{
pos = (394,0);
ref = caroncomb.alt.case;
}
);
width = 711;
}
);
unicode = 317;
},
{
color = 10;
glyphname = Lcommaaccent;
kernLeft = H;
kernRight = L;
lastChange = "2022-03-23 14:57:36 +0000";
layers = (
{
background = {
shapes = (
{
closed = 1;
nodes = (
(696,0,l),
(696,144,l),
(254,144,l),
(254,700,l),
(50,700,l),
(50,0,l)
);
},
{
closed = 1;
nodes = (
(389,-270,l),
(433,-173,ls),
(443,-151,o),
(447,-133,o),
(447,-117,cs),
(447,-74,o),
(415,-50,o),
(377,-50,cs),
(275,-50,l),
(275,-173,l),
(346,-173,l),
(305,-270,l)
);
}
);
};
layerId = "422CF5D5-EDAF-47A9-A829-F34A9B802C97";
shapes = (
{
ref = L;
},
{
pos = (251,0);
ref = commaaccentcomb.case;
}
);
width = 711;
}
);
unicode = 315;
},
{
color = 6;
glyphname = Lslash;
kernRight = L;
lastChange = "2022-03-23 14:57:36 +0000";
layers = (
{
background = {
shapes = (
{
closed = 1;
nodes = (
(92,277,l),
(92,0,l),
(738,0,l),
(738,144,l),
(296,144,l),
(296,350,l),
(434,399,l),
(434,501,l),
(296,452,l),
(296,700,l),
(92,700,l),
(92,379,l),
(12,351,l),
(12,249,l)
);
}
);
};
layerId = "422CF5D5-EDAF-47A9-A829-F34A9B802C97";
shapes = (
{
closed = 1;
nodes = (
(738,0,l),
(738,144,l),
(296,144,l),
(296,350,l),
(434,399,l),
(434,501,l),
(296,452,l),
(296,700,l),
(92,700,l),
(92,379,l),
(12,351,l),
(12,249,l),
(92,277,l),
(92,0,l)
);
}
);
width = 753;
}
);
unicode = 321;
},
{
color = 6;
glyphname = M;
kernLeft = H;
kernRight = H;
lastChange = "2022-03-23 14:57:36 +0000";
layers = (
{
anchors = (
{
name = bottom;
pos = (534,0);
},
{
name = top;
pos = (534,700);
}
);
background = {
shapes = (
{
closed = 1;
nodes = (
(298,700,l),
(50,700,l),
(50,0,l),
(206,0,l),
(206,476,l),
(444,0,l),
(588,0,l),
(814,476,l),
(814,0,l),
(1018,0,l),
(1018,700,l),
(762,700,l),
(463,103,l),
(579,138,l)
);
}
);
};
layerId = "422CF5D5-EDAF-47A9-A829-F34A9B802C97";
shapes = (
{
closed = 1;
nodes = (
(206,0,l),
(206,476,l),
(444,0,l),
(588,0,l),
(814,476,l),
(814,0,l),
(1018,0,l),
(1018,700,l),
(762,700,l),
(463,103,l),
(579,138,l),
(298,700,l),
(50,700,l),
(50,0,l)
);
}
);
width = 1068;
}
);
unicode = 77;
},
{
color = 6;
glyphname = N;
kernLeft = H;
kernRight = H;
lastChange = "2022-03-23 14:57:36 +0000";
layers = (
{
anchors = (
{
name = bottom;
pos = (446,0);
},
{
name = top;
pos = (436,700);
}
);
background = {
shapes = (
{
closed = 1;
nodes = (
(206,0,l),
(206,514,l),
(543,0,l),
(821,0,l),
(821,700,l),
(665,700,l),
(665,186,l),
(328,700,l),
(50,700,l),
(50,0,l)
);
}
);
};
layerId = "422CF5D5-EDAF-47A9-A829-F34A9B802C97";
shapes = (
{
closed = 1;
nodes = (
(206,0,l),
(206,514,l),
(543,0,l),
(821,0,l),
(821,700,l),
(665,700,l),
(665,186,l),
(328,700,l),
(50,700,l),
(50,0,l)
);
}
);
width = 871;
}
);
unicode = 78;
},
{
color = 10;
glyphname = Nacute;
kernLeft = H;
kernRight = H;
lastChange = "2022-03-23 14:57:36 +0000";
layers = (
{
background = {
shapes = (
{
closed = 1;
nodes = (
(206,0,l),
(206,514,l),
(543,0,l),
(821,0,l),
(821,700,l),
(665,700,l),
(665,186,l),
(328,700,l),
(50,700,l),
(50,0,l)
);
},
{
closed = 1;
nodes = (
(436,872,l),
(386,750,l),
(508,750,l),
(638,872,l)
);
}
);
};
layerId = "422CF5D5-EDAF-47A9-A829-F34A9B802C97";
shapes = (
{
ref = N;
},
{
pos = (375,0);
ref = acutecomb.case;
}
);
width = 871;
}
);
unicode = 323;
},
{
color = 10;
glyphname = Ncaron;
kernLeft = H;
kernRight = H;
lastChange = "2022-03-23 14:57:36 +0000";
layers = (
{
background = {
shapes = (
{
closed = 1;
nodes = (
(206,0,l),
(206,514,l),
(543,0,l),
(821,0,l),
(821,700,l),
(665,700,l),
(665,186,l),
(328,700,l),
(50,700,l),
(50,0,l)
);
},
{
closed = 1;
nodes = (
(302,750,l),
(499,750,l),
(599,872,l),
(457,872,l),
(401,800,l),
(344,872,l),
(202,872,l)
);
}
);
};
layerId = "422CF5D5-EDAF-47A9-A829-F34A9B802C97";
shapes = (
{
ref = N;
},
{
pos = (237,0);
ref = caroncomb.case;
}
);
width = 871;
}
);
unicode = 327;
},
{
color = 10;
glyphname = Ncommaaccent;
kernLeft = H;
kernRight = H;
lastChange = "2022-03-23 14:57:36 +0000";
layers = (
{
background = {
shapes = (
{
closed = 1;
nodes = (
(206,0,l),
(206,514,l),
(543,0,l),
(821,0,l),
(821,700,l),
(665,700,l),
(665,186,l),
(328,700,l),
(50,700,l),
(50,0,l)
);
},
{
closed = 1;
nodes = (
(464,-270,l),
(508,-173,ls),
(518,-151,o),
(522,-133,o),
(522,-117,cs),
(522,-74,o),
(490,-50,o),
(452,-50,cs),
(350,-50,l),
(350,-173,l),
(421,-173,l),
(380,-270,l)
);
}
);
};
layerId = "422CF5D5-EDAF-47A9-A829-F34A9B802C97";
shapes = (
{
ref = N;
},
{
pos = (327,0);
ref = commaaccentcomb.case;
}
);
width = 871;
}
);
unicode = 325;
},
{
color = 10;
glyphname = Ntilde;
kernLeft = H;
kernRight = H;
lastChange = "2022-03-23 14:57:36 +0000";
layers = (
{
background = {
shapes = (
{
closed = 1;
nodes = (
(206,0,l),
(206,514,l),
(543,0,l),
(821,0,l),
(821,700,l),
(665,700,l),
(665,186,l),
(328,700,l),
(50,700,l),
(50,0,l)
);
},
{
closed = 1;
nodes = (
(374,784,o),
(388,776,cs),
(415,761,o),
(453,741,o),
(508,741,cs),
(586,741,o),
(615,787,o),
(615,883,c),
(505,883,l),
(505,857,o),
(505,843,o),
(488,843,cs),
(479,843,o),
(467,849,o),
(453,857,cs),
(426,872,o),
(388,892,o),
(333,892,cs),
(255,892,o),
(226,846,o),
(226,750,c),
(336,750,l),
(336,776,o),
(336,790,o),
(353,790,cs),
(362,790,o)
);
}
);
};
layerId = "422CF5D5-EDAF-47A9-A829-F34A9B802C97";
shapes = (
{
ref = N;
},
{
pos = (223,0);
ref = tildecomb.case;
}
);
width = 871;
}
);
unicode = 209;
},
{
color = 6;
glyphname = Eng;
kernLeft = H;
kernRight = H;
lastChange = "2022-03-23 14:57:36 +0000";
layers = (
{
anchors = (
{
name = bottom;
pos = (436,0);
},
{
name = top;
pos = (436,700);
}
);
background = {
shapes = (
{
closed = 1;
nodes = (
(206,0,l),
(206,514,l),
(606,-96,l),
(307,-96,l),
(307,-240,l),
(677,-240,ls),
(770,-240,o),
(821,-189,o),
(821,-96,c),
(821,700,l),
(665,700,l),
(665,186,l),
(328,700,l),
(50,700,l),
(50,0,l)
);
}
);
};
layerId = "422CF5D5-EDAF-47A9-A829-F34A9B802C97";
shapes = (
{
closed = 1;
nodes = (
(677,-240,ls),
(770,-240,o),
(821,-189,o),
(821,-96,c),
(821,700,l),
(665,700,l),
(665,186,l),
(328,700,l),
(50,700,l),
(50,0,l),
(206,0,l),
(206,514,l),
(606,-96,l),
(307,-96,l),
(307,-240,l)
);
}
);
width = 871;
}
);
unicode = 330;
},
{
color = 6;
glyphname = O;
kernLeft = O;
kernRight = O;
lastChange = "2022-03-23 14:57:36 +0000";
layers = (
{
anchors = (
{
name = bottom;
pos = (418,0);
},
{
name = center;
pos = (418,350);
},
{
name = ogonek;
pos = (752,10);
},
{
name = top;
pos = (418,700);
},
{
name = topleft;
pos = (20,700);
},
{
name = topright;
pos = (816,700);
}
);
background = {
shapes = (
{
closed = 1;
nodes = (
(44,51,o),
(95,0,o),
(188,0,cs),
(648,0,ls),
(741,0,o),
(792,51,o),
(792,144,cs),
(792,556,ls),
(792,649,o),
(741,700,o),
(648,700,cs),
(188,700,ls),
(95,700,o),
(44,649,o),
(44,556,cs),
(44,144,ls)
);
},
{
closed = 1;
nodes = (
(248,526,ls),
(248,545,o),
(259,556,o),
(278,556,cs),
(558,556,ls),
(577,556,o),
(588,545,o),
(588,526,cs),
(588,174,ls),
(588,155,o),
(577,144,o),
(558,144,cs),
(278,144,ls),
(259,144,o),
(248,155,o),
(248,174,cs)
);
}
);
};
layerId = "422CF5D5-EDAF-47A9-A829-F34A9B802C97";
shapes = (
{
closed = 1;
nodes = (
(648,0,ls),
(741,0,o),
(792,51,o),
(792,144,cs),
(792,556,ls),
(792,649,o),
(741,700,o),
(648,700,cs),
(188,700,ls),
(95,700,o),
(44,649,o),
(44,556,cs),
(44,144,ls),
(44,51,o),
(95,0,o),
(188,0,cs)
);
},
{
closed = 1;
nodes = (
(259,144,o),
(248,155,o),
(248,174,cs),
(248,526,ls),
(248,545,o),
(259,556,o),
(278,556,cs),
(558,556,ls),
(577,556,o),
(588,545,o),
(588,526,cs),
(588,174,ls),
(588,155,o),
(577,144,o),
(558,144,cs),
(278,144,ls)
);
}
);
width = 836;
}
);
unicode = 79;
},
{
color = 10;
glyphname = Oacute;
kernLeft = O;
kernRight = O;
lastChange = "2022-03-23 14:57:36 +0000";
layers = (
{
background = {
shapes = (
{
closed = 1;
nodes = (
(44,51,o),
(95,0,o),
(188,0,cs),
(648,0,ls),
(741,0,o),
(792,51,o),
(792,144,cs),
(792,556,ls),
(792,649,o),
(741,700,o),
(648,700,cs),
(188,700,ls),
(95,700,o),
(44,649,o),
(44,556,cs),
(44,144,ls)
);
},
{
closed = 1;
nodes = (
(248,526,ls),
(248,545,o),
(259,556,o),
(278,556,cs),
(558,556,ls),
(577,556,o),
(588,545,o),
(588,526,cs),
(588,174,ls),
(588,155,o),
(577,144,o),
(558,144,cs),
(278,144,ls),
(259,144,o),
(248,155,o),
(248,174,cs)
);
},
{
closed = 1;
nodes = (
(392,872,l),
(342,750,l),
(464,750,l),
(594,872,l)
);
}
);
};
layerId = "422CF5D5-EDAF-47A9-A829-F34A9B802C97";
shapes = (
{
ref = O;
},
{
pos = (357,0);
ref = acutecomb.case;
}
);
width = 836;
}
);
unicode = 211;
},
{
color = 10;
glyphname = Ocircumflex;
kernLeft = O;
kernRight = O;
lastChange = "2022-03-23 14:57:36 +0000";
layers = (
{
background = {
shapes = (
{
closed = 1;
nodes = (
(44,51,o),
(95,0,o),
(188,0,cs),
(648,0,ls),
(741,0,o),
(792,51,o),
(792,144,cs),
(792,556,ls),
(792,649,o),
(741,700,o),
(648,700,cs),
(188,700,ls),
(95,700,o),
(44,649,o),
(44,556,cs),
(44,144,ls)
);
},
{
closed = 1;
nodes = (
(248,526,ls),
(248,545,o),
(259,556,o),
(278,556,cs),
(558,556,ls),
(577,556,o),
(588,545,o),
(588,526,cs),
(588,174,ls),
(588,155,o),
(577,144,o),
(558,144,cs),
(278,144,ls),
(259,144,o),
(248,155,o),
(248,174,cs)
);
},
{
closed = 1;
nodes = (
(341,750,l),
(398,822,l),
(454,750,l),
(596,750,l),
(496,872,l),
(299,872,l),
(199,750,l)
);
}
);
};
layerId = "422CF5D5-EDAF-47A9-A829-F34A9B802C97";
shapes = (
{
ref = O;
},
{
pos = (219,0);
ref = circumflexcomb.case;
}
);
width = 836;
}
);
unicode = 212;
},
{
color = 10;
glyphname = Odieresis;
kernLeft = O;
kernRight = O;
lastChange = "2022-03-23 14:57:36 +0000";
layers = (
{
background = {
shapes = (
{
closed = 1;
nodes = (
(44,51,o),
(95,0,o),
(188,0,cs),
(648,0,ls),
(741,0,o),
(792,51,o),
(792,144,cs),
(792,556,ls),
(792,649,o),
(741,700,o),
(648,700,cs),
(188,700,ls),
(95,700,o),
(44,649,o),
(44,556,cs),
(44,144,ls)
);
},
{
closed = 1;
nodes = (
(248,526,ls),
(248,545,o),
(259,556,o),
(278,556,cs),
(558,556,ls),
(577,556,o),
(588,545,o),
(588,526,cs),
(588,174,ls),
(588,155,o),
(577,144,o),
(558,144,cs),
(278,144,ls),
(259,144,o),
(248,155,o),
(248,174,cs)
);
},
{
closed = 1;
nodes = (
(207,750,l),
(379,750,l),
(379,872,l),
(207,872,l)
);
},
{
closed = 1;
nodes = (
(457,750,l),
(629,750,l),
(629,872,l),
(457,872,l)
);
}
);
};
layerId = "422CF5D5-EDAF-47A9-A829-F34A9B802C97";
shapes = (
{
ref = O;
},
{
pos = (156,0);
ref = dieresiscomb.case;
}
);
width = 836;
}
);
unicode = 214;
},
{
color = 10;
glyphname = Ograve;
kernLeft = O;
kernRight = O;
lastChange = "2022-03-23 14:57:36 +0000";
layers = (
{
background = {
shapes = (
{
closed = 1;
nodes = (
(44,51,o),
(95,0,o),
(188,0,cs),
(648,0,ls),
(741,0,o),
(792,51,o),
(792,144,cs),
(792,556,ls),
(792,649,o),
(741,700,o),
(648,700,cs),
(188,700,ls),
(95,700,o),
(44,649,o),
(44,556,cs),
(44,144,ls)
);
},
{
closed = 1;
nodes = (
(248,526,ls),
(248,545,o),
(259,556,o),
(278,556,cs),
(558,556,ls),
(577,556,o),
(588,545,o),
(588,526,cs),
(588,174,ls),
(588,155,o),
(577,144,o),
(558,144,cs),
(278,144,ls),
(259,144,o),
(248,155,o),
(248,174,cs)
);
},
{
closed = 1;
nodes = (
(352,750,l),
(474,750,l),
(424,872,l),
(222,872,l)
);
}
);
};
layerId = "422CF5D5-EDAF-47A9-A829-F34A9B802C97";
shapes = (
{
ref = O;
},
{
pos = (227,0);
ref = gravecomb.case;
}
);
width = 836;
}
);
unicode = 210;
},
{
color = 10;
glyphname = Ohungarumlaut;
kernLeft = O;
kernRight = O;
lastChange = "2022-03-23 14:57:36 +0000";
layers = (
{
background = {
shapes = (
{
closed = 1;
nodes = (
(44,51,o),
(95,0,o),
(188,0,cs),
(648,0,ls),
(741,0,o),
(792,51,o),
(792,144,cs),
(792,556,ls),
(792,649,o),
(741,700,o),
(648,700,cs),
(188,700,ls),
(95,700,o),
(44,649,o),
(44,556,cs),
(44,144,ls)
);
},
{
closed = 1;
nodes = (
(248,526,ls),
(248,545,o),
(259,556,o),
(278,556,cs),
(558,556,ls),
(577,556,o),
(588,545,o),
(588,526,cs),
(588,174,ls),
(588,155,o),
(577,144,o),
(558,144,cs),
(278,144,ls),
(259,144,o),
(248,155,o),
(248,174,cs)
);
},
{
closed = 1;
nodes = (
(292,872,l),
(242,750,l),
(364,750,l),
(494,872,l)
);
},
{
closed = 1;
nodes = (
(522,872,l),
(472,750,l),
(594,750,l),
(724,872,l)
);
}
);
};
layerId = "422CF5D5-EDAF-47A9-A829-F34A9B802C97";
shapes = (
{
ref = O;
},
{
pos = (242,100);
ref = hungarumlautcomb.case;
}
);
width = 836;
}
);
unicode = 336;
},
{
color = 10;
glyphname = Omacron;
kernLeft = O;
kernRight = O;
lastChange = "2022-03-23 14:57:36 +0000";
layers = (
{
background = {
shapes = (
{
closed = 1;
nodes = (
(44,51,o),
(95,0,o),
(188,0,cs),
(648,0,ls),
(741,0,o),
(792,51,o),
(792,144,cs),
(792,556,ls),
(792,649,o),
(741,700,o),
(648,700,cs),
(188,700,ls),
(95,700,o),
(44,649,o),
(44,556,cs),
(44,144,ls)
);
},
{
closed = 1;
nodes = (
(248,526,ls),
(248,545,o),
(259,556,o),
(278,556,cs),
(558,556,ls),
(577,556,o),
(588,545,o),
(588,526,cs),
(588,174,ls),
(588,155,o),
(577,144,o),
(558,144,cs),
(278,144,ls),
(259,144,o),
(248,155,o),
(248,174,cs)
);
},
{
closed = 1;
nodes = (
(595,760,l),
(595,862,l),
(223,862,l),
(223,760,l)
);
}
);
};
layerId = "422CF5D5-EDAF-47A9-A829-F34A9B802C97";
shapes = (
{
ref = O;
},
{
pos = (208,0);
ref = macroncomb.case;
}
);
width = 836;
}
);
unicode = 332;
},
{
color = 6;
glyphname = Oslash;
kernLeft = O;
kernRight = O;
lastChange = "2022-03-23 14:57:36 +0000";
layers = (
{
anchors = (
{
name = bottom;
pos = (426,0);
},
{
name = top;
pos = (426,700);
}
);
background = {
shapes = (
{
closed = 1;
nodes = (
(51,51,o),
(102,0,o),
(195,0,cs),
(656,0,ls),
(749,0,o),
(800,51,o),
(800,144,cs),
(800,556,ls),
(800,649,o),
(749,700,o),
(656,700,cs),
(195,700,ls),
(102,700,o),
(51,649,o),
(51,556,cs),
(51,144,ls)
);
},
{
closed = 1;
nodes = (
(255,526,ls),
(255,545,o),
(266,556,o),
(285,556,cs),
(566,556,ls),
(585,556,o),
(596,545,o),
(596,526,cs),
(596,174,ls),
(596,155,o),
(585,144,o),
(566,144,cs),
(285,144,ls),
(266,144,o),
(255,155,o),
(255,174,cs)
);
},
{
closed = 1;
nodes = (
(759,785,l),
(-9,17,l),
(92,-85,l),
(860,683,l)
);
}
);
};
layerId = "422CF5D5-EDAF-47A9-A829-F34A9B802C97";
shapes = (
{
closed = 1;
nodes = (
(860,683,l),
(759,785,l),
(-9,17,l),
(92,-85,l)
);
},
{
closed = 1;
nodes = (
(656,0,ls),
(749,0,o),
(800,51,o),
(800,144,cs),
(800,556,ls),
(800,649,o),
(749,700,o),
(656,700,cs),
(195,700,ls),
(102,700,o),
(51,649,o),
(51,556,cs),
(51,144,ls),
(51,51,o),
(102,0,o),
(195,0,cs)
);
},
{
closed = 1;
nodes = (
(266,144,o),
(255,155,o),
(255,174,cs),
(255,526,ls),
(255,545,o),
(266,556,o),
(285,556,cs),
(566,556,ls),
(585,556,o),
(596,545,o),
(596,526,cs),
(596,174,ls),
(596,155,o),
(585,144,o),
(566,144,cs),
(285,144,ls)
);
}
);
width = 851;
}
);
unicode = 216;
},
{
color = 10;
glyphname = Otilde;
kernLeft = O;
kernRight = O;
lastChange = "2022-03-23 14:57:36 +0000";
layers = (
{
background = {
shapes = (
{
closed = 1;
nodes = (
(44,51,o),
(95,0,o),
(188,0,cs),
(648,0,ls),
(741,0,o),
(792,51,o),
(792,144,cs),
(792,556,ls),
(792,649,o),
(741,700,o),
(648,700,cs),
(188,700,ls),
(95,700,o),
(44,649,o),
(44,556,cs),
(44,144,ls)
);
},
{
closed = 1;
nodes = (
(248,526,ls),
(248,545,o),
(259,556,o),
(278,556,cs),
(558,556,ls),
(577,556,o),
(588,545,o),
(588,526,cs),
(588,174,ls),
(588,155,o),
(577,144,o),
(558,144,cs),
(278,144,ls),
(259,144,o),
(248,155,o),
(248,174,cs)
);
},
{
closed = 1;
nodes = (
(360,784,o),
(374,776,cs),
(401,761,o),
(439,741,o),
(494,741,cs),
(572,741,o),
(601,787,o),
(601,883,c),
(491,883,l),
(491,857,o),
(491,843,o),
(474,843,cs),
(465,843,o),
(453,849,o),
(439,857,cs),
(412,872,o),
(374,892,o),
(319,892,cs),
(241,892,o),
(212,846,o),
(212,750,c),
(322,750,l),
(322,776,o),
(322,790,o),
(339,790,cs),
(348,790,o)
);
}
);
};
layerId = "422CF5D5-EDAF-47A9-A829-F34A9B802C97";
shapes = (
{
ref = O;
},
{
pos = (205,0);
ref = tildecomb.case;
}
);
width = 836;
}
);
unicode = 213;
},
{
color = 10;
glyphname = OE;
kernLeft = O;
kernRight = E;
lastChange = "2022-03-23 14:57:36 +0000";
layers = (
{
background = {
shapes = (
{
closed = 1;
nodes = (
(44,51,o),
(95,0,o),
(188,0,cs),
(648,0,ls),
(741,0,o),
(792,51,o),
(792,144,cs),
(792,556,ls),
(792,649,o),
(741,700,o),
(648,700,cs),
(188,700,ls),
(95,700,o),
(44,649,o),
(44,556,cs),
(44,144,ls)
);
},
{
closed = 1;
nodes = (
(248,526,ls),
(248,545,o),
(259,556,o),
(278,556,cs),
(558,556,ls),
(577,556,o),
(588,545,o),
(588,526,cs),
(588,174,ls),
(588,155,o),
(577,144,o),
(558,144,cs),
(278,144,ls),
(259,144,o),
(248,155,o),
(248,174,cs)
);
},
{
closed = 1;
nodes = (
(1334,0,l),
(1334,144,l),
(792,144,l),
(792,282,l),
(1261,282,l),
(1261,426,l),
(792,426,l),
(792,556,l),
(1334,556,l),
(1334,700,l),
(588,700,l),
(588,0,l)
);
}
);
};
layerId = "422CF5D5-EDAF-47A9-A829-F34A9B802C97";
shapes = (
{
ref = O;
},
{
alignment = -1;
pos = (538,0);
ref = E;
}
);
width = 1365;
}
);
unicode = 338;
},
{
color = 6;
glyphname = P;
kernLeft = H;
lastChange = "2022-03-23 14:57:36 +0000";
layers = (
{
anchors = (
{
name = bottom;
pos = (413,0);
},
{
name = top;
pos = (413,700);
}
);
background = {
shapes = (
{
closed = 1;
nodes = (
(254,556,l),
(564,556,ls),
(583,556,o),
(594,545,o),
(594,526,cs),
(594,456,ls),
(594,437,o),
(583,426,o),
(564,426,cs),
(254,426,l)
);
},
{
closed = 1;
nodes = (
(254,0,l),
(254,282,l),
(654,282,ls),
(747,282,o),
(798,333,o),
(798,426,cs),
(798,556,ls),
(798,649,o),
(747,700,o),
(654,700,cs),
(50,700,l),
(50,0,l)
);
}
);
};
layerId = "422CF5D5-EDAF-47A9-A829-F34A9B802C97";
shapes = (
{
closed = 1;
nodes = (
(254,0,l),
(254,282,l),
(654,282,ls),
(747,282,o),
(798,333,o),
(798,426,cs),
(798,556,ls),
(798,649,o),
(747,700,o),
(654,700,cs),
(50,700,l),
(50,0,l)
);
},
{
closed = 1;
nodes = (
(254,556,l),
(564,556,ls),
(583,556,o),
(594,545,o),
(594,526,cs),
(594,456,ls),
(594,437,o),
(583,426,o),
(564,426,cs),
(254,426,l)
);
}
);
width = 826;
}
);
unicode = 80;
},
{
color = 6;
glyphname = Thorn;
kernLeft = H;
lastChange = "2022-03-23 14:57:36 +0000";
layers = (
{
anchors = (
{
name = bottom;
pos = (415,0);
},
{
name = top;
pos = (415,700);
}
);
background = {
shapes = (
{
closed = 1;
nodes = (
(254,0,l),
(254,141,l),
(654,141,ls),
(747,141,o),
(798,192,o),
(798,285,cs),
(798,415,ls),
(798,508,o),
(747,559,o),
(654,559,cs),
(254,559,l),
(254,700,l),
(50,700,l),
(50,0,l)
);
},
{
closed = 1;
nodes = (
(254,415,l),
(564,415,ls),
(583,415,o),
(594,404,o),
(594,385,cs),
(594,315,ls),
(594,296,o),
(583,285,o),
(564,285,cs),
(254,285,l)
);
}
);
};
layerId = "422CF5D5-EDAF-47A9-A829-F34A9B802C97";
shapes = (
{
closed = 1;
nodes = (
(254,0,l),
(254,141,l),
(654,141,ls),
(747,141,o),
(798,192,o),
(798,285,cs),
(798,415,ls),
(798,508,o),
(747,559,o),
(654,559,cs),
(254,559,l),
(254,700,l),
(50,700,l),
(50,0,l)
);
},
{
closed = 1;
nodes = (
(254,415,l),
(564,415,ls),
(583,415,o),
(594,404,o),
(594,385,cs),
(594,315,ls),
(594,296,o),
(583,285,o),
(564,285,cs),
(254,285,l)
);
}
);
width = 830;
}
);
unicode = 222;
},
{
color = 6;
glyphname = Q;
kernLeft = O;
kernRight = O;
lastChange = "2022-03-23 14:57:36 +0000";
layers = (
{
anchors = (
{
name = bottom;
pos = (418,0);
},
{
name = top;
pos = (418,700);
}
);
background = {
shapes = (
{
closed = 1;
nodes = (
(44,51,o),
(95,0,o),
(188,0,cs),
(316,0,l),
(316,-96,ls),
(316,-189,o),
(367,-240,o),
(460,-240,cs),
(748,-240,l),
(748,-96,l),
(550,-96,ls),
(531,-96,o),
(520,-85,o),
(520,-66,cs),
(520,0,l),
(648,0,ls),
(741,0,o),
(792,51,o),
(792,144,cs),
(792,556,ls),
(792,649,o),
(741,700,o),
(648,700,cs),
(188,700,ls),
(95,700,o),
(44,649,o),
(44,556,cs),
(44,144,ls)
);
},
{
closed = 1;
nodes = (
(248,526,ls),
(248,545,o),
(259,556,o),
(278,556,cs),
(558,556,ls),
(577,556,o),
(588,545,o),
(588,526,cs),
(588,174,ls),
(588,155,o),
(577,144,o),
(558,144,cs),
(278,144,ls),
(259,144,o),
(248,155,o),
(248,174,cs)
);
}
);
};
layerId = "422CF5D5-EDAF-47A9-A829-F34A9B802C97";
shapes = (
{
closed = 1;
nodes = (
(748,-240,l),
(748,-96,l),
(550,-96,ls),
(531,-96,o),
(520,-85,o),
(520,-66,cs),
(520,0,l),
(648,0,ls),
(741,0,o),
(792,51,o),
(792,144,cs),
(792,556,ls),
(792,649,o),
(741,700,o),
(648,700,cs),
(188,700,ls),
(95,700,o),
(44,649,o),
(44,556,cs),
(44,144,ls),
(44,51,o),
(95,0,o),
(188,0,cs),
(316,0,l),
(316,-96,ls),
(316,-189,o),
(367,-240,o),
(460,-240,cs)
);
},
{
closed = 1;
nodes = (
(259,144,o),
(248,155,o),
(248,174,cs),
(248,526,ls),
(248,545,o),
(259,556,o),
(278,556,cs),
(558,556,ls),
(577,556,o),
(588,545,o),
(588,526,cs),
(588,174,ls),
(588,155,o),
(577,144,o),
(558,144,cs),
(278,144,ls)
);
}
);
width = 836;
}
);
unicode = 81;
},
{
color = 6;
glyphname = R;
kernLeft = H;
kernRight = R;
lastChange = "2022-03-23 14:57:36 +0000";
layers = (
{
anchors = (
{
name = bottom;
pos = (419,0);
},
{
name = top;
pos = (419,700);
}
);
background = {
shapes = (
{
closed = 1;
nodes = (
(254,556,l),
(564,556,ls),
(583,556,o),
(594,545,o),
(594,526,cs),
(594,456,ls),
(594,437,o),
(583,426,o),
(564,426,cs),
(254,426,l)
);
},
{
closed = 1;
nodes = (
(254,0,l),
(254,282,l),
(564,282,ls),
(583,282,o),
(594,271,o),
(594,252,cs),
(594,0,l),
(798,0,l),
(798,196,ls),
(798,289,o),
(747,339,o),
(654,339,c),
(654,349,l),
(747,349,o),
(798,398,o),
(798,491,cs),
(798,556,ls),
(798,649,o),
(747,700,o),
(654,700,cs),
(50,700,l),
(50,0,l)
);
}
);
};
layerId = "422CF5D5-EDAF-47A9-A829-F34A9B802C97";
shapes = (
{
closed = 1;
nodes = (
(254,0,l),
(254,282,l),
(564,282,ls),
(583,282,o),
(594,271,o),
(594,252,cs),
(594,0,l),
(798,0,l),
(798,196,ls),
(798,289,o),
(747,339,o),
(654,339,c),
(654,349,l),
(747,349,o),
(798,398,o),
(798,491,cs),
(798,556,ls),
(798,649,o),
(747,700,o),
(654,700,cs),
(50,700,l),
(50,0,l)
);
},
{
closed = 1;
nodes = (
(254,556,l),
(564,556,ls),
(583,556,o),
(594,545,o),
(594,526,cs),
(594,456,ls),
(594,437,o),
(583,426,o),
(564,426,cs),
(254,426,l)
);
}
);
userData = {
com.schriftgestaltung.Glyphs.lastChange = "2020-02-02 16:58:32 +0000";
};
width = 837;
}
);
unicode = 82;
},
{
color = 10;
glyphname = Racute;
kernLeft = H;
kernRight = R;
lastChange = "2022-03-23 14:57:36 +0000";
layers = (
{
background = {
shapes = (
{
closed = 1;
nodes = (
(254,556,l),
(564,556,ls),
(583,556,o),
(594,545,o),
(594,526,cs),
(594,456,ls),
(594,437,o),
(583,426,o),
(564,426,cs),
(254,426,l)
);
},
{
closed = 1;
nodes = (
(254,0,l),
(254,282,l),
(564,282,ls),
(583,282,o),
(594,271,o),
(594,252,cs),
(594,0,l),
(798,0,l),
(798,196,ls),
(798,289,o),
(747,339,o),
(654,339,c),
(654,349,l),
(747,349,o),
(798,398,o),
(798,491,cs),
(798,556,ls),
(798,649,o),
(747,700,o),
(654,700,cs),
(50,700,l),
(50,0,l)
);
},
{
closed = 1;
nodes = (
(374,872,l),
(324,750,l),
(446,750,l),
(576,872,l)
);
}
);
};
layerId = "422CF5D5-EDAF-47A9-A829-F34A9B802C97";
shapes = (
{
ref = R;
},
{
pos = (358,0);
ref = acutecomb.case;
}
);
width = 837;
}
);
unicode = 340;
},
{
color = 10;
glyphname = Rcaron;
kernLeft = H;
kernRight = R;
lastChange = "2022-03-23 14:57:36 +0000";
layers = (
{
background = {
shapes = (
{
closed = 1;
nodes = (
(254,556,l),
(564,556,ls),
(583,556,o),
(594,545,o),
(594,526,cs),
(594,456,ls),
(594,437,o),
(583,426,o),
(564,426,cs),
(254,426,l)
);
},
{
closed = 1;
nodes = (
(254,0,l),
(254,282,l),
(564,282,ls),
(583,282,o),
(594,271,o),
(594,252,cs),
(594,0,l),
(798,0,l),
(798,196,ls),
(798,289,o),
(747,339,o),
(654,339,c),
(654,349,l),
(747,349,o),
(798,398,o),
(798,491,cs),
(798,556,ls),
(798,649,o),
(747,700,o),
(654,700,cs),
(50,700,l),
(50,0,l)
);
},
{
closed = 1;
nodes = (
(302,750,l),
(499,750,l),
(599,872,l),
(457,872,l),
(401,800,l),
(344,872,l),
(202,872,l)
);
}
);
};
layerId = "422CF5D5-EDAF-47A9-A829-F34A9B802C97";
shapes = (
{
ref = R;
},
{
pos = (220,0);
ref = caroncomb.case;
}
);
width = 837;
}
);
unicode = 344;
},
{
color = 10;
glyphname = Rcommaaccent;
kernLeft = H;
kernRight = R;
lastChange = "2022-03-23 14:57:36 +0000";
layers = (
{
background = {
shapes = (
{
closed = 1;
nodes = (
(254,556,l),
(564,556,ls),
(583,556,o),
(594,545,o),
(594,526,cs),
(594,456,ls),
(594,437,o),
(583,426,o),
(564,426,cs),
(254,426,l)
);
},
{
closed = 1;
nodes = (
(254,0,l),
(254,282,l),
(564,282,ls),
(583,282,o),
(594,271,o),
(594,252,cs),
(594,0,l),
(798,0,l),
(798,196,ls),
(798,289,o),
(747,339,o),
(654,339,c),
(654,349,l),
(747,349,o),
(798,398,o),
(798,491,cs),
(798,556,ls),
(798,649,o),
(747,700,o),
(654,700,cs),
(50,700,l),
(50,0,l)
);
},
{
closed = 1;
nodes = (
(440,-270,l),
(484,-173,ls),
(494,-151,o),
(498,-133,o),
(498,-117,cs),
(498,-74,o),
(466,-50,o),
(428,-50,cs),
(326,-50,l),
(326,-173,l),
(397,-173,l),
(356,-270,l)
);
}
);
};
layerId = "422CF5D5-EDAF-47A9-A829-F34A9B802C97";
shapes = (
{
ref = R;
},
{
pos = (300,0);
ref = commaaccentcomb.case;
}
);
width = 837;
}
);
unicode = 342;
},
{
color = 6;
glyphname = S;
kernLeft = S;
kernRight = S;
lastChange = "2022-03-23 14:57:36 +0000";
layers = (
{
anchors = (
{
name = bottom;
pos = (412,0);
},
{
name = top;
pos = (412,700);
}
);
background = {
shapes = (
{
closed = 1;
nodes = (
(38,51,o),
(89,0,o),
(182,0,cs),
(642,0,ls),
(735,0,o),
(786,51,o),
(786,144,cs),
(786,282,ls),
(786,375,o),
(735,426,o),
(642,426,cs),
(272,426,ls),
(253,426,o),
(242,437,o),
(242,456,cs),
(242,526,ls),
(242,545,o),
(253,556,o),
(272,556,cs),
(552,556,ls),
(571,556,o),
(582,545,o),
(582,526,cs),
(582,484,l),
(786,484,l),
(786,556,ls),
(786,649,o),
(735,700,o),
(642,700,cs),
(182,700,ls),
(89,700,o),
(38,649,o),
(38,556,cs),
(38,426,ls),
(38,333,o),
(89,282,o),
(182,282,cs),
(552,282,ls),
(571,282,o),
(582,271,o),
(582,252,cs),
(582,174,ls),
(582,155,o),
(571,144,o),
(552,144,cs),
(272,144,ls),
(253,144,o),
(242,155,o),
(242,174,cs),
(242,216,l),
(38,216,l),
(38,144,ls)
);
}
);
};
layerId = "422CF5D5-EDAF-47A9-A829-F34A9B802C97";
shapes = (
{
closed = 1;
nodes = (
(642,0,ls),
(735,0,o),
(786,51,o),
(786,144,cs),
(786,282,ls),
(786,375,o),
(735,426,o),
(642,426,cs),
(272,426,ls),
(253,426,o),
(242,437,o),
(242,456,cs),
(242,526,ls),
(242,545,o),
(253,556,o),
(272,556,cs),
(552,556,ls),
(571,556,o),
(582,545,o),
(582,526,cs),
(582,484,l),
(786,484,l),
(786,556,ls),
(786,649,o),
(735,700,o),
(642,700,cs),
(182,700,ls),
(89,700,o),
(38,649,o),
(38,556,cs),
(38,426,ls),
(38,333,o),
(89,282,o),
(182,282,cs),
(552,282,ls),
(571,282,o),
(582,271,o),
(582,252,cs),
(582,174,ls),
(582,155,o),
(571,144,o),
(552,144,cs),
(272,144,ls),
(253,144,o),
(242,155,o),
(242,174,cs),
(242,216,l),
(38,216,l),
(38,144,ls),
(38,51,o),
(89,0,o),
(182,0,cs)
);
}
);
width = 824;
}
);
unicode = 83;
},
{
color = 10;
glyphname = Sacute;
kernLeft = S;
kernRight = S;
lastChange = "2022-03-23 14:57:36 +0000";
layers = (
{
background = {
shapes = (
{
closed = 1;
nodes = (
(38,51,o),
(89,0,o),
(182,0,cs),
(642,0,ls),
(735,0,o),
(786,51,o),
(786,144,cs),
(786,282,ls),
(786,375,o),
(735,426,o),
(642,426,cs),
(272,426,ls),
(253,426,o),
(242,437,o),
(242,456,cs),
(242,526,ls),
(242,545,o),
(253,556,o),
(272,556,cs),
(552,556,ls),
(571,556,o),
(582,545,o),
(582,526,cs),
(582,484,l),
(786,484,l),
(786,556,ls),
(786,649,o),
(735,700,o),
(642,700,cs),
(182,700,ls),
(89,700,o),
(38,649,o),
(38,556,cs),
(38,426,ls),
(38,333,o),
(89,282,o),
(182,282,cs),
(552,282,ls),
(571,282,o),
(582,271,o),
(582,252,cs),
(582,174,ls),
(582,155,o),
(571,144,o),
(552,144,cs),
(272,144,ls),
(253,144,o),
(242,155,o),
(242,174,cs),
(242,216,l),
(38,216,l),
(38,144,ls)
);
},
{
closed = 1;
nodes = (
(385,872,l),
(335,750,l),
(457,750,l),
(587,872,l)
);
}
);
};
layerId = "422CF5D5-EDAF-47A9-A829-F34A9B802C97";
shapes = (
{
ref = S;
},
{
pos = (351,0);
ref = acutecomb.case;
}
);
width = 824;
}
);
unicode = 346;
},
{
color = 10;
glyphname = Scaron;
kernLeft = S;
kernRight = S;
lastChange = "2022-03-23 14:57:36 +0000";
layers = (
{
background = {
shapes = (
{
closed = 1;
nodes = (
(38,51,o),
(89,0,o),
(182,0,cs),
(642,0,ls),
(735,0,o),
(786,51,o),
(786,144,cs),
(786,282,ls),
(786,375,o),
(735,426,o),
(642,426,cs),
(272,426,ls),
(253,426,o),
(242,437,o),
(242,456,cs),
(242,526,ls),
(242,545,o),
(253,556,o),
(272,556,cs),
(552,556,ls),
(571,556,o),
(582,545,o),
(582,526,cs),
(582,484,l),
(786,484,l),
(786,556,ls),
(786,649,o),
(735,700,o),
(642,700,cs),
(182,700,ls),
(89,700,o),
(38,649,o),
(38,556,cs),
(38,426,ls),
(38,333,o),
(89,282,o),
(182,282,cs),
(552,282,ls),
(571,282,o),
(582,271,o),
(582,252,cs),
(582,174,ls),
(582,155,o),
(571,144,o),
(552,144,cs),
(272,144,ls),
(253,144,o),
(242,155,o),
(242,174,cs),
(242,216,l),
(38,216,l),
(38,144,ls)
);
},
{
closed = 1;
nodes = (
(293,750,l),
(490,750,l),
(590,872,l),
(448,872,l),
(392,800,l),
(335,872,l),
(193,872,l)
);
}
);
};
layerId = "422CF5D5-EDAF-47A9-A829-F34A9B802C97";
shapes = (
{
ref = S;
},
{
pos = (213,0);
ref = caroncomb.case;
}
);
width = 824;
}
);
unicode = 352;
},
{
color = 10;
glyphname = Scedilla;
kernLeft = S;
kernRight = S;
lastChange = "2022-03-23 14:57:36 +0000";
layers = (
{
background = {
shapes = (
{
closed = 1;
nodes = (
(38,51,o),
(89,0,o),
(182,0,cs),
(642,0,ls),
(735,0,o),
(786,51,o),
(786,144,cs),
(786,282,ls),
(786,375,o),
(735,426,o),
(642,426,cs),
(272,426,ls),
(253,426,o),
(242,437,o),
(242,456,cs),
(242,526,ls),
(242,545,o),
(253,556,o),
(272,556,cs),
(552,556,ls),
(571,556,o),
(582,545,o),
(582,526,cs),
(582,484,l),
(786,484,l),
(786,556,ls),
(786,649,o),
(735,700,o),
(642,700,cs),
(182,700,ls),
(89,700,o),
(38,649,o),
(38,556,cs),
(38,426,ls),
(38,333,o),
(89,282,o),
(182,282,cs),
(552,282,ls),
(571,282,o),
(582,271,o),
(582,252,cs),
(582,174,ls),
(582,155,o),
(571,144,o),
(552,144,cs),
(272,144,ls),
(253,144,o),
(242,155,o),
(242,174,cs),
(242,216,l),
(38,216,l),
(38,144,ls)
);
},
{
closed = 1;
nodes = (
(282,-270,l),
(414,-270,ls),
(485,-270,o),
(524,-231,o),
(524,-160,cs),
(524,-89,o),
(485,-51,o),
(414,-51,cs),
(332,-51,l),
(332,-130,l),
(382,-130,ls),
(402,-130,o),
(414,-141,o),
(414,-160,cs),
(414,-179,o),
(402,-191,o),
(382,-191,cs),
(282,-191,l)
);
}
);
};
layerId = "422CF5D5-EDAF-47A9-A829-F34A9B802C97";
shapes = (
{
ref = S;
},
{
pos = (266,0);
ref = cedillacomb.case;
}
);
width = 824;
}
);
unicode = 350;
},
{
color = 10;
glyphname = Scommaaccent;
kernLeft = S;
kernRight = S;
lastChange = "2022-03-23 14:57:36 +0000";
layers = (
{
background = {
shapes = (
{
closed = 1;
nodes = (
(38,51,o),
(89,0,o),
(182,0,cs),
(642,0,ls),
(735,0,o),
(786,51,o),
(786,144,cs),
(786,282,ls),
(786,375,o),
(735,426,o),
(642,426,cs),
(272,426,ls),
(253,426,o),
(242,437,o),
(242,456,cs),
(242,526,ls),
(242,545,o),
(253,556,o),
(272,556,cs),
(552,556,ls),
(571,556,o),
(582,545,o),
(582,526,cs),
(582,484,l),
(786,484,l),
(786,556,ls),
(786,649,o),
(735,700,o),
(642,700,cs),
(182,700,ls),
(89,700,o),
(38,649,o),
(38,556,cs),
(38,426,ls),
(38,333,o),
(89,282,o),
(182,282,cs),
(552,282,ls),
(571,282,o),
(582,271,o),
(582,252,cs),
(582,174,ls),
(582,155,o),
(571,144,o),
(552,144,cs),
(272,144,ls),
(253,144,o),
(242,155,o),
(242,174,cs),
(242,216,l),
(38,216,l),
(38,144,ls)
);
},
{
closed = 1;
nodes = (
(431,-270,l),
(475,-173,ls),
(485,-151,o),
(489,-133,o),
(489,-117,cs),
(489,-74,o),
(457,-50,o),
(419,-50,cs),
(317,-50,l),
(317,-173,l),
(388,-173,l),
(347,-270,l)
);
}
);
};
layerId = "422CF5D5-EDAF-47A9-A829-F34A9B802C97";
shapes = (
{
ref = S;
},
{
pos = (293,0);
ref = commaaccentcomb.case;
}
);
width = 824;
}
);
unicode = 536;
},
{
color = 6;
glyphname = uni1E9E;
kernLeft = S;
kernRight = S;
lastChange = "2022-03-23 14:57:36 +0000";
layers = (
{
anchors = (
{
name = bottom;
pos = (828,0);
},
{
name = top;
pos = (828,700);
}
);
background = {
shapes = (
{
closed = 1;
nodes = (
(38,51,o),
(89,0,o),
(182,0,cs),
(1474,0,ls),
(1567,0,o),
(1618,51,o),
(1618,144,cs),
(1618,282,ls),
(1618,375,o),
(1567,426,o),
(1474,426,cs),
(1104,426,ls),
(1085,426,o),
(1074,437,o),
(1074,456,cs),
(1074,526,ls),
(1074,545,o),
(1085,556,o),
(1104,556,cs),
(1384,556,ls),
(1403,556,o),
(1414,545,o),
(1414,526,cs),
(1414,484,l),
(1618,484,l),
(1618,556,ls),
(1618,649,o),
(1567,700,o),
(1474,700,cs),
(182,700,ls),
(89,700,o),
(38,649,o),
(38,556,cs),
(38,426,ls),
(38,333,o),
(89,282,o),
(182,282,cs),
(552,282,ls),
(571,282,o),
(582,271,o),
(582,252,cs),
(582,174,ls),
(582,155,o),
(571,144,o),
(552,144,cs),
(272,144,ls),
(253,144,o),
(242,155,o),
(242,174,cs),
(242,216,l),
(38,216,l),
(38,144,ls)
);
},
{
closed = 1;
nodes = (
(242,526,ls),
(242,545,o),
(253,556,o),
(272,556,cs),
(870,556,l),
(870,426,ls),
(870,333,o),
(921,282,o),
(1014,282,cs),
(1384,282,ls),
(1403,282,o),
(1414,271,o),
(1414,252,cs),
(1414,174,ls),
(1414,155,o),
(1403,144,o),
(1384,144,cs),
(786,144,l),
(786,282,ls),
(786,375,o),
(735,426,o),
(642,426,cs),
(272,426,ls),
(253,426,o),
(242,437,o),
(242,456,cs)
);
}
);
};
layerId = "422CF5D5-EDAF-47A9-A829-F34A9B802C97";
shapes = (
{
closed = 1;
nodes = (
(1474,0,ls),
(1567,0,o),
(1618,51,o),
(1618,144,cs),
(1618,282,ls),
(1618,375,o),
(1567,426,o),
(1474,426,cs),
(1104,426,ls),
(1085,426,o),
(1074,437,o),
(1074,456,cs),
(1074,526,ls),
(1074,545,o),
(1085,556,o),
(1104,556,cs),
(1384,556,ls),
(1403,556,o),
(1414,545,o),
(1414,526,cs),
(1414,484,l),
(1618,484,l),
(1618,556,ls),
(1618,649,o),
(1567,700,o),
(1474,700,cs),
(182,700,ls),
(89,700,o),
(38,649,o),
(38,556,cs),
(38,426,ls),
(38,333,o),
(89,282,o),
(182,282,cs),
(552,282,ls),
(571,282,o),
(582,271,o),
(582,252,cs),
(582,174,ls),
(582,155,o),
(571,144,o),
(552,144,cs),
(272,144,ls),
(253,144,o),
(242,155,o),
(242,174,cs),
(242,216,l),
(38,216,l),
(38,144,ls),
(38,51,o),
(89,0,o),
(182,0,cs)
);
},
{
closed = 1;
nodes = (
(786,282,ls),
(786,375,o),
(735,426,o),
(642,426,cs),
(272,426,ls),
(253,426,o),
(242,437,o),
(242,456,cs),
(242,526,ls),
(242,545,o),
(253,556,o),
(272,556,cs),
(870,556,l),
(870,426,ls),
(870,333,o),
(921,282,o),
(1014,282,cs),
(1384,282,ls),
(1403,282,o),
(1414,271,o),
(1414,252,cs),
(1414,174,ls),
(1414,155,o),
(1403,144,o),
(1384,144,cs),
(786,144,l)
);
}
);
width = 1656;
}
);
unicode = 7838;
},
{
color = 6;
glyphname = T;
kernLeft = T;
kernRight = T;
lastChange = "2022-03-23 14:57:36 +0000";
layers = (
{
anchors = (
{
name = bottom;
pos = (395,0);
},
{
name = center;
pos = (388,350);
},
{
name = top;
pos = (388,700);
}
);
background = {
shapes = (
{
closed = 1;
nodes = (
(286,556,l),
(286,0,l),
(490,0,l),
(490,556,l),
(761,556,l),
(761,700,l),
(15,700,l),
(15,556,l)
);
}
);
};
layerId = "422CF5D5-EDAF-47A9-A829-F34A9B802C97";
shapes = (
{
closed = 1;
nodes = (
(490,0,l),
(490,556,l),
(761,556,l),
(761,700,l),
(15,700,l),
(15,556,l),
(286,556,l),
(286,0,l)
);
}
);
width = 776;
}
);
unicode = 84;
},
{
color = 6;
glyphname = Tbar;
kernLeft = T;
kernRight = T;
lastChange = "2022-03-23 14:57:36 +0000";
layers = (
{
background = {
shapes = (
{
closed = 1;
nodes = (
(286,556,l),
(286,372,l),
(152,372,l),
(152,270,l),
(286,270,l),
(286,0,l),
(490,0,l),
(490,270,l),
(624,270,l),
(624,372,l),
(490,372,l),
(490,556,l),
(761,556,l),
(761,700,l),
(15,700,l),
(15,556,l)
);
}
);
};
layerId = "422CF5D5-EDAF-47A9-A829-F34A9B802C97";
shapes = (
{
closed = 1;
nodes = (
(490,0,l),
(490,270,l),
(624,270,l),
(624,372,l),
(490,372,l),
(490,556,l),
(761,556,l),
(761,700,l),
(15,700,l),
(15,556,l),
(286,556,l),
(286,372,l),
(152,372,l),
(152,270,l),
(286,270,l),
(286,0,l)
);
}
);
width = 776;
}
);
unicode = 358;
},
{
color = 10;
glyphname = Tcaron;
kernLeft = T;
kernRight = T;
lastChange = "2022-03-23 14:57:36 +0000";
layers = (
{
background = {
shapes = (
{
closed = 1;
nodes = (
(286,556,l),
(286,0,l),
(490,0,l),
(490,556,l),
(761,556,l),
(761,700,l),
(15,700,l),
(15,556,l)
);
},
{
closed = 1;
nodes = (
(290,750,l),
(487,750,l),
(587,872,l),
(445,872,l),
(389,800,l),
(332,872,l),
(190,872,l)
);
}
);
};
layerId = "422CF5D5-EDAF-47A9-A829-F34A9B802C97";
shapes = (
{
ref = T;
},
{
pos = (189,0);
ref = caroncomb.case;
}
);
userData = {
com.schriftgestaltung.Glyphs.lastChange = "2019-11-25 02:35:32 +0000";
};
width = 776;
}
);
unicode = 356;
},
{
color = 10;
glyphname = Tcedilla;
kernLeft = T;
kernRight = T;
lastChange = "2022-03-23 14:57:36 +0000";
layers = (
{
background = {
shapes = (
{
closed = 1;
nodes = (
(286,556,l),
(286,0,l),
(490,0,l),
(490,556,l),
(761,556,l),
(761,700,l),
(15,700,l),
(15,556,l)
);
},
{
closed = 1;
nodes = (
(267,-270,l),
(399,-270,ls),
(470,-270,o),
(509,-231,o),
(509,-160,cs),
(509,-89,o),
(470,-51,o),
(399,-51,cs),
(317,-51,l),
(317,-130,l),
(367,-130,ls),
(387,-130,o),
(399,-141,o),
(399,-160,cs),
(399,-179,o),
(387,-191,o),
(367,-191,cs),
(267,-191,l)
);
}
);
};
layerId = "422CF5D5-EDAF-47A9-A829-F34A9B802C97";
shapes = (
{
ref = T;
},
{
pos = (249,0);
ref = cedillacomb.case;
}
);
width = 776;
}
);
unicode = 354;
},
{
color = 10;
glyphname = Tcommaaccent;
kernLeft = T;
kernRight = T;
lastChange = "2022-03-23 14:57:36 +0000";
layers = (
{
background = {
shapes = (
{
closed = 1;
nodes = (
(286,556,l),
(286,0,l),
(490,0,l),
(490,556,l),
(761,556,l),
(761,700,l),
(15,700,l),
(15,556,l)
);
},
{
closed = 1;
nodes = (
(416,-270,l),
(460,-173,ls),
(470,-151,o),
(474,-133,o),
(474,-117,cs),
(474,-74,o),
(442,-50,o),
(404,-50,cs),
(302,-50,l),
(302,-173,l),
(373,-173,l),
(332,-270,l)
);
}
);
};
layerId = "422CF5D5-EDAF-47A9-A829-F34A9B802C97";
shapes = (
{
ref = T;
},
{
pos = (276,0);
ref = commaaccentcomb.case;
}
);
width = 776;
}
);
unicode = 538;
},
{
color = 6;
glyphname = U;
kernLeft = U;
kernRight = U;
lastChange = "2022-03-23 14:57:36 +0000";
layers = (
{
anchors = (
{
name = bottom;
pos = (422,0);
},
{
name = ogonek;
pos = (507,10);
},
{
name = top;
pos = (422,700);
},
{
name = topright;
pos = (824,700);
}
);
background = {
shapes = (
{
closed = 1;
nodes = (
(592,700,l),
(592,174,ls),
(592,155,o),
(581,144,o),
(562,144,cs),
(282,144,ls),
(263,144,o),
(252,155,o),
(252,174,cs),
(252,700,l),
(48,700,l),
(48,144,ls),
(48,51,o),
(99,0,o),
(192,0,cs),
(652,0,ls),
(745,0,o),
(796,51,o),
(796,144,cs),
(796,700,l)
);
}
);
};
layerId = "422CF5D5-EDAF-47A9-A829-F34A9B802C97";
shapes = (
{
closed = 1;
nodes = (
(652,0,ls),
(745,0,o),
(796,51,o),
(796,144,cs),
(796,700,l),
(592,700,l),
(592,174,ls),
(592,155,o),
(581,144,o),
(562,144,cs),
(282,144,ls),
(263,144,o),
(252,155,o),
(252,174,cs),
(252,700,l),
(48,700,l),
(48,144,ls),
(48,51,o),
(99,0,o),
(192,0,cs)
);
}
);
width = 844;
}
);
unicode = 85;
},
{
color = 10;
glyphname = Uacute;
kernLeft = U;
kernRight = U;
lastChange = "2022-03-23 14:57:36 +0000";
layers = (
{
background = {
shapes = (
{
closed = 1;
nodes = (
(592,700,l),
(592,174,ls),
(592,155,o),
(581,144,o),
(562,144,cs),
(282,144,ls),
(263,144,o),
(252,155,o),
(252,174,cs),
(252,700,l),
(48,700,l),
(48,144,ls),
(48,51,o),
(99,0,o),
(192,0,cs),
(652,0,ls),
(745,0,o),
(796,51,o),
(796,144,cs),
(796,700,l)
);
},
{
closed = 1;
nodes = (
(386,872,l),
(336,750,l),
(458,750,l),
(588,872,l)
);
}
);
};
layerId = "422CF5D5-EDAF-47A9-A829-F34A9B802C97";
shapes = (
{
ref = U;
},
{
pos = (361,0);
ref = acutecomb.case;
}
);
width = 844;
}
);
unicode = 218;
},
{
color = 10;
glyphname = Ucircumflex;
kernLeft = U;
kernRight = U;
lastChange = "2022-03-23 14:57:36 +0000";
layers = (
{
background = {
shapes = (
{
closed = 1;
nodes = (
(592,700,l),
(592,174,ls),
(592,155,o),
(581,144,o),
(562,144,cs),
(282,144,ls),
(263,144,o),
(252,155,o),
(252,174,cs),
(252,700,l),
(48,700,l),
(48,144,ls),
(48,51,o),
(99,0,o),
(192,0,cs),
(652,0,ls),
(745,0,o),
(796,51,o),
(796,144,cs),
(796,700,l)
);
},
{
closed = 1;
nodes = (
(345,750,l),
(402,822,l),
(458,750,l),
(600,750,l),
(500,872,l),
(303,872,l),
(203,750,l)
);
}
);
};
layerId = "422CF5D5-EDAF-47A9-A829-F34A9B802C97";
shapes = (
{
ref = U;
},
{
pos = (223,0);
ref = circumflexcomb.case;
}
);
width = 844;
}
);
unicode = 219;
},
{
color = 10;
glyphname = Udieresis;
kernLeft = U;
kernRight = U;
lastChange = "2022-03-23 14:57:36 +0000";
layers = (
{
background = {
shapes = (
{
closed = 1;
nodes = (
(592,700,l),
(592,174,ls),
(592,155,o),
(581,144,o),
(562,144,cs),
(282,144,ls),
(263,144,o),
(252,155,o),
(252,174,cs),
(252,700,l),
(48,700,l),
(48,144,ls),
(48,51,o),
(99,0,o),
(192,0,cs),
(652,0,ls),
(745,0,o),
(796,51,o),
(796,144,cs),
(796,700,l)
);
},
{
closed = 1;
nodes = (
(211,750,l),
(383,750,l),
(383,872,l),
(211,872,l)
);
},
{
closed = 1;
nodes = (
(461,750,l),
(633,750,l),
(633,872,l),
(461,872,l)
);
}
);
};
layerId = "422CF5D5-EDAF-47A9-A829-F34A9B802C97";
shapes = (
{
ref = U;
},
{
pos = (160,0);
ref = dieresiscomb.case;
}
);
width = 844;
}
);
unicode = 220;
},
{
color = 10;
glyphname = Ugrave;
kernLeft = U;
kernRight = U;
lastChange = "2022-03-23 14:57:36 +0000";
layers = (
{
background = {
shapes = (
{
closed = 1;
nodes = (
(592,700,l),
(592,174,ls),
(592,155,o),
(581,144,o),
(562,144,cs),
(282,144,ls),
(263,144,o),
(252,155,o),
(252,174,cs),
(252,700,l),
(48,700,l),
(48,144,ls),
(48,51,o),
(99,0,o),
(192,0,cs),
(652,0,ls),
(745,0,o),
(796,51,o),
(796,144,cs),
(796,700,l)
);
},
{
closed = 1;
nodes = (
(351,750,l),
(473,750,l),
(423,872,l),
(221,872,l)
);
}
);
};
layerId = "422CF5D5-EDAF-47A9-A829-F34A9B802C97";
shapes = (
{
ref = U;
},
{
pos = (231,0);
ref = gravecomb.case;
}
);
width = 844;
}
);
unicode = 217;
},
{
color = 10;
glyphname = Uhungarumlaut;
kernLeft = U;
kernRight = U;
lastChange = "2022-03-23 14:57:36 +0000";
layers = (
{
background = {
shapes = (
{
closed = 1;
nodes = (
(592,700,l),
(592,174,ls),
(592,155,o),
(581,144,o),
(562,144,cs),
(282,144,ls),
(263,144,o),
(252,155,o),
(252,174,cs),
(252,700,l),
(48,700,l),
(48,144,ls),
(48,51,o),
(99,0,o),
(192,0,cs),
(652,0,ls),
(745,0,o),
(796,51,o),
(796,144,cs),
(796,700,l)
);
},
{
closed = 1;
nodes = (
(286,872,l),
(236,750,l),
(358,750,l),
(488,872,l)
);
},
{
closed = 1;
nodes = (
(516,872,l),
(466,750,l),
(588,750,l),
(718,872,l)
);
}
);
};
layerId = "422CF5D5-EDAF-47A9-A829-F34A9B802C97";
shapes = (
{
ref = U;
},
{
pos = (246,100);
ref = hungarumlautcomb.case;
}
);
width = 844;
}
);
unicode = 368;
},
{
color = 10;
glyphname = Umacron;
kernLeft = U;
kernRight = U;
lastChange = "2022-03-23 14:57:36 +0000";
layers = (
{
background = {
shapes = (
{
closed = 1;
nodes = (
(592,700,l),
(592,174,ls),
(592,155,o),
(581,144,o),
(562,144,cs),
(282,144,ls),
(263,144,o),
(252,155,o),
(252,174,cs),
(252,700,l),
(48,700,l),
(48,144,ls),
(48,51,o),
(99,0,o),
(192,0,cs),
(652,0,ls),
(745,0,o),
(796,51,o),
(796,144,cs),
(796,700,l)
);
},
{
closed = 1;
nodes = (
(599,760,l),
(599,862,l),
(227,862,l),
(227,760,l)
);
}
);
};
layerId = "422CF5D5-EDAF-47A9-A829-F34A9B802C97";
shapes = (
{
ref = U;
},
{
pos = (212,0);
ref = macroncomb.case;
}
);
width = 844;
}
);
unicode = 362;
},
{
color = 10;
glyphname = Uogonek;
kernLeft = U;
kernRight = U;
lastChange = "2022-03-23 14:57:36 +0000";
layers = (
{
background = {
shapes = (
{
closed = 1;
nodes = (
(592,700,l),
(592,174,ls),
(592,155,o),
(581,144,o),
(562,144,cs),
(282,144,ls),
(263,144,o),
(252,155,o),
(252,174,cs),
(252,700,l),
(48,700,l),
(48,144,ls),
(48,51,o),
(99,0,o),
(192,0,cs),
(652,0,ls),
(745,0,o),
(796,51,o),
(796,144,cs),
(796,700,l)
);
},
{
closed = 1;
nodes = (
(413,-73,o),
(414,-46,o),
(445,0,c),
(383,0,l),
(332,-30,o),
(303,-59,o),
(303,-109,cs),
(303,-180,o),
(342,-219,o),
(413,-219,cs),
(527,-219,ls),
(598,-219,o),
(637,-180,o),
(637,-109,c),
(527,-109,l),
(527,-128,o),
(515,-140,o),
(495,-140,cs),
(445,-140,ls),
(425,-140,o),
(413,-128,o),
(413,-109,cs)
);
}
);
};
layerId = "422CF5D5-EDAF-47A9-A829-F34A9B802C97";
shapes = (
{
ref = U;
},
{
pos = (285,0);
ref = ogonekcomb.case;
}
);
width = 844;
}
);
unicode = 370;
},
{
color = 10;
glyphname = Uring;
kernLeft = U;
kernRight = U;
lastChange = "2022-03-23 14:57:36 +0000";
layers = (
{
background = {
shapes = (
{
closed = 1;
nodes = (
(592,700,l),
(592,174,ls),
(592,155,o),
(581,144,o),
(562,144,cs),
(282,144,ls),
(263,144,o),
(252,155,o),
(252,174,cs),
(252,700,l),
(48,700,l),
(48,144,ls),
(48,51,o),
(99,0,o),
(192,0,cs),
(652,0,ls),
(745,0,o),
(796,51,o),
(796,144,cs),
(796,700,l)
);
},
{
closed = 1;
nodes = (
(467,740,ls),
(538,740,o),
(577,779,o),
(577,850,cs),
(577,921,o),
(538,959,o),
(467,959,cs),
(353,959,ls),
(282,959,o),
(243,920,o),
(243,850,cs),
(243,779,o),
(282,740,o),
(353,740,cs)
);
},
{
closed = 1;
nodes = (
(353,870,o),
(365,880,o),
(385,880,cs),
(435,880,ls),
(455,880,o),
(467,869,o),
(467,850,cs),
(467,831,o),
(455,819,o),
(435,819,cs),
(385,819,ls),
(365,819,o),
(353,831,o),
(353,850,cs)
);
}
);
};
layerId = "422CF5D5-EDAF-47A9-A829-F34A9B802C97";
shapes = (
{
ref = U;
},
{
pos = (237,0);
ref = ringcomb.case;
}
);
width = 844;
}
);
unicode = 366;
},
{
color = 6;
glyphname = V;
lastChange = "2022-03-23 14:57:36 +0000";
layers = (
{
anchors = (
{
name = bottom;
pos = (433,0);
},
{
name = top;
pos = (433,700);
}
);
background = {
shapes = (
{
closed = 1;
nodes = (
(211,700,l),
(-8,700,l),
(342,0,l),
(523,0,l),
(873,700,l),
(707,700,l),
(459,204,l)
);
}
);
};
layerId = "422CF5D5-EDAF-47A9-A829-F34A9B802C97";
shapes = (
{
closed = 1;
nodes = (
(523,0,l),
(873,700,l),
(707,700,l),
(459,204,l),
(211,700,l),
(-8,700,l),
(342,0,l)
);
}
);
width = 865;
}
);
unicode = 86;
},
{
color = 6;
glyphname = W;
kernLeft = W;
kernRight = W;
lastChange = "2022-03-23 14:57:36 +0000";
layers = (
{
anchors = (
{
name = bottom;
pos = (594,0);
},
{
name = top;
pos = (617,700);
}
);
background = {
shapes = (
{
closed = 1;
nodes = (
(202,700,l),
(-7,700,l),
(243,0,l),
(424,0,l),
(674,700,l),
(513,700,l),
(298,70,l),
(403,97,l)
);
},
{
closed = 1;
nodes = (
(722,700,l),
(513,700,l),
(763,0,l),
(944,0,l),
(1194,700,l),
(1033,700,l),
(818,70,l),
(923,97,l)
);
}
);
};
layerId = "422CF5D5-EDAF-47A9-A829-F34A9B802C97";
shapes = (
{
closed = 1;
nodes = (
(944,0,l),
(1194,700,l),
(1033,700,l),
(818,70,l),
(923,97,l),
(722,700,l),
(513,700,l),
(763,0,l)
);
},
{
closed = 1;
nodes = (
(424,0,l),
(674,700,l),
(513,700,l),
(298,70,l),
(403,97,l),
(202,700,l),
(-7,700,l),
(243,0,l)
);
}
);
width = 1187;
}
);
unicode = 87;
},
{
color = 10;
glyphname = Wacute;
kernLeft = W;
kernRight = W;
lastChange = "2022-03-23 14:57:36 +0000";
layers = (
{
background = {
shapes = (
{
closed = 1;
nodes = (
(202,700,l),
(-7,700,l),
(243,0,l),
(424,0,l),
(674,700,l),
(513,700,l),
(298,70,l),
(403,97,l)
);
},
{
closed = 1;
nodes = (
(722,700,l),
(513,700,l),
(763,0,l),
(944,0,l),
(1194,700,l),
(1033,700,l),
(818,70,l),
(923,97,l)
);
},
{
closed = 1;
nodes = (
(603,872,l),
(553,750,l),
(675,750,l),
(805,872,l)
);
}
);
};
layerId = "422CF5D5-EDAF-47A9-A829-F34A9B802C97";
shapes = (
{
ref = W;
},
{
pos = (556,0);
ref = acutecomb.case;
}
);
width = 1187;
}
);
unicode = 7810;
},
{
color = 10;
glyphname = Wcircumflex;
kernLeft = W;
kernRight = W;
lastChange = "2022-03-23 14:57:36 +0000";
layers = (
{
background = {
shapes = (
{
closed = 1;
nodes = (
(202,700,l),
(-7,700,l),
(243,0,l),
(424,0,l),
(674,700,l),
(513,700,l),
(298,70,l),
(403,97,l)
);
},
{
closed = 1;
nodes = (
(722,700,l),
(513,700,l),
(763,0,l),
(944,0,l),
(1194,700,l),
(1033,700,l),
(818,70,l),
(923,97,l)
);
},
{
closed = 1;
nodes = (
(537,750,l),
(594,822,l),
(650,750,l),
(792,750,l),
(692,872,l),
(495,872,l),
(395,750,l)
);
}
);
};
layerId = "422CF5D5-EDAF-47A9-A829-F34A9B802C97";
shapes = (
{
ref = W;
},
{
pos = (418,0);
ref = circumflexcomb.case;
}
);
width = 1187;
}
);
unicode = 372;
},
{
color = 10;
glyphname = Wdieresis;
kernLeft = W;
kernRight = W;
lastChange = "2022-03-23 14:57:36 +0000";
layers = (
{
background = {
shapes = (
{
closed = 1;
nodes = (
(202,700,l),
(-7,700,l),
(243,0,l),
(424,0,l),
(674,700,l),
(513,700,l),
(298,70,l),
(403,97,l)
);
},
{
closed = 1;
nodes = (
(722,700,l),
(513,700,l),
(763,0,l),
(944,0,l),
(1194,700,l),
(1033,700,l),
(818,70,l),
(923,97,l)
);
},
{
closed = 1;
nodes = (
(383,750,l),
(555,750,l),
(555,872,l),
(383,872,l)
);
},
{
closed = 1;
nodes = (
(633,750,l),
(805,750,l),
(805,872,l),
(633,872,l)
);
}
);
};
layerId = "422CF5D5-EDAF-47A9-A829-F34A9B802C97";
shapes = (
{
ref = W;
},
{
pos = (355,0);
ref = dieresiscomb.case;
}
);
width = 1187;
}
);
unicode = 7812;
},
{
color = 10;
glyphname = Wgrave;
kernLeft = W;
kernRight = W;
lastChange = "2022-03-23 14:57:36 +0000";
layers = (
{
background = {
shapes = (
{
closed = 1;
nodes = (
(202,700,l),
(-7,700,l),
(243,0,l),
(424,0,l),
(674,700,l),
(513,700,l),
(298,70,l),
(403,97,l)
);
},
{
closed = 1;
nodes = (
(722,700,l),
(513,700,l),
(763,0,l),
(944,0,l),
(1194,700,l),
(1033,700,l),
(818,70,l),
(923,97,l)
);
},
{
closed = 1;
nodes = (
(543,750,l),
(665,750,l),
(615,872,l),
(413,872,l)
);
}
);
};
layerId = "422CF5D5-EDAF-47A9-A829-F34A9B802C97";
shapes = (
{
ref = W;
},
{
pos = (426,0);
ref = gravecomb.case;
}
);
width = 1187;
}
);
unicode = 7808;
},
{
color = 6;
glyphname = X;
lastChange = "2022-03-23 14:57:36 +0000";
layers = (
{
anchors = (
{
name = bottom;
pos = (454,0);
},
{
name = top;
pos = (454,700);
}
);
background = {
shapes = (
{
closed = 1;
nodes = (
(251,700,l),
(-8,700,l),
(389,273,l),
(389,403,l),
(-8,0,l),
(201,0,l),
(581,385,l),
(591,333,l)
);
},
{
closed = 1;
nodes = (
(657,0,l),
(916,0,l),
(519,427,l),
(519,297,l),
(916,700,l),
(707,700,l),
(327,315,l),
(317,367,l)
);
}
);
};
layerId = "422CF5D5-EDAF-47A9-A829-F34A9B802C97";
shapes = (
{
closed = 1;
nodes = (
(916,0,l),
(519,427,l),
(519,297,l),
(916,700,l),
(707,700,l),
(327,315,l),
(317,367,l),
(657,0,l)
);
},
{
closed = 1;
nodes = (
(201,0,l),
(581,385,l),
(591,333,l),
(251,700,l),
(-8,700,l),
(389,273,l),
(389,403,l),
(-8,0,l)
);
}
);
width = 908;
}
);
unicode = 88;
},
{
color = 6;
glyphname = Y;
kernLeft = Y;
kernRight = Y;
lastChange = "2022-03-23 14:57:36 +0000";
layers = (
{
anchors = (
{
name = bottom;
pos = (451,0);
},
{
name = top;
pos = (451,700);
},
{
name = topleft;
pos = (20,700);
}
);
background = {
shapes = (
{
closed = 1;
nodes = (
(340,340,l),
(340,0,l),
(544,0,l),
(544,340,l),
(918,700,l),
(709,700,l),
(474,462,l),
(253,700,l),
(-6,700,l)
);
}
);
};
layerId = "422CF5D5-EDAF-47A9-A829-F34A9B802C97";
shapes = (
{
closed = 1;
nodes = (
(544,0,l),
(544,340,l),
(918,700,l),
(709,700,l),
(474,462,l),
(253,700,l),
(-6,700,l),
(340,340,l),
(340,0,l)
);
}
);
width = 901;
}
);
unicode = 89;
},
{
color = 10;
glyphname = Yacute;
kernLeft = Y;
kernRight = Y;
lastChange = "2022-03-23 14:57:36 +0000";
layers = (
{
background = {
shapes = (
{
closed = 1;
nodes = (
(340,340,l),
(340,0,l),
(544,0,l),
(544,340,l),
(918,700,l),
(709,700,l),
(474,462,l),
(253,700,l),
(-6,700,l)
);
},
{
closed = 1;
nodes = (
(432,872,l),
(382,750,l),
(504,750,l),
(634,872,l)
);
}
);
};
layerId = "422CF5D5-EDAF-47A9-A829-F34A9B802C97";
shapes = (
{
ref = Y;
},
{
pos = (390,0);
ref = acutecomb.case;
}
);
width = 901;
}
);
unicode = 221;
},
{
color = 10;
glyphname = Ycircumflex;
kernLeft = Y;
kernRight = Y;
lastChange = "2022-03-23 14:57:36 +0000";
layers = (
{
background = {
shapes = (
{
closed = 1;
nodes = (
(340,340,l),
(340,0,l),
(544,0,l),
(544,340,l),
(918,700,l),
(709,700,l),
(474,462,l),
(253,700,l),
(-6,700,l)
);
},
{
closed = 1;
nodes = (
(423,750,l),
(480,822,l),
(536,750,l),
(678,750,l),
(578,872,l),
(381,872,l),
(281,750,l)
);
}
);
};
layerId = "422CF5D5-EDAF-47A9-A829-F34A9B802C97";
shapes = (
{
ref = Y;
},
{
pos = (252,0);
ref = circumflexcomb.case;
}
);
width = 901;
}
);
unicode = 374;
},
{
color = 10;
glyphname = Ydieresis;
kernLeft = Y;
kernRight = Y;
lastChange = "2022-03-23 14:57:36 +0000";
layers = (
{
background = {
shapes = (
{
closed = 1;
nodes = (
(340,340,l),
(340,0,l),
(544,0,l),
(544,340,l),
(918,700,l),
(709,700,l),
(474,462,l),
(253,700,l),
(-6,700,l)
);
},
{
closed = 1;
nodes = (
(269,750,l),
(441,750,l),
(441,872,l),
(269,872,l)
);
},
{
closed = 1;
nodes = (
(519,750,l),
(691,750,l),
(691,872,l),
(519,872,l)
);
}
);
};
layerId = "422CF5D5-EDAF-47A9-A829-F34A9B802C97";
shapes = (
{
ref = Y;
},
{
pos = (189,0);
ref = dieresiscomb.case;
}
);
width = 901;
}
);
unicode = 376;
},
{
color = 10;
glyphname = Ygrave;
kernLeft = Y;
kernRight = Y;
lastChange = "2022-03-23 14:57:36 +0000";
layers = (
{
background = {
shapes = (
{
closed = 1;
nodes = (
(340,340,l),
(340,0,l),
(544,0,l),
(544,340,l),
(918,700,l),
(709,700,l),
(474,462,l),
(253,700,l),
(-6,700,l)
);
},
{
closed = 1;
nodes = (
(422,750,l),
(544,750,l),
(494,872,l),
(292,872,l)
);
}
);
};
layerId = "422CF5D5-EDAF-47A9-A829-F34A9B802C97";
shapes = (
{
ref = Y;
},
{
pos = (260,0);
ref = gravecomb.case;
}
);
width = 901;
}
);
unicode = 7922;
},
{
color = 6;
glyphname = Z;
kernLeft = Z;
kernRight = Z;
lastChange = "2022-03-23 14:57:36 +0000";
layers = (
{
anchors = (
{
name = bottom;
pos = (399,0);
},
{
name = center;
pos = (399,350);
},
{
name = top;
pos = (399,700);
}
);
background = {
shapes = (
{
closed = 1;
nodes = (
(773,144,l),
(319,144,l),
(773,556,l),
(773,700,l),
(25,700,l),
(25,556,l),
(479,556,l),
(25,144,l),
(25,0,l),
(773,0,l)
);
}
);
};
layerId = "422CF5D5-EDAF-47A9-A829-F34A9B802C97";
shapes = (
{
closed = 1;
nodes = (
(773,0,l),
(773,144,l),
(319,144,l),
(773,556,l),
(773,700,l),
(25,700,l),
(25,556,l),
(479,556,l),
(25,144,l),
(25,0,l)
);
}
);
width = 798;
}
);
unicode = 90;
},
{
color = 10;
glyphname = Zacute;
kernLeft = Z;
kernRight = Z;
lastChange = "2022-03-23 14:57:36 +0000";
layers = (
{
background = {
shapes = (
{
closed = 1;
nodes = (
(773,144,l),
(319,144,l),
(773,556,l),
(773,700,l),
(25,700,l),
(25,556,l),
(479,556,l),
(25,144,l),
(25,0,l),
(773,0,l)
);
},
{
closed = 1;
nodes = (
(343,872,l),
(293,750,l),
(415,750,l),
(545,872,l)
);
}
);
};
layerId = "422CF5D5-EDAF-47A9-A829-F34A9B802C97";
shapes = (
{
ref = Z;
},
{
pos = (338,0);
ref = acutecomb.case;
}
);
width = 798;
}
);
unicode = 377;
},
{
color = 10;
glyphname = Zcaron;
kernLeft = Z;
kernRight = Z;
lastChange = "2022-03-23 14:57:36 +0000";
layers = (
{
background = {
shapes = (
{
closed = 1;
nodes = (
(773,144,l),
(319,144,l),
(773,556,l),
(773,700,l),
(25,700,l),
(25,556,l),
(479,556,l),
(25,144,l),
(25,0,l),
(773,0,l)
);
},
{
closed = 1;
nodes = (
(280,750,l),
(477,750,l),
(577,872,l),
(435,872,l),
(379,800,l),
(322,872,l),
(180,872,l)
);
}
);
};
layerId = "422CF5D5-EDAF-47A9-A829-F34A9B802C97";
shapes = (
{
ref = Z;
},
{
pos = (200,0);
ref = caroncomb.case;
}
);
width = 798;
}
);
unicode = 381;
},
{
color = 10;
glyphname = Zdotaccent;
kernLeft = Z;
kernRight = Z;
lastChange = "2022-03-23 14:57:36 +0000";
layers = (
{
background = {
shapes = (
{
closed = 1;
nodes = (
(773,144,l),
(319,144,l),
(773,556,l),
(773,700,l),
(25,700,l),
(25,556,l),
(479,556,l),
(25,144,l),
(25,0,l),
(773,0,l)
);
},
{
closed = 1;
nodes = (
(313,750,l),
(485,750,l),
(485,872,l),
(313,872,l)
);
}
);
};
layerId = "422CF5D5-EDAF-47A9-A829-F34A9B802C97";
shapes = (
{
ref = Z;
},
{
pos = (265,100);
ref = dotaccentcomb.case;
}
);
width = 798;
}
);
unicode = 379;
},
{
color = 6;
glyphname = Y.ss02;
kernLeft = Y.ss02;
kernRight = Y.ss02;
lastChange = "2022-03-23 14:57:36 +0000";
layers = (
{
anchors = (
{
name = bottom;
pos = (407,0);
},
{
name = top;
pos = (407,700);
},
{
name = topleft;
pos = (20,700);
}
);
background = {
shapes = (
{
closed = 1;
nodes = (
(33,333,o),
(84,282,o),
(177,282,cs),
(305,282,l),
(305,0,l),
(509,0,l),
(509,282,l),
(637,282,ls),
(730,282,o),
(781,333,o),
(781,426,cs),
(781,700,l),
(577,700,l),
(577,456,ls),
(577,437,o),
(566,426,o),
(547,426,cs),
(267,426,ls),
(248,426,o),
(237,437,o),
(237,456,cs),
(237,700,l),
(33,700,l),
(33,426,ls)
);
}
);
};
layerId = "422CF5D5-EDAF-47A9-A829-F34A9B802C97";
shapes = (
{
closed = 1;
nodes = (
(509,0,l),
(509,282,l),
(637,282,ls),
(730,282,o),
(781,333,o),
(781,426,cs),
(781,700,l),
(577,700,l),
(577,456,ls),
(577,437,o),
(566,426,o),
(547,426,cs),
(267,426,ls),
(248,426,o),
(237,437,o),
(237,456,cs),
(237,700,l),
(33,700,l),
(33,426,ls),
(33,333,o),
(84,282,o),
(177,282,cs),
(305,282,l),
(305,0,l)
);
}
);
width = 814;
}
);
},
{
color = 10;
glyphname = Yacute.ss02;
kernLeft = Y.ss02;
kernRight = Y.ss02;
lastChange = "2022-03-23 14:57:36 +0000";
layers = (
{
background = {
shapes = (
{
closed = 1;
nodes = (
(33,333,o),
(84,282,o),
(177,282,cs),
(305,282,l),
(305,0,l),
(509,0,l),
(509,282,l),
(637,282,ls),
(730,282,o),
(781,333,o),
(781,426,cs),
(781,700,l),
(577,700,l),
(577,456,ls),
(577,437,o),
(566,426,o),
(547,426,cs),
(267,426,ls),
(248,426,o),
(237,437,o),
(237,456,cs),
(237,700,l),
(33,700,l),
(33,426,ls)
);
},
{
closed = 1;
nodes = (
(367,872,l),
(317,750,l),
(439,750,l),
(569,872,l)
);
}
);
};
layerId = "422CF5D5-EDAF-47A9-A829-F34A9B802C97";
shapes = (
{
ref = Y.ss02;
},
{
pos = (346,0);
ref = acutecomb.case;
}
);
width = 814;
}
);
},
{
color = 10;
glyphname = Ycircumflex.ss02;
kernLeft = Y.ss02;
kernRight = Y.ss02;
lastChange = "2022-03-23 14:57:36 +0000";
layers = (
{
background = {
shapes = (
{
closed = 1;
nodes = (
(33,333,o),
(84,282,o),
(177,282,cs),
(305,282,l),
(305,0,l),
(509,0,l),
(509,282,l),
(637,282,ls),
(730,282,o),
(781,333,o),
(781,426,cs),
(781,700,l),
(577,700,l),
(577,456,ls),
(577,437,o),
(566,426,o),
(547,426,cs),
(267,426,ls),
(248,426,o),
(237,437,o),
(237,456,cs),
(237,700,l),
(33,700,l),
(33,426,ls)
);
},
{
closed = 1;
nodes = (
(351,750,l),
(408,822,l),
(464,750,l),
(606,750,l),
(506,872,l),
(309,872,l),
(209,750,l)
);
}
);
};
layerId = "422CF5D5-EDAF-47A9-A829-F34A9B802C97";
shapes = (
{
ref = Y.ss02;
},
{
pos = (208,0);
ref = circumflexcomb.case;
}
);
width = 814;
}
);
},
{
color = 10;
glyphname = Ydieresis.ss02;
kernLeft = Y.ss02;
kernRight = Y.ss02;
lastChange = "2022-03-23 14:57:36 +0000";
layers = (
{
background = {
shapes = (
{
closed = 1;
nodes = (
(33,333,o),
(84,282,o),
(177,282,cs),
(305,282,l),
(305,0,l),
(509,0,l),
(509,282,l),
(637,282,ls),
(730,282,o),
(781,333,o),
(781,426,cs),
(781,700,l),
(577,700,l),
(577,456,ls),
(577,437,o),
(566,426,o),
(547,426,cs),
(267,426,ls),
(248,426,o),
(237,437,o),
(237,456,cs),
(237,700,l),
(33,700,l),
(33,426,ls)
);
},
{
closed = 1;
nodes = (
(196,750,l),
(368,750,l),
(368,872,l),
(196,872,l)
);
},
{
closed = 1;
nodes = (
(446,750,l),
(618,750,l),
(618,872,l),
(446,872,l)
);
}
);
};
layerId = "422CF5D5-EDAF-47A9-A829-F34A9B802C97";
shapes = (
{
ref = Y.ss02;
},
{
pos = (145,0);
ref = dieresiscomb.case;
}
);
width = 814;
}
);
},
{
color = 10;
glyphname = Ygrave.ss02;
kernLeft = Y.ss02;
kernRight = Y.ss02;
lastChange = "2022-03-23 14:57:36 +0000";
layers = (
{
background = {
shapes = (
{
closed = 1;
nodes = (
(33,333,o),
(84,282,o),
(177,282,cs),
(305,282,l),
(305,0,l),
(509,0,l),
(509,282,l),
(637,282,ls),
(730,282,o),
(781,333,o),
(781,426,cs),
(781,700,l),
(577,700,l),
(577,456,ls),
(577,437,o),
(566,426,o),
(547,426,cs),
(267,426,ls),
(248,426,o),
(237,437,o),
(237,456,cs),
(237,700,l),
(33,700,l),
(33,426,ls)
);
},
{
closed = 1;
nodes = (
(351,750,l),
(473,750,l),
(423,872,l),
(221,872,l)
);
}
);
};
layerId = "422CF5D5-EDAF-47A9-A829-F34A9B802C97";
shapes = (
{
ref = Y.ss02;
},
{
pos = (216,0);
ref = gravecomb.case;
}
);
width = 814;
}
);
},
{
color = 6;
glyphname = a;
kernLeft = a;
kernRight = a;
lastChange = "2022-03-23 14:57:36 +0000";
layers = (
{
anchors = (
{
name = bottom;
pos = (363,0);
},
{
name = ogonek;
pos = (653,10);
},
{
name = top;
pos = (363,600);
}
);
background = {
shapes = (
{
closed = 1;
nodes = (
(34,45,o),
(79,0,o),
(161,0,cs),
(682,0,l),
(682,473,ls),
(682,555,o),
(637,600,o),
(555,600,cs),
(161,600,ls),
(79,600,o),
(34,555,o),
(34,473,cs),
(34,414,l),
(226,414,l),
(226,444,ls),
(226,463,o),
(237,474,o),
(256,474,cs),
(460,474,ls),
(479,474,o),
(490,463,o),
(490,444,cs),
(490,364,l),
(161,364,ls),
(79,364,o),
(34,319,o),
(34,238,cs),
(34,127,ls)
);
},
{
closed = 1;
nodes = (
(226,208,ls),
(226,227,o),
(237,238,o),
(256,238,cs),
(490,238,l),
(490,126,l),
(256,126,ls),
(237,126,o),
(226,137,o),
(226,156,cs)
);
}
);
};
layerId = "422CF5D5-EDAF-47A9-A829-F34A9B802C97";
shapes = (
{
closed = 1;
nodes = (
(682,0,l),
(682,473,ls),
(682,555,o),
(637,600,o),
(555,600,cs),
(161,600,ls),
(79,600,o),
(34,555,o),
(34,473,cs),
(34,414,l),
(226,414,l),
(226,444,ls),
(226,463,o),
(237,474,o),
(256,474,cs),
(460,474,ls),
(479,474,o),
(490,463,o),
(490,444,cs),
(490,364,l),
(161,364,ls),
(79,364,o),
(34,319,o),
(34,238,cs),
(34,127,ls),
(34,45,o),
(79,0,o),
(161,0,cs)
);
},
{
closed = 1;
nodes = (
(237,126,o),
(226,137,o),
(226,156,cs),
(226,208,ls),
(226,227,o),
(237,238,o),
(256,238,cs),
(490,238,l),
(490,126,l),
(256,126,ls)
);
}
);
width = 726;
}
);
unicode = 97;
},
{
color = 10;
glyphname = aacute;
kernLeft = a;
kernRight = a;
lastChange = "2022-03-23 14:57:36 +0000";
layers = (
{
background = {
shapes = (
{
closed = 1;
nodes = (
(34,45,o),
(79,0,o),
(161,0,cs),
(682,0,l),
(682,473,ls),
(682,555,o),
(637,600,o),
(555,600,cs),
(161,600,ls),
(79,600,o),
(34,555,o),
(34,473,cs),
(34,414,l),
(226,414,l),
(226,444,ls),
(226,463,o),
(237,474,o),
(256,474,cs),
(460,474,ls),
(479,474,o),
(490,463,o),
(490,444,cs),
(490,364,l),
(161,364,ls),
(79,364,o),
(34,319,o),
(34,238,cs),
(34,127,ls)
);
},
{
closed = 1;
nodes = (
(226,208,ls),
(226,227,o),
(237,238,o),
(256,238,cs),
(490,238,l),
(490,126,l),
(256,126,ls),
(237,126,o),
(226,137,o),
(226,156,cs)
);
},
{
closed = 1;
nodes = (
(352,772,l),
(302,650,l),
(424,650,l),
(554,772,l)
);
}
);
};
layerId = "422CF5D5-EDAF-47A9-A829-F34A9B802C97";
shapes = (
{
ref = a;
},
{
pos = (296,0);
ref = acutecomb;
}
);
width = 726;
}
);
unicode = 225;
},
{
color = 10;
glyphname = abreve;
kernLeft = a;
kernRight = a;
lastChange = "2022-03-23 14:57:36 +0000";
layers = (
{
background = {
shapes = (
{
closed = 1;
nodes = (
(34,45,o),
(79,0,o),
(161,0,cs),
(682,0,l),
(682,473,ls),
(682,555,o),
(637,600,o),
(555,600,cs),
(161,600,ls),
(79,600,o),
(34,555,o),
(34,473,cs),
(34,414,l),
(226,414,l),
(226,444,ls),
(226,463,o),
(237,474,o),
(256,474,cs),
(460,474,ls),
(479,474,o),
(490,463,o),
(490,444,cs),
(490,364,l),
(161,364,ls),
(79,364,o),
(34,319,o),
(34,238,cs),
(34,127,ls)
);
},
{
closed = 1;
nodes = (
(226,208,ls),
(226,227,o),
(237,238,o),
(256,238,cs),
(490,238,l),
(490,126,l),
(256,126,ls),
(237,126,o),
(226,137,o),
(226,156,cs)
);
},
{
closed = 1;
nodes = (
(486,640,o),
(555,687,o),
(555,772,c),
(415,772,l),
(415,746,o),
(395,732,o),
(358,732,cs),
(321,732,o),
(301,746,o),
(301,772,c),
(161,772,l),
(161,686,o),
(230,640,o),
(358,640,cs)
);
}
);
};
layerId = "422CF5D5-EDAF-47A9-A829-F34A9B802C97";
shapes = (
{
ref = a;
},
{
pos = (166,0);
ref = brevecomb;
}
);
width = 726;
}
);
unicode = 259;
},
{
color = 10;
glyphname = acircumflex;
kernLeft = a;
kernRight = a;
lastChange = "2022-03-23 14:57:36 +0000";
layers = (
{
background = {
shapes = (
{
closed = 1;
nodes = (
(34,45,o),
(79,0,o),
(161,0,cs),
(682,0,l),
(682,473,ls),
(682,555,o),
(637,600,o),
(555,600,cs),
(161,600,ls),
(79,600,o),
(34,555,o),
(34,473,cs),
(34,414,l),
(226,414,l),
(226,444,ls),
(226,463,o),
(237,474,o),
(256,474,cs),
(460,474,ls),
(479,474,o),
(490,463,o),
(490,444,cs),
(490,364,l),
(161,364,ls),
(79,364,o),
(34,319,o),
(34,238,cs),
(34,127,ls)
);
},
{
closed = 1;
nodes = (
(226,208,ls),
(226,227,o),
(237,238,o),
(256,238,cs),
(490,238,l),
(490,126,l),
(256,126,ls),
(237,126,o),
(226,137,o),
(226,156,cs)
);
},
{
closed = 1;
nodes = (
(302,650,l),
(359,722,l),
(415,650,l),
(557,650,l),
(457,772,l),
(260,772,l),
(160,650,l)
);
}
);
};
layerId = "422CF5D5-EDAF-47A9-A829-F34A9B802C97";
shapes = (
{
ref = a;
},
{
pos = (164,0);
ref = circumflexcomb;
}
);
width = 726;
}
);
unicode = 226;
},
{
color = 10;
glyphname = adieresis;
kernLeft = a;
kernRight = a;
lastChange = "2022-03-23 14:57:36 +0000";
layers = (
{
background = {
shapes = (
{
closed = 1;
nodes = (
(34,45,o),
(79,0,o),
(161,0,cs),
(682,0,l),
(682,473,ls),
(682,555,o),
(637,600,o),
(555,600,cs),
(161,600,ls),
(79,600,o),
(34,555,o),
(34,473,cs),
(34,414,l),
(226,414,l),
(226,444,ls),
(226,463,o),
(237,474,o),
(256,474,cs),
(460,474,ls),
(479,474,o),
(490,463,o),
(490,444,cs),
(490,364,l),
(161,364,ls),
(79,364,o),
(34,319,o),
(34,238,cs),
(34,127,ls)
);
},
{
closed = 1;
nodes = (
(226,208,ls),
(226,227,o),
(237,238,o),
(256,238,cs),
(490,238,l),
(490,126,l),
(256,126,ls),
(237,126,o),
(226,137,o),
(226,156,cs)
);
},
{
closed = 1;
nodes = (
(147,650,l),
(319,650,l),
(319,772,l),
(147,772,l)
);
},
{
closed = 1;
nodes = (
(397,650,l),
(569,650,l),
(569,772,l),
(397,772,l)
);
}
);
};
layerId = "422CF5D5-EDAF-47A9-A829-F34A9B802C97";
shapes = (
{
ref = a;
},
{
pos = (104,0);
ref = dieresiscomb;
}
);
width = 726;
}
);
unicode = 228;
},
{
color = 10;
glyphname = agrave;
kernLeft = a;
kernRight = a;
lastChange = "2022-03-23 14:57:36 +0000";
layers = (
{
background = {
shapes = (
{
closed = 1;
nodes = (
(34,45,o),
(79,0,o),
(161,0,cs),
(682,0,l),
(682,473,ls),
(682,555,o),
(637,600,o),
(555,600,cs),
(161,600,ls),
(79,600,o),
(34,555,o),
(34,473,cs),
(34,414,l),
(226,414,l),
(226,444,ls),
(226,463,o),
(237,474,o),
(256,474,cs),
(460,474,ls),
(479,474,o),
(490,463,o),
(490,444,cs),
(490,364,l),
(161,364,ls),
(79,364,o),
(34,319,o),
(34,238,cs),
(34,127,ls)
);
},
{
closed = 1;
nodes = (
(226,208,ls),
(226,227,o),
(237,238,o),
(256,238,cs),
(490,238,l),
(490,126,l),
(256,126,ls),
(237,126,o),
(226,137,o),
(226,156,cs)
);
},
{
closed = 1;
nodes = (
(282,650,l),
(404,650,l),
(354,772,l),
(152,772,l)
);
}
);
};
layerId = "422CF5D5-EDAF-47A9-A829-F34A9B802C97";
shapes = (
{
ref = a;
},
{
pos = (177,0);
ref = gravecomb;
}
);
userData = {
com.schriftgestaltung.Glyphs.lastChange = "2019-11-24 07:17:16 +0000";
};
width = 726;
}
);
unicode = 224;
},
{
color = 10;
glyphname = amacron;
kernLeft = a;
kernRight = a;
lastChange = "2022-03-23 14:57:36 +0000";
layers = (
{
background = {
shapes = (
{
closed = 1;
nodes = (
(34,45,o),
(79,0,o),
(161,0,cs),
(682,0,l),
(682,473,ls),
(682,555,o),
(637,600,o),
(555,600,cs),
(161,600,ls),
(79,600,o),
(34,555,o),
(34,473,cs),
(34,414,l),
(226,414,l),
(226,444,ls),
(226,463,o),
(237,474,o),
(256,474,cs),
(460,474,ls),
(479,474,o),
(490,463,o),
(490,444,cs),
(490,364,l),
(161,364,ls),
(79,364,o),
(34,319,o),
(34,238,cs),
(34,127,ls)
);
},
{
closed = 1;
nodes = (
(226,208,ls),
(226,227,o),
(237,238,o),
(256,238,cs),
(490,238,l),
(490,126,l),
(256,126,ls),
(237,126,o),
(226,137,o),
(226,156,cs)
);
},
{
closed = 1;
nodes = (
(535,650,l),
(535,752,l),
(163,752,l),
(163,650,l)
);
}
);
};
layerId = "422CF5D5-EDAF-47A9-A829-F34A9B802C97";
shapes = (
{
ref = a;
},
{
pos = (153,0);
ref = macroncomb;
}
);
userData = {
com.schriftgestaltung.Glyphs.lastChange = "2019-11-24 07:17:17 +0000";
};
width = 726;
}
);
unicode = 257;
},
{
color = 10;
glyphname = aogonek;
kernLeft = a;
kernRight = a;
lastChange = "2022-03-23 14:57:36 +0000";
layers = (
{
background = {
shapes = (
{
closed = 1;
nodes = (
(34,45,o),
(79,0,o),
(161,0,cs),
(682,0,l),
(682,473,ls),
(682,555,o),
(637,600,o),
(555,600,cs),
(161,600,ls),
(79,600,o),
(34,555,o),
(34,473,cs),
(34,414,l),
(226,414,l),
(226,444,ls),
(226,463,o),
(237,474,o),
(256,474,cs),
(460,474,ls),
(479,474,o),
(490,463,o),
(490,444,cs),
(490,364,l),
(161,364,ls),
(79,364,o),
(34,319,o),
(34,238,cs),
(34,127,ls)
);
},
{
closed = 1;
nodes = (
(226,208,ls),
(226,227,o),
(237,238,o),
(256,238,cs),
(490,238,l),
(490,126,l),
(256,126,ls),
(237,126,o),
(226,137,o),
(226,156,cs)
);
},
{
closed = 1;
nodes = (
(458,-73,o),
(459,-46,o),
(490,0,c),
(428,0,l),
(377,-30,o),
(348,-59,o),
(348,-109,cs),
(348,-180,o),
(387,-219,o),
(458,-219,cs),
(572,-219,ls),
(643,-219,o),
(682,-180,o),
(682,-109,c),
(572,-109,l),
(572,-128,o),
(560,-140,o),
(540,-140,cs),
(490,-140,ls),
(470,-140,o),
(458,-128,o),
(458,-109,cs)
);
}
);
};
layerId = "422CF5D5-EDAF-47A9-A829-F34A9B802C97";
shapes = (
{
ref = a;
},
{
pos = (330,0);
ref = ogonekcomb;
}
);
width = 726;
}
);
unicode = 261;
},
{
color = 10;
glyphname = aring;
kernLeft = a;
kernRight = a;
lastChange = "2022-03-23 14:57:36 +0000";
layers = (
{
background = {
shapes = (
{
closed = 1;
nodes = (
(34,45,o),
(79,0,o),
(161,0,cs),
(682,0,l),
(682,473,ls),
(682,555,o),
(637,600,o),
(555,600,cs),
(161,600,ls),
(79,600,o),
(34,555,o),
(34,473,cs),
(34,414,l),
(226,414,l),
(226,444,ls),
(226,463,o),
(237,474,o),
(256,474,cs),
(460,474,ls),
(479,474,o),
(490,463,o),
(490,444,cs),
(490,364,l),
(161,364,ls),
(79,364,o),
(34,319,o),
(34,238,cs),
(34,127,ls)
);
},
{
closed = 1;
nodes = (
(226,208,ls),
(226,227,o),
(237,238,o),
(256,238,cs),
(490,238,l),
(490,126,l),
(256,126,ls),
(237,126,o),
(226,137,o),
(226,156,cs)
);
},
{
closed = 1;
nodes = (
(403,640,ls),
(474,640,o),
(513,679,o),
(513,750,cs),
(513,821,o),
(474,859,o),
(403,859,cs),
(289,859,ls),
(218,859,o),
(179,820,o),
(179,750,cs),
(179,679,o),
(218,640,o),
(289,640,cs)
);
},
{
closed = 1;
nodes = (
(289,770,o),
(301,780,o),
(321,780,cs),
(371,780,ls),
(391,780,o),
(403,769,o),
(403,750,cs),
(403,731,o),
(391,719,o),
(371,719,cs),
(321,719,ls),
(301,719,o),
(289,731,o),
(289,750,cs)
);
}
);
};
layerId = "422CF5D5-EDAF-47A9-A829-F34A9B802C97";
shapes = (
{
ref = a;
},
{
pos = (178,0);
ref = ringcomb;
}
);
width = 726;
}
);
unicode = 229;
},
{
color = 10;
glyphname = atilde;
kernLeft = a;
kernRight = a;
lastChange = "2022-03-23 14:57:36 +0000";
layers = (
{
background = {
shapes = (
{
closed = 1;
nodes = (
(34,45,o),
(79,0,o),
(161,0,cs),
(682,0,l),
(682,473,ls),
(682,555,o),
(637,600,o),
(555,600,cs),
(161,600,ls),
(79,600,o),
(34,555,o),
(34,473,cs),
(34,414,l),
(226,414,l),
(226,444,ls),
(226,463,o),
(237,474,o),
(256,474,cs),
(460,474,ls),
(479,474,o),
(490,463,o),
(490,444,cs),
(490,364,l),
(161,364,ls),
(79,364,o),
(34,319,o),
(34,238,cs),
(34,127,ls)
);
},
{
closed = 1;
nodes = (
(226,208,ls),
(226,227,o),
(237,238,o),
(256,238,cs),
(490,238,l),
(490,126,l),
(256,126,ls),
(237,126,o),
(226,137,o),
(226,156,cs)
);
},
{
closed = 1;
nodes = (
(312,684,o),
(326,676,cs),
(353,661,o),
(391,641,o),
(446,641,cs),
(524,641,o),
(553,687,o),
(553,783,c),
(443,783,l),
(443,757,o),
(443,743,o),
(426,743,cs),
(417,743,o),
(405,749,o),
(391,757,cs),
(364,772,o),
(326,792,o),
(271,792,cs),
(193,792,o),
(164,746,o),
(164,650,c),
(274,650,l),
(274,676,o),
(274,690,o),
(291,690,cs),
(300,690,o)
);
}
);
};
layerId = "422CF5D5-EDAF-47A9-A829-F34A9B802C97";
shapes = (
{
ref = a;
},
{
pos = (150,0);
ref = tildecomb;
}
);
width = 726;
}
);
unicode = 227;
},
{
color = 6;
glyphname = ae;
kernLeft = a;
kernRight = e;
lastChange = "2022-03-23 14:57:36 +0000";
layers = (
{
anchors = (
{
name = bottom;
pos = (588,0);
},
{
name = top;
pos = (588,600);
}
);
background = {
shapes = (
{
closed = 1;
nodes = (
(34,45,o),
(79,0,o),
(161,0,cs),
(1011,0,ls),
(1093,0,o),
(1138,45,o),
(1138,127,cs),
(1138,186,l),
(946,186,l),
(946,156,ls),
(946,137,o),
(935,126,o),
(916,126,cs),
(712,126,ls),
(693,126,o),
(682,137,o),
(682,156,cs),
(682,236,l),
(1138,236,l),
(1138,473,ls),
(1138,555,o),
(1093,600,o),
(1011,600,cs),
(161,600,ls),
(79,600,o),
(34,555,o),
(34,473,cs),
(34,414,l),
(226,414,l),
(226,444,ls),
(226,463,o),
(237,474,o),
(256,474,cs),
(460,474,ls),
(479,474,o),
(490,463,o),
(490,444,cs),
(490,364,l),
(161,364,ls),
(79,364,o),
(34,319,o),
(34,238,cs),
(34,127,ls)
);
},
{
closed = 1;
nodes = (
(226,208,ls),
(226,227,o),
(237,238,o),
(256,238,cs),
(490,238,l),
(490,126,l),
(256,126,ls),
(237,126,o),
(226,137,o),
(226,156,cs)
);
},
{
closed = 1;
nodes = (
(682,444,ls),
(682,463,o),
(693,474,o),
(712,474,cs),
(916,474,ls),
(935,474,o),
(946,463,o),
(946,444,cs),
(946,362,l),
(682,362,l)
);
}
);
};
layerId = "422CF5D5-EDAF-47A9-A829-F34A9B802C97";
shapes = (
{
closed = 1;
nodes = (
(1011,0,ls),
(1093,0,o),
(1138,45,o),
(1138,127,cs),
(1138,186,l),
(946,186,l),
(946,156,ls),
(946,137,o),
(935,126,o),
(916,126,cs),
(712,126,ls),
(693,126,o),
(682,137,o),
(682,156,cs),
(682,236,l),
(1138,236,l),
(1138,473,ls),
(1138,555,o),
(1093,600,o),
(1011,600,cs),
(161,600,ls),
(79,600,o),
(34,555,o),
(34,473,cs),
(34,414,l),
(226,414,l),
(226,444,ls),
(226,463,o),
(237,474,o),
(256,474,cs),
(460,474,ls),
(479,474,o),
(490,463,o),
(490,444,cs),
(490,364,l),
(161,364,ls),
(79,364,o),
(34,319,o),
(34,238,cs),
(34,127,ls),
(34,45,o),
(79,0,o),
(161,0,cs)
);
},
{
closed = 1;
nodes = (
(237,126,o),
(226,137,o),
(226,156,cs),
(226,208,ls),
(226,227,o),
(237,238,o),
(256,238,cs),
(490,238,l),
(490,126,l),
(256,126,ls)
);
},
{
closed = 1;
nodes = (
(682,444,ls),
(682,463,o),
(693,474,o),
(712,474,cs),
(916,474,ls),
(935,474,o),
(946,463,o),
(946,444,cs),
(946,362,l),
(682,362,l)
);
}
);
width = 1176;
}
);
unicode = 230;
},
{
color = 6;
glyphname = b;
kernLeft = h;
kernRight = o;
lastChange = "2022-03-23 14:57:36 +0000";
layers = (
{
anchors = (
{
name = bottom;
pos = (361,0);
},
{
name = center;
pos = (361,300);
},
{
name = top;
pos = (361,600);
}
);
background = {
shapes = (
{
closed = 1;
nodes = (
(538,0,ls),
(631,0,o),
(682,51,o),
(682,144,cs),
(682,456,ls),
(682,549,o),
(631,600,o),
(538,600,cs),
(238,600,l),
(238,800,l),
(46,800,l),
(46,0,l)
);
},
{
closed = 1;
nodes = (
(238,474,l),
(459,474,ls),
(478,474,o),
(489,463,o),
(489,444,cs),
(489,156,ls),
(489,137,o),
(478,126,o),
(459,126,cs),
(238,126,l)
);
}
);
};
layerId = "422CF5D5-EDAF-47A9-A829-F34A9B802C97";
shapes = (
{
closed = 1;
nodes = (
(538,0,ls),
(631,0,o),
(682,51,o),
(682,144,cs),
(682,456,ls),
(682,549,o),
(631,600,o),
(538,600,cs),
(238,600,l),
(238,800,l),
(46,800,l),
(46,0,l)
);
},
{
closed = 1;
nodes = (
(238,474,l),
(459,474,ls),
(478,474,o),
(489,463,o),
(489,444,cs),
(489,156,ls),
(489,137,o),
(478,126,o),
(459,126,cs),
(238,126,l)
);
}
);
width = 721;
}
);
unicode = 98;
},
{
color = 6;
glyphname = c;
kernLeft = o;
kernRight = c;
lastChange = "2022-03-23 14:57:36 +0000";
layers = (
{
anchors = (
{
name = bottom;
pos = (356,0);
},
{
name = top;
pos = (356,600);
}
);
background = {
shapes = (
{
closed = 1;
nodes = (
(40,45,o),
(85,0,o),
(167,0,cs),
(561,0,ls),
(643,0,o),
(688,45,o),
(688,127,cs),
(688,186,l),
(496,186,l),
(496,156,ls),
(496,137,o),
(485,126,o),
(466,126,cs),
(262,126,ls),
(243,126,o),
(232,137,o),
(232,156,cs),
(232,444,ls),
(232,463,o),
(243,474,o),
(262,474,cs),
(466,474,ls),
(485,474,o),
(496,463,o),
(496,444,cs),
(496,414,l),
(688,414,l),
(688,473,ls),
(688,555,o),
(643,600,o),
(561,600,cs),
(167,600,ls),
(85,600,o),
(40,555,o),
(40,473,cs),
(40,127,ls)
);
}
);
};
layerId = "422CF5D5-EDAF-47A9-A829-F34A9B802C97";
shapes = (
{
closed = 1;
nodes = (
(561,0,ls),
(643,0,o),
(688,45,o),
(688,127,cs),
(688,186,l),
(496,186,l),
(496,156,ls),
(496,137,o),
(485,126,o),
(466,126,cs),
(262,126,ls),
(243,126,o),
(232,137,o),
(232,156,cs),
(232,444,ls),
(232,463,o),
(243,474,o),
(262,474,cs),
(466,474,ls),
(485,474,o),
(496,463,o),
(496,444,cs),
(496,414,l),
(688,414,l),
(688,473,ls),
(688,555,o),
(643,600,o),
(561,600,cs),
(167,600,ls),
(85,600,o),
(40,555,o),
(40,473,cs),
(40,127,ls),
(40,45,o),
(85,0,o),
(167,0,cs)
);
}
);
userData = {
com.schriftgestaltung.Glyphs.lastChange = "2019-11-25 02:56:02 +0000";
};
width = 712;
}
);
unicode = 99;
},
{
color = 10;
glyphname = cacute;
kernLeft = o;
kernRight = c;
lastChange = "2022-03-23 14:57:36 +0000";
layers = (
{
background = {
shapes = (
{
closed = 1;
nodes = (
(40,45,o),
(85,0,o),
(167,0,cs),
(561,0,ls),
(643,0,o),
(688,45,o),
(688,127,cs),
(688,186,l),
(496,186,l),
(496,156,ls),
(496,137,o),
(485,126,o),
(466,126,cs),
(262,126,ls),
(243,126,o),
(232,137,o),
(232,156,cs),
(232,444,ls),
(232,463,o),
(243,474,o),
(262,474,cs),
(466,474,ls),
(485,474,o),
(496,463,o),
(496,444,cs),
(496,414,l),
(688,414,l),
(688,473,ls),
(688,555,o),
(643,600,o),
(561,600,cs),
(167,600,ls),
(85,600,o),
(40,555,o),
(40,473,cs),
(40,127,ls)
);
},
{
closed = 1;
nodes = (
(338,772,l),
(288,650,l),
(410,650,l),
(540,772,l)
);
}
);
};
layerId = "422CF5D5-EDAF-47A9-A829-F34A9B802C97";
shapes = (
{
ref = c;
},
{
pos = (289,0);
ref = acutecomb;
}
);
width = 712;
}
);
unicode = 263;
},
{
color = 10;
glyphname = ccaron;
kernLeft = o;
kernRight = c;
lastChange = "2022-03-23 14:57:36 +0000";
layers = (
{
background = {
shapes = (
{
closed = 1;
nodes = (
(40,45,o),
(85,0,o),
(167,0,cs),
(561,0,ls),
(643,0,o),
(688,45,o),
(688,127,cs),
(688,186,l),
(496,186,l),
(496,156,ls),
(496,137,o),
(485,126,o),
(466,126,cs),
(262,126,ls),
(243,126,o),
(232,137,o),
(232,156,cs),
(232,444,ls),
(232,463,o),
(243,474,o),
(262,474,cs),
(466,474,ls),
(485,474,o),
(496,463,o),
(496,444,cs),
(496,414,l),
(688,414,l),
(688,473,ls),
(688,555,o),
(643,600,o),
(561,600,cs),
(167,600,ls),
(85,600,o),
(40,555,o),
(40,473,cs),
(40,127,ls)
);
},
{
closed = 1;
nodes = (
(266,650,l),
(463,650,l),
(563,772,l),
(421,772,l),
(365,700,l),
(308,772,l),
(166,772,l)
);
}
);
};
layerId = "422CF5D5-EDAF-47A9-A829-F34A9B802C97";
shapes = (
{
ref = c;
},
{
pos = (157,0);
ref = caroncomb;
}
);
width = 712;
}
);
unicode = 269;
},
{
color = 10;
glyphname = ccedilla;
kernLeft = o;
kernRight = c;
lastChange = "2022-03-23 14:57:36 +0000";
layers = (
{
background = {
shapes = (
{
closed = 1;
nodes = (
(40,45,o),
(85,0,o),
(167,0,cs),
(561,0,ls),
(643,0,o),
(688,45,o),
(688,127,cs),
(688,186,l),
(496,186,l),
(496,156,ls),
(496,137,o),
(485,126,o),
(466,126,cs),
(262,126,ls),
(243,126,o),
(232,137,o),
(232,156,cs),
(232,444,ls),
(232,463,o),
(243,474,o),
(262,474,cs),
(466,474,ls),
(485,474,o),
(496,463,o),
(496,444,cs),
(496,414,l),
(688,414,l),
(688,473,ls),
(688,555,o),
(643,600,o),
(561,600,cs),
(167,600,ls),
(85,600,o),
(40,555,o),
(40,473,cs),
(40,127,ls)
);
},
{
closed = 1;
nodes = (
(234,-269,l),
(366,-269,ls),
(437,-269,o),
(476,-230,o),
(476,-159,cs),
(476,-88,o),
(437,-50,o),
(366,-50,cs),
(284,-50,l),
(284,-129,l),
(334,-129,ls),
(354,-129,o),
(366,-140,o),
(366,-159,cs),
(366,-178,o),
(354,-190,o),
(334,-190,cs),
(234,-190,l)
);
}
);
};
layerId = "422CF5D5-EDAF-47A9-A829-F34A9B802C97";
shapes = (
{
ref = c;
},
{
pos = (211,0);
ref = cedillacomb;
}
);
width = 712;
}
);
unicode = 231;
},
{
color = 10;
glyphname = cdotaccent;
kernLeft = o;
kernRight = c;
lastChange = "2022-03-23 14:57:36 +0000";
layers = (
{
background = {
shapes = (
{
closed = 1;
nodes = (
(40,45,o),
(85,0,o),
(167,0,cs),
(561,0,ls),
(643,0,o),
(688,45,o),
(688,127,cs),
(688,186,l),
(496,186,l),
(496,156,ls),
(496,137,o),
(485,126,o),
(466,126,cs),
(262,126,ls),
(243,126,o),
(232,137,o),
(232,156,cs),
(232,444,ls),
(232,463,o),
(243,474,o),
(262,474,cs),
(466,474,ls),
(485,474,o),
(496,463,o),
(496,444,cs),
(496,414,l),
(688,414,l),
(688,473,ls),
(688,555,o),
(643,600,o),
(561,600,cs),
(167,600,ls),
(85,600,o),
(40,555,o),
(40,473,cs),
(40,127,ls)
);
},
{
closed = 1;
nodes = (
(278,650,l),
(450,650,l),
(450,772,l),
(278,772,l)
);
}
);
};
layerId = "422CF5D5-EDAF-47A9-A829-F34A9B802C97";
shapes = (
{
ref = c;
},
{
pos = (222,0);
ref = dotaccentcomb;
}
);
width = 712;
}
);
unicode = 267;
},
{
color = 6;
glyphname = d;
kernLeft = o;
kernRight = d;
lastChange = "2022-03-23 14:57:36 +0000";
layers = (
{
anchors = (
{
name = bottom;
pos = (361,0);
},
{
name = center;
pos = (361,300);
},
{
name = top;
pos = (361,800);
},
{
name = topright;
pos = (701,800);
}
);
background = {
shapes = (
{
closed = 1;
nodes = (
(675,800,l),
(483,800,l),
(483,600,l),
(183,600,ls),
(90,600,o),
(39,549,o),
(39,456,cs),
(39,144,ls),
(39,51,o),
(90,0,o),
(183,0,cs),
(675,0,l)
);
},
{
closed = 1;
nodes = (
(262,126,ls),
(243,126,o),
(232,137,o),
(232,156,cs),
(232,444,ls),
(232,463,o),
(243,474,o),
(262,474,cs),
(483,474,l),
(483,126,l)
);
}
);
};
layerId = "422CF5D5-EDAF-47A9-A829-F34A9B802C97";
shapes = (
{
closed = 1;
nodes = (
(675,0,l),
(675,800,l),
(483,800,l),
(483,600,l),
(183,600,ls),
(90,600,o),
(39,549,o),
(39,456,cs),
(39,144,ls),
(39,51,o),
(90,0,o),
(183,0,cs)
);
},
{
closed = 1;
nodes = (
(243,126,o),
(232,137,o),
(232,156,cs),
(232,444,ls),
(232,463,o),
(243,474,o),
(262,474,cs),
(483,474,l),
(483,126,l),
(262,126,ls)
);
}
);
width = 721;
}
);
unicode = 100;
},
{
color = 6;
glyphname = eth;
kernLeft = o;
lastChange = "2022-03-23 14:57:36 +0000";
layers = (
{
anchors = (
{
name = bottom;
pos = (360,0);
},
{
name = top;
pos = (360,800);
}
);
background = {
shapes = (
{
closed = 1;
nodes = (
(675,800,l),
(483,800,l),
(483,600,l),
(183,600,ls),
(90,600,o),
(39,549,o),
(39,456,cs),
(39,144,ls),
(39,51,o),
(90,0,o),
(183,0,cs),
(531,0,ls),
(624,0,o),
(675,51,o),
(675,144,cs)
);
},
{
closed = 1;
nodes = (
(262,126,ls),
(243,126,o),
(232,137,o),
(232,156,cs),
(232,444,ls),
(232,463,o),
(243,474,o),
(262,474,cs),
(483,474,l),
(483,156,ls),
(483,137,o),
(472,126,o),
(453,126,cs)
);
},
{
closed = 1;
nodes = (
(747,679,l),
(747,781,l),
(375,731,l),
(375,629,l)
);
}
);
};
layerId = "422CF5D5-EDAF-47A9-A829-F34A9B802C97";
shapes = (
{
closed = 1;
nodes = (
(531,0,ls),
(624,0,o),
(675,51,o),
(675,144,cs),
(675,800,l),
(483,800,l),
(483,600,l),
(183,600,ls),
(90,600,o),
(39,549,o),
(39,456,cs),
(39,144,ls),
(39,51,o),
(90,0,o),
(183,0,cs)
);
},
{
closed = 1;
nodes = (
(243,126,o),
(232,137,o),
(232,156,cs),
(232,444,ls),
(232,463,o),
(243,474,o),
(262,474,cs),
(483,474,l),
(483,156,ls),
(483,137,o),
(472,126,o),
(453,126,cs),
(262,126,ls)
);
},
{
closed = 1;
nodes = (
(747,679,l),
(747,781,l),
(375,731,l),
(375,629,l)
);
}
);
width = 719;
}
);
unicode = 240;
},
{
color = 10;
glyphname = dcaron;
kernLeft = o;
kernRight = d;
lastChange = "2022-03-23 14:57:36 +0000";
layers = (
{
background = {
shapes = (
{
closed = 1;
nodes = (
(675,800,l),
(483,800,l),
(483,600,l),
(183,600,ls),
(90,600,o),
(39,549,o),
(39,456,cs),
(39,144,ls),
(39,51,o),
(90,0,o),
(183,0,cs),
(675,0,l)
);
},
{
closed = 1;
nodes = (
(262,126,ls),
(243,126,o),
(232,137,o),
(232,156,cs),
(232,444,ls),
(232,463,o),
(243,474,o),
(262,474,cs),
(483,474,l),
(483,126,l)
);
},
{
closed = 1;
nodes = (
(829,580,l),
(873,677,ls),
(883,699,o),
(887,717,o),
(887,733,cs),
(887,776,o),
(855,800,o),
(817,800,cs),
(715,800,l),
(715,677,l),
(786,677,l),
(745,580,l)
);
}
);
};
layerId = "422CF5D5-EDAF-47A9-A829-F34A9B802C97";
shapes = (
{
ref = d;
},
{
pos = (661,320);
ref = caroncomb.alt;
}
);
width = 721;
}
);
unicode = 271;
},
{
color = 6;
glyphname = dcroat;
kernLeft = o;
kernRight = d;
lastChange = "2022-03-23 14:57:36 +0000";
layers = (
{
background = {
shapes = (
{
closed = 1;
nodes = (
(39,51,o),
(90,0,o),
(183,0,cs),
(675,0,l),
(675,649,l),
(747,649,l),
(747,751,l),
(675,751,l),
(675,800,l),
(483,800,l),
(483,751,l),
(375,751,l),
(375,649,l),
(483,649,l),
(483,600,l),
(183,600,ls),
(90,600,o),
(39,549,o),
(39,456,cs),
(39,144,ls)
);
},
{
closed = 1;
nodes = (
(232,444,ls),
(232,463,o),
(243,474,o),
(262,474,cs),
(483,474,l),
(483,126,l),
(262,126,ls),
(243,126,o),
(232,137,o),
(232,156,cs)
);
}
);
};
layerId = "422CF5D5-EDAF-47A9-A829-F34A9B802C97";
shapes = (
{
closed = 1;
nodes = (
(675,0,l),
(675,649,l),
(747,649,l),
(747,751,l),
(675,751,l),
(675,800,l),
(483,800,l),
(483,751,l),
(375,751,l),
(375,649,l),
(483,649,l),
(483,600,l),
(183,600,ls),
(90,600,o),
(39,549,o),
(39,456,cs),
(39,144,ls),
(39,51,o),
(90,0,o),
(183,0,cs)
);
},
{
closed = 1;
nodes = (
(243,126,o),
(232,137,o),
(232,156,cs),
(232,444,ls),
(232,463,o),
(243,474,o),
(262,474,cs),
(483,474,l),
(483,126,l),
(262,126,ls)
);
}
);
userData = {
com.schriftgestaltung.Glyphs.lastChange = "2019-12-04 15:10:17 +0000";
};
width = 721;
}
);
unicode = 273;
},
{
color = 6;
glyphname = e;
kernLeft = o;
kernRight = e;
lastChange = "2022-03-23 14:57:36 +0000";
layers = (
{
anchors = (
{
name = bottom;
pos = (363,0);
},
{
name = ogonek;
pos = (659,10);
},
{
name = top;
pos = (363,600);
}
);
background = {
shapes = (
{
closed = 1;
nodes = (
(688,555,o),
(643,600,o),
(561,600,cs),
(184,600,ls),
(91,600,o),
(40,549,o),
(40,456,cs),
(40,127,ls),
(40,45,o),
(85,0,o),
(167,0,cs),
(561,0,ls),
(643,0,o),
(688,45,o),
(688,127,cs),
(688,186,l),
(496,186,l),
(496,156,ls),
(496,137,o),
(485,126,o),
(466,126,cs),
(262,126,ls),
(243,126,o),
(232,137,o),
(232,156,cs),
(232,236,l),
(688,236,l),
(688,473,ls)
);
},
{
closed = 1;
nodes = (
(496,362,l),
(232,362,l),
(232,444,ls),
(232,463,o),
(243,474,o),
(262,474,cs),
(466,474,ls),
(485,474,o),
(496,463,o),
(496,444,cs)
);
}
);
};
layerId = "422CF5D5-EDAF-47A9-A829-F34A9B802C97";
shapes = (
{
closed = 1;
nodes = (
(561,0,ls),
(643,0,o),
(688,45,o),
(688,127,cs),
(688,186,l),
(496,186,l),
(496,156,ls),
(496,137,o),
(485,126,o),
(466,126,cs),
(262,126,ls),
(243,126,o),
(232,137,o),
(232,156,cs),
(232,236,l),
(688,236,l),
(688,473,ls),
(688,555,o),
(643,600,o),
(561,600,cs),
(184,600,ls),
(91,600,o),
(40,549,o),
(40,456,cs),
(40,127,ls),
(40,45,o),
(85,0,o),
(167,0,cs)
);
},
{
closed = 1;
nodes = (
(232,444,ls),
(232,463,o),
(243,474,o),
(262,474,cs),
(466,474,ls),
(485,474,o),
(496,463,o),
(496,444,cs),
(496,362,l),
(232,362,l)
);
}
);
width = 726;
}
);
unicode = 101;
},
{
color = 10;
glyphname = eacute;
kernLeft = o;
kernRight = e;
lastChange = "2022-03-23 14:57:36 +0000";
layers = (
{
background = {
shapes = (
{
closed = 1;
nodes = (
(688,555,o),
(643,600,o),
(561,600,cs),
(184,600,ls),
(91,600,o),
(40,549,o),
(40,456,cs),
(40,127,ls),
(40,45,o),
(85,0,o),
(167,0,cs),
(561,0,ls),
(643,0,o),
(688,45,o),
(688,127,cs),
(688,186,l),
(496,186,l),
(496,156,ls),
(496,137,o),
(485,126,o),
(466,126,cs),
(262,126,ls),
(243,126,o),
(232,137,o),
(232,156,cs),
(232,236,l),
(688,236,l),
(688,473,ls)
);
},
{
closed = 1;
nodes = (
(496,362,l),
(232,362,l),
(232,444,ls),
(232,463,o),
(243,474,o),
(262,474,cs),
(466,474,ls),
(485,474,o),
(496,463,o),
(496,444,cs)
);
},
{
closed = 1;
nodes = (
(338,772,l),
(288,650,l),
(410,650,l),
(540,772,l)
);
}
);
};
layerId = "422CF5D5-EDAF-47A9-A829-F34A9B802C97";
shapes = (
{
ref = e;
},
{
pos = (296,0);
ref = acutecomb;
}
);
userData = {
com.schriftgestaltung.Glyphs.lastChange = "2019-11-24 07:17:37 +0000";
};
width = 726;
}
);
unicode = 233;
},
{
color = 10;
glyphname = ecaron;
kernLeft = o;
kernRight = e;
lastChange = "2022-03-23 14:57:36 +0000";
layers = (
{
background = {
shapes = (
{
closed = 1;
nodes = (
(688,555,o),
(643,600,o),
(561,600,cs),
(184,600,ls),
(91,600,o),
(40,549,o),
(40,456,cs),
(40,127,ls),
(40,45,o),
(85,0,o),
(167,0,cs),
(561,0,ls),
(643,0,o),
(688,45,o),
(688,127,cs),
(688,186,l),
(496,186,l),
(496,156,ls),
(496,137,o),
(485,126,o),
(466,126,cs),
(262,126,ls),
(243,126,o),
(232,137,o),
(232,156,cs),
(232,236,l),
(688,236,l),
(688,473,ls)
);
},
{
closed = 1;
nodes = (
(496,362,l),
(232,362,l),
(232,444,ls),
(232,463,o),
(243,474,o),
(262,474,cs),
(466,474,ls),
(485,474,o),
(496,463,o),
(496,444,cs)
);
},
{
closed = 1;
nodes = (
(266,650,l),
(463,650,l),
(563,772,l),
(421,772,l),
(365,700,l),
(308,772,l),
(166,772,l)
);
}
);
};
layerId = "422CF5D5-EDAF-47A9-A829-F34A9B802C97";
shapes = (
{
ref = e;
},
{
pos = (164,0);
ref = caroncomb;
}
);
width = 726;
}
);
unicode = 283;
},
{
color = 10;
glyphname = ecircumflex;
kernLeft = o;
kernRight = e;
lastChange = "2022-03-23 14:57:36 +0000";
layers = (
{
background = {
shapes = (
{
closed = 1;
nodes = (
(688,555,o),
(643,600,o),
(561,600,cs),
(184,600,ls),
(91,600,o),
(40,549,o),
(40,456,cs),
(40,127,ls),
(40,45,o),
(85,0,o),
(167,0,cs),
(561,0,ls),
(643,0,o),
(688,45,o),
(688,127,cs),
(688,186,l),
(496,186,l),
(496,156,ls),
(496,137,o),
(485,126,o),
(466,126,cs),
(262,126,ls),
(243,126,o),
(232,137,o),
(232,156,cs),
(232,236,l),
(688,236,l),
(688,473,ls)
);
},
{
closed = 1;
nodes = (
(496,362,l),
(232,362,l),
(232,444,ls),
(232,463,o),
(243,474,o),
(262,474,cs),
(466,474,ls),
(485,474,o),
(496,463,o),
(496,444,cs)
);
},
{
closed = 1;
nodes = (
(308,650,l),
(365,722,l),
(421,650,l),
(563,650,l),
(463,772,l),
(266,772,l),
(166,650,l)
);
}
);
};
layerId = "422CF5D5-EDAF-47A9-A829-F34A9B802C97";
shapes = (
{
ref = e;
},
{
pos = (164,0);
ref = circumflexcomb;
}
);
width = 726;
}
);
unicode = 234;
},
{
color = 10;
glyphname = edieresis;
kernLeft = o;
kernRight = e;
lastChange = "2022-03-23 14:57:36 +0000";
layers = (
{
background = {
shapes = (
{
closed = 1;
nodes = (
(688,555,o),
(643,600,o),
(561,600,cs),
(184,600,ls),
(91,600,o),
(40,549,o),
(40,456,cs),
(40,127,ls),
(40,45,o),
(85,0,o),
(167,0,cs),
(561,0,ls),
(643,0,o),
(688,45,o),
(688,127,cs),
(688,186,l),
(496,186,l),
(496,156,ls),
(496,137,o),
(485,126,o),
(466,126,cs),
(262,126,ls),
(243,126,o),
(232,137,o),
(232,156,cs),
(232,236,l),
(688,236,l),
(688,473,ls)
);
},
{
closed = 1;
nodes = (
(496,362,l),
(232,362,l),
(232,444,ls),
(232,463,o),
(243,474,o),
(262,474,cs),
(466,474,ls),
(485,474,o),
(496,463,o),
(496,444,cs)
);
},
{
closed = 1;
nodes = (
(153,650,l),
(325,650,l),
(325,772,l),
(153,772,l)
);
},
{
closed = 1;
nodes = (
(403,650,l),
(575,650,l),
(575,772,l),
(403,772,l)
);
}
);
};
layerId = "422CF5D5-EDAF-47A9-A829-F34A9B802C97";
shapes = (
{
ref = e;
},
{
pos = (104,0);
ref = dieresiscomb;
}
);
width = 726;
}
);
unicode = 235;
},
{
color = 10;
glyphname = edotaccent;
kernLeft = o;
kernRight = e;
lastChange = "2022-03-23 14:57:36 +0000";
layers = (
{
background = {
shapes = (
{
closed = 1;
nodes = (
(688,555,o),
(643,600,o),
(561,600,cs),
(184,600,ls),
(91,600,o),
(40,549,o),
(40,456,cs),
(40,127,ls),
(40,45,o),
(85,0,o),
(167,0,cs),
(561,0,ls),
(643,0,o),
(688,45,o),
(688,127,cs),
(688,186,l),
(496,186,l),
(496,156,ls),
(496,137,o),
(485,126,o),
(466,126,cs),
(262,126,ls),
(243,126,o),
(232,137,o),
(232,156,cs),
(232,236,l),
(688,236,l),
(688,473,ls)
);
},
{
closed = 1;
nodes = (
(496,362,l),
(232,362,l),
(232,444,ls),
(232,463,o),
(243,474,o),
(262,474,cs),
(466,474,ls),
(485,474,o),
(496,463,o),
(496,444,cs)
);
},
{
closed = 1;
nodes = (
(278,650,l),
(450,650,l),
(450,772,l),
(278,772,l)
);
}
);
};
layerId = "422CF5D5-EDAF-47A9-A829-F34A9B802C97";
shapes = (
{
ref = e;
},
{
pos = (229,0);
ref = dotaccentcomb;
}
);
width = 726;
}
);
unicode = 279;
},
{
color = 10;
glyphname = egrave;
kernLeft = o;
kernRight = e;
lastChange = "2022-03-23 14:57:36 +0000";
layers = (
{
background = {
shapes = (
{
closed = 1;
nodes = (
(688,555,o),
(643,600,o),
(561,600,cs),
(184,600,ls),
(91,600,o),
(40,549,o),
(40,456,cs),
(40,127,ls),
(40,45,o),
(85,0,o),
(167,0,cs),
(561,0,ls),
(643,0,o),
(688,45,o),
(688,127,cs),
(688,186,l),
(496,186,l),
(496,156,ls),
(496,137,o),
(485,126,o),
(466,126,cs),
(262,126,ls),
(243,126,o),
(232,137,o),
(232,156,cs),
(232,236,l),
(688,236,l),
(688,473,ls)
);
},
{
closed = 1;
nodes = (
(496,362,l),
(232,362,l),
(232,444,ls),
(232,463,o),
(243,474,o),
(262,474,cs),
(466,474,ls),
(485,474,o),
(496,463,o),
(496,444,cs)
);
},
{
closed = 1;
nodes = (
(282,650,l),
(404,650,l),
(354,772,l),
(152,772,l)
);
}
);
};
layerId = "422CF5D5-EDAF-47A9-A829-F34A9B802C97";
shapes = (
{
ref = e;
},
{
pos = (177,0);
ref = gravecomb;
}
);
width = 726;
}
);
unicode = 232;
},
{
color = 10;
glyphname = emacron;
kernLeft = o;
kernRight = e;
lastChange = "2022-03-23 14:57:36 +0000";
layers = (
{
background = {
shapes = (
{
closed = 1;
nodes = (
(688,555,o),
(643,600,o),
(561,600,cs),
(184,600,ls),
(91,600,o),
(40,549,o),
(40,456,cs),
(40,127,ls),
(40,45,o),
(85,0,o),
(167,0,cs),
(561,0,ls),
(643,0,o),
(688,45,o),
(688,127,cs),
(688,186,l),
(496,186,l),
(496,156,ls),
(496,137,o),
(485,126,o),
(466,126,cs),
(262,126,ls),
(243,126,o),
(232,137,o),
(232,156,cs),
(232,236,l),
(688,236,l),
(688,473,ls)
);
},
{
closed = 1;
nodes = (
(496,362,l),
(232,362,l),
(232,444,ls),
(232,463,o),
(243,474,o),
(262,474,cs),
(466,474,ls),
(485,474,o),
(496,463,o),
(496,444,cs)
);
},
{
closed = 1;
nodes = (
(541,650,l),
(541,752,l),
(169,752,l),
(169,650,l)
);
}
);
};
layerId = "422CF5D5-EDAF-47A9-A829-F34A9B802C97";
shapes = (
{
ref = e;
},
{
pos = (153,0);
ref = macroncomb;
}
);
userData = {
com.schriftgestaltung.Glyphs.lastChange = "2019-11-24 07:17:40 +0000";
};
width = 726;
}
);
unicode = 275;
},
{
color = 10;
glyphname = eogonek;
kernLeft = o;
kernRight = e;
lastChange = "2022-03-23 14:57:36 +0000";
layers = (
{
background = {
shapes = (
{
closed = 1;
nodes = (
(688,555,o),
(643,600,o),
(561,600,cs),
(184,600,ls),
(91,600,o),
(40,549,o),
(40,456,cs),
(40,127,ls),
(40,45,o),
(85,0,o),
(167,0,cs),
(561,0,ls),
(643,0,o),
(688,45,o),
(688,127,cs),
(688,186,l),
(496,186,l),
(496,156,ls),
(496,137,o),
(485,126,o),
(466,126,cs),
(262,126,ls),
(243,126,o),
(232,137,o),
(232,156,cs),
(232,236,l),
(688,236,l),
(688,473,ls)
);
},
{
closed = 1;
nodes = (
(496,362,l),
(232,362,l),
(232,444,ls),
(232,463,o),
(243,474,o),
(262,474,cs),
(466,474,ls),
(485,474,o),
(496,463,o),
(496,444,cs)
);
},
{
closed = 1;
nodes = (
(464,-73,o),
(465,-46,o),
(496,0,c),
(434,0,l),
(383,-30,o),
(354,-59,o),
(354,-109,cs),
(354,-180,o),
(393,-219,o),
(464,-219,cs),
(578,-219,ls),
(649,-219,o),
(688,-180,o),
(688,-109,c),
(578,-109,l),
(578,-128,o),
(566,-140,o),
(546,-140,cs),
(496,-140,ls),
(476,-140,o),
(464,-128,o),
(464,-109,cs)
);
}
);
};
layerId = "422CF5D5-EDAF-47A9-A829-F34A9B802C97";
shapes = (
{
ref = e;
},
{
pos = (336,0);
ref = ogonekcomb;
}
);
width = 726;
}
);
unicode = 281;
},
{
color = 6;
glyphname = f;
lastChange = "2022-03-23 14:57:36 +0000";
layers = (
{
anchors = (
{
name = bottom;
pos = (347,0);
},
{
name = top;
pos = (347,800);
}
);
background = {
shapes = (
{
closed = 1;
nodes = (
(156,474,l),
(156,0,l),
(348,0,l),
(348,474,l),
(617,474,l),
(617,600,l),
(348,600,l),
(348,644,ls),
(348,663,o),
(359,674,o),
(378,674,cs),
(582,674,ls),
(601,674,o),
(612,663,o),
(612,644,cs),
(612,614,l),
(804,614,l),
(804,673,ls),
(804,755,o),
(759,800,o),
(677,800,cs),
(283,800,ls),
(201,800,o),
(156,755,o),
(156,673,cs),
(156,600,l),
(12,600,l),
(12,474,l)
);
}
);
};
layerId = "422CF5D5-EDAF-47A9-A829-F34A9B802C97";
shapes = (
{
closed = 1;
nodes = (
(348,0,l),
(348,474,l),
(617,474,l),
(617,600,l),
(348,600,l),
(348,644,ls),
(348,663,o),
(359,674,o),
(378,674,cs),
(582,674,ls),
(601,674,o),
(612,663,o),
(612,644,cs),
(612,614,l),
(804,614,l),
(804,673,ls),
(804,755,o),
(759,800,o),
(677,800,cs),
(283,800,ls),
(201,800,o),
(156,755,o),
(156,673,cs),
(156,600,l),
(12,600,l),
(12,474,l),
(156,474,l),
(156,0,l)
);
}
);
userData = {
com.schriftgestaltung.Glyphs.lastChange = "2019-11-25 09:29:05 +0000";
};
width = 693;
}
);
unicode = 102;
},
{
color = 6;
glyphname = g;
kernLeft = o;
kernRight = u;
lastChange = "2022-03-23 14:57:36 +0000";
layers = (
{
anchors = (
{
name = bottom;
pos = (367,-270);
},
{
name = top;
pos = (367,600);
}
);
background = {
shapes = (
{
closed = 1;
nodes = (
(40,126,ls),
(40,45,o),
(85,0,o),
(167,0,cs),
(496,0,l),
(496,-84,ls),
(496,-103,o),
(485,-114,o),
(466,-114,cs),
(262,-114,ls),
(243,-114,o),
(232,-103,o),
(232,-84,cs),
(232,-54,l),
(40,-54,l),
(40,-113,ls),
(40,-195,o),
(85,-240,o),
(167,-240,cs),
(561,-240,ls),
(643,-240,o),
(688,-195,o),
(688,-113,cs),
(688,600,l),
(167,600,ls),
(85,600,o),
(40,555,o),
(40,473,cs)
);
},
{
closed = 1;
nodes = (
(496,474,l),
(496,126,l),
(262,126,ls),
(243,126,o),
(232,137,o),
(232,156,cs),
(232,444,ls),
(232,463,o),
(243,474,o),
(262,474,cs)
);
}
);
};
layerId = "422CF5D5-EDAF-47A9-A829-F34A9B802C97";
shapes = (
{
closed = 1;
nodes = (
(561,-240,ls),
(643,-240,o),
(688,-195,o),
(688,-113,cs),
(688,600,l),
(167,600,ls),
(85,600,o),
(40,555,o),
(40,473,cs),
(40,126,ls),
(40,45,o),
(85,0,o),
(167,0,cs),
(496,0,l),
(496,-84,ls),
(496,-103,o),
(485,-114,o),
(466,-114,cs),
(262,-114,ls),
(243,-114,o),
(232,-103,o),
(232,-84,cs),
(232,-54,l),
(40,-54,l),
(40,-113,ls),
(40,-195,o),
(85,-240,o),
(167,-240,cs)
);
},
{
closed = 1;
nodes = (
(243,126,o),
(232,137,o),
(232,156,cs),
(232,444,ls),
(232,463,o),
(243,474,o),
(262,474,cs),
(496,474,l),
(496,126,l),
(262,126,ls)
);
}
);
width = 734;
}
);
unicode = 103;
},
{
color = 10;
glyphname = gbreve;
kernLeft = o;
kernRight = u;
lastChange = "2022-03-23 14:57:36 +0000";
layers = (
{
background = {
shapes = (
{
closed = 1;
nodes = (
(40,126,ls),
(40,45,o),
(85,0,o),
(167,0,cs),
(496,0,l),
(496,-84,ls),
(496,-103,o),
(485,-114,o),
(466,-114,cs),
(262,-114,ls),
(243,-114,o),
(232,-103,o),
(232,-84,cs),
(232,-54,l),
(40,-54,l),
(40,-113,ls),
(40,-195,o),
(85,-240,o),
(167,-240,cs),
(561,-240,ls),
(643,-240,o),
(688,-195,o),
(688,-113,cs),
(688,600,l),
(167,600,ls),
(85,600,o),
(40,555,o),
(40,473,cs)
);
},
{
closed = 1;
nodes = (
(496,474,l),
(496,126,l),
(262,126,ls),
(243,126,o),
(232,137,o),
(232,156,cs),
(232,444,ls),
(232,463,o),
(243,474,o),
(262,474,cs)
);
},
{
closed = 1;
nodes = (
(492,640,o),
(561,687,o),
(561,772,c),
(421,772,l),
(421,746,o),
(401,732,o),
(364,732,cs),
(327,732,o),
(307,746,o),
(307,772,c),
(167,772,l),
(167,686,o),
(236,640,o),
(364,640,cs)
);
}
);
};
layerId = "422CF5D5-EDAF-47A9-A829-F34A9B802C97";
shapes = (
{
ref = g;
},
{
pos = (170,0);
ref = brevecomb;
}
);
width = 734;
}
);
unicode = 287;
},
{
color = 10;
glyphname = gdotaccent;
kernLeft = o;
kernRight = u;
lastChange = "2022-03-23 14:57:36 +0000";
layers = (
{
background = {
shapes = (
{
closed = 1;
nodes = (
(40,126,ls),
(40,45,o),
(85,0,o),
(167,0,cs),
(496,0,l),
(496,-84,ls),
(496,-103,o),
(485,-114,o),
(466,-114,cs),
(262,-114,ls),
(243,-114,o),
(232,-103,o),
(232,-84,cs),
(232,-54,l),
(40,-54,l),
(40,-113,ls),
(40,-195,o),
(85,-240,o),
(167,-240,cs),
(561,-240,ls),
(643,-240,o),
(688,-195,o),
(688,-113,cs),
(688,600,l),
(167,600,ls),
(85,600,o),
(40,555,o),
(40,473,cs)
);
},
{
closed = 1;
nodes = (
(496,474,l),
(496,126,l),
(262,126,ls),
(243,126,o),
(232,137,o),
(232,156,cs),
(232,444,ls),
(232,463,o),
(243,474,o),
(262,474,cs)
);
},
{
closed = 1;
nodes = (
(278,650,l),
(450,650,l),
(450,772,l),
(278,772,l)
);
}
);
};
layerId = "422CF5D5-EDAF-47A9-A829-F34A9B802C97";
shapes = (
{
ref = g;
},
{
pos = (233,0);
ref = dotaccentcomb;
}
);
width = 734;
}
);
unicode = 289;
},
{
color = 6;
glyphname = h;
kernLeft = h;
kernRight = n;
lastChange = "2022-03-23 14:57:36 +0000";
layers = (
{
anchors = (
{
name = bottom;
pos = (363,0);
},
{
name = center;
pos = (363,400);
},
{
name = top;
pos = (363,800);
}
);
background = {
shapes = (
{
closed = 1;
nodes = (
(682,0,l),
(682,456,ls),
(682,549,o),
(631,600,o),
(538,600,cs),
(238,600,l),
(238,800,l),
(46,800,l),
(46,0,l),
(238,0,l),
(238,474,l),
(459,474,ls),
(478,474,o),
(489,463,o),
(489,444,cs),
(489,0,l)
);
}
);
};
layerId = "422CF5D5-EDAF-47A9-A829-F34A9B802C97";
shapes = (
{
closed = 1;
nodes = (
(238,0,l),
(238,474,l),
(459,474,ls),
(478,474,o),
(489,463,o),
(489,444,cs),
(489,0,l),
(682,0,l),
(682,456,ls),
(682,549,o),
(631,600,o),
(538,600,cs),
(238,600,l),
(238,800,l),
(46,800,l),
(46,0,l)
);
}
);
width = 725;
}
);
unicode = 104;
},
{
color = 6;
glyphname = hbar;
kernLeft = h;
kernRight = n;
lastChange = "2022-03-23 14:57:36 +0000";
layers = (
{
background = {
shapes = (
{
closed = 1;
nodes = (
(46,649,l),
(46,0,l),
(238,0,l),
(238,474,l),
(459,474,ls),
(478,474,o),
(489,463,o),
(489,444,cs),
(489,0,l),
(682,0,l),
(682,456,ls),
(682,549,o),
(631,600,o),
(538,600,cs),
(238,600,l),
(238,649,l),
(346,649,l),
(346,751,l),
(238,751,l),
(238,800,l),
(46,800,l),
(46,751,l),
(-26,751,l),
(-26,649,l)
);
}
);
};
layerId = "422CF5D5-EDAF-47A9-A829-F34A9B802C97";
shapes = (
{
closed = 1;
nodes = (
(238,0,l),
(238,474,l),
(459,474,ls),
(478,474,o),
(489,463,o),
(489,444,cs),
(489,0,l),
(682,0,l),
(682,456,ls),
(682,549,o),
(631,600,o),
(538,600,cs),
(238,600,l),
(238,649,l),
(346,649,l),
(346,751,l),
(238,751,l),
(238,800,l),
(46,800,l),
(46,751,l),
(-26,751,l),
(-26,649,l),
(46,649,l),
(46,0,l)
);
}
);
userData = {
com.schriftgestaltung.Glyphs.lastChange = "2019-12-04 15:13:37 +0000";
};
width = 725;
}
);
unicode = 295;
},
{
color = 6;
glyphname = i;
kernLeft = i;
kernRight = i;
lastChange = "2022-03-23 14:57:36 +0000";
layers = (
{
anchors = (
{
name = bottom;
pos = (142,0);
},
{
name = ogonek;
pos = (272,10);
}
);
background = {
shapes = (
{
closed = 1;
nodes = (
(46,600,l),
(46,0,l),
(238,0,l),
(238,600,l)
);
},
{
closed = 1;
nodes = (
(238,662,l),
(238,800,l),
(46,800,l),
(46,662,l)
);
}
);
};
layerId = "422CF5D5-EDAF-47A9-A829-F34A9B802C97";
shapes = (
{
closed = 1;
nodes = (
(238,0,l),
(238,600,l),
(46,600,l),
(46,0,l)
);
},
{
closed = 1;
nodes = (
(238,662,l),
(238,800,l),
(46,800,l),
(46,662,l)
);
}
);
width = 284;
}
);
unicode = 105;
},
{
color = 6;
glyphname = idotless;
kernLeft = i;
kernRight = i;
lastChange = "2022-03-23 14:57:36 +0000";
layers = (
{
anchors = (
{
name = bottom;
pos = (142,0);
},
{
name = ogonek;
pos = (256,10);
},
{
name = top;
pos = (142,600);
}
);
background = {
shapes = (
{
closed = 1;
nodes = (
(46,600,l),
(46,0,l),
(238,0,l),
(238,600,l)
);
}
);
};
layerId = "422CF5D5-EDAF-47A9-A829-F34A9B802C97";
shapes = (
{
closed = 1;
nodes = (
(238,0,l),
(238,600,l),
(46,600,l),
(46,0,l)
);
}
);
width = 284;
}
);
unicode = 305;
},
{
color = 10;
glyphname = iacute;
kernLeft = i;
kernRight = i;
lastChange = "2022-03-23 14:57:36 +0000";
layers = (
{
background = {
shapes = (
{
closed = 1;
nodes = (
(46,600,l),
(46,0,l),
(238,0,l),
(238,600,l)
);
},
{
closed = 1;
nodes = (
(125,772,l),
(75,650,l),
(197,650,l),
(327,772,l)
);
}
);
};
layerId = "422CF5D5-EDAF-47A9-A829-F34A9B802C97";
shapes = (
{
ref = idotless;
},
{
pos = (75,0);
ref = acutecomb;
}
);
width = 284;
}
);
unicode = 237;
},
{
color = 10;
glyphname = icircumflex;
kernLeft = i;
kernRight = i;
lastChange = "2022-03-23 14:57:36 +0000";
layers = (
{
background = {
shapes = (
{
closed = 1;
nodes = (
(46,600,l),
(46,0,l),
(238,0,l),
(238,600,l)
);
},
{
closed = 1;
nodes = (
(85,650,l),
(142,722,l),
(198,650,l),
(340,650,l),
(240,772,l),
(43,772,l),
(-57,650,l)
);
}
);
};
layerId = "422CF5D5-EDAF-47A9-A829-F34A9B802C97";
shapes = (
{
ref = idotless;
},
{
pos = (-57,0);
ref = circumflexcomb;
}
);
width = 284;
}
);
unicode = 238;
},
{
color = 10;
glyphname = idieresis;
kernLeft = i;
kernRight = i;
lastChange = "2022-03-23 14:57:36 +0000";
layers = (
{
background = {
shapes = (
{
closed = 1;
nodes = (
(46,600,l),
(46,0,l),
(238,0,l),
(238,600,l)
);
},
{
closed = 1;
nodes = (
(-69,650,l),
(103,650,l),
(103,772,l),
(-69,772,l)
);
},
{
closed = 1;
nodes = (
(181,650,l),
(353,650,l),
(353,772,l),
(181,772,l)
);
}
);
};
layerId = "422CF5D5-EDAF-47A9-A829-F34A9B802C97";
shapes = (
{
ref = idotless;
},
{
pos = (-117,0);
ref = dieresiscomb;
}
);
width = 284;
}
);
unicode = 239;
},
{
color = 10;
glyphname = igrave;
kernLeft = i;
kernRight = i;
lastChange = "2022-03-23 14:57:36 +0000";
layers = (
{
background = {
shapes = (
{
closed = 1;
nodes = (
(46,600,l),
(46,0,l),
(238,0,l),
(238,600,l)
);
},
{
closed = 1;
nodes = (
(76,650,l),
(198,650,l),
(148,772,l),
(-54,772,l)
);
}
);
};
layerId = "422CF5D5-EDAF-47A9-A829-F34A9B802C97";
shapes = (
{
ref = idotless;
},
{
pos = (-44,0);
ref = gravecomb;
}
);
width = 284;
}
);
unicode = 236;
},
{
color = 10;
glyphname = imacron;
kernLeft = i;
kernRight = i;
lastChange = "2022-03-23 14:57:36 +0000";
layers = (
{
background = {
shapes = (
{
closed = 1;
nodes = (
(46,600,l),
(46,0,l),
(238,0,l),
(238,600,l)
);
},
{
closed = 1;
nodes = (
(328,660,l),
(328,762,l),
(-44,762,l),
(-44,660,l)
);
}
);
};
layerId = "422CF5D5-EDAF-47A9-A829-F34A9B802C97";
shapes = (
{
ref = idotless;
},
{
pos = (-68,0);
ref = macroncomb;
}
);
width = 284;
}
);
unicode = 299;
},
{
color = 10;
glyphname = iogonek;
kernLeft = i;
kernRight = i;
lastChange = "2022-03-23 14:57:36 +0000";
layers = (
{
background = {
shapes = (
{
closed = 1;
nodes = (
(46,600,l),
(46,0,l),
(238,0,l),
(238,600,l)
);
},
{
closed = 1;
nodes = (
(238,662,l),
(238,800,l),
(46,800,l),
(46,662,l)
);
},
{
closed = 1;
nodes = (
(76,-73,o),
(77,-46,o),
(108,0,c),
(46,0,l),
(-5,-30,o),
(-34,-59,o),
(-34,-109,cs),
(-34,-180,o),
(5,-219,o),
(76,-219,cs),
(190,-219,ls),
(261,-219,o),
(300,-180,o),
(300,-109,c),
(190,-109,l),
(190,-128,o),
(178,-140,o),
(158,-140,cs),
(108,-140,ls),
(88,-140,o),
(76,-128,o),
(76,-109,cs)
);
}
);
};
layerId = "422CF5D5-EDAF-47A9-A829-F34A9B802C97";
shapes = (
{
ref = i;
},
{
pos = (-51,0);
ref = ogonek;
}
);
width = 284;
}
);
unicode = 303;
},
{
color = 10;
glyphname = j;
kernLeft = i;
kernRight = i;
lastChange = "2022-03-23 14:57:36 +0000";
layers = (
{
background = {
shapes = (
{
closed = 1;
nodes = (
(-188,-114,ls),
(-207,-114,o),
(-218,-103,o),
(-218,-84,cs),
(-218,-54,l),
(-410,-54,l),
(-410,-113,ls),
(-410,-195,o),
(-365,-240,o),
(-283,-240,cs),
(111,-240,ls),
(193,-240,o),
(238,-195,o),
(238,-113,cs),
(238,600,l),
(46,600,l),
(46,-84,ls),
(46,-103,o),
(35,-114,o),
(16,-114,cs)
);
},
{
closed = 1;
nodes = (
(238,662,l),
(238,800,l),
(46,800,l),
(46,662,l)
);
}
);
};
layerId = "422CF5D5-EDAF-47A9-A829-F34A9B802C97";
shapes = (
{
ref = jdotless;
},
{
pos = (8,0);
ref = dotaccentcomb;
}
);
width = 284;
}
);
unicode = 106;
},
{
color = 6;
glyphname = jdotless;
lastChange = "2022-03-23 14:57:36 +0000";
layers = (
{
anchors = (
{
name = bottom;
pos = (140,-270);
},
{
name = top;
pos = (142,600);
}
);
layerId = "422CF5D5-EDAF-47A9-A829-F34A9B802C97";
shapes = (
{
closed = 1;
nodes = (
(111,-240,ls),
(193,-240,o),
(238,-195,o),
(238,-113,cs),
(238,600,l),
(46,600,l),
(46,-84,ls),
(46,-103,o),
(35,-114,o),
(16,-114,cs),
(-188,-114,ls),
(-207,-114,o),
(-218,-103,o),
(-218,-84,cs),
(-218,-54,l),
(-410,-54,l),
(-410,-113,ls),
(-410,-195,o),
(-365,-240,o),
(-283,-240,cs)
);
}
);
width = 284;
}
);
unicode = 567;
},
{
color = 6;
glyphname = k;
kernLeft = h;
kernRight = k;
lastChange = "2022-03-23 14:57:36 +0000";
layers = (
{
anchors = (
{
name = bottom;
pos = (367,0);
},
{
name = top;
pos = (367,800);
}
);
background = {
shapes = (
{
closed = 1;
nodes = (
(238,0,l),
(238,237,l),
(393,237,l),
(529,0,l),
(742,0,l),
(557,300,l),
(742,600,l),
(529,600,l),
(392,363,l),
(238,363,l),
(238,800,l),
(46,800,l),
(46,0,l)
);
}
);
};
layerId = "422CF5D5-EDAF-47A9-A829-F34A9B802C97";
shapes = (
{
closed = 1;
nodes = (
(238,0,l),
(238,237,l),
(393,237,l),
(529,0,l),
(742,0,l),
(557,300,l),
(742,600,l),
(529,600,l),
(392,363,l),
(238,363,l),
(238,800,l),
(46,800,l),
(46,0,l)
);
}
);
width = 734;
}
);
unicode = 107;
},
{
color = 6;
glyphname = l;
kernLeft = l;
kernRight = l;
lastChange = "2022-03-23 14:57:36 +0000";
layers = (
{
anchors = (
{
name = bottom;
pos = (142,0);
},
{
name = center;
pos = (142,400);
},
{
name = top;
pos = (142,800);
},
{
name = topright;
pos = (264,800);
}
);
background = {
shapes = (
{
closed = 1;
nodes = (
(238,800,l),
(46,800,l),
(46,0,l),
(238,0,l)
);
}
);
};
layerId = "422CF5D5-EDAF-47A9-A829-F34A9B802C97";
shapes = (
{
closed = 1;
nodes = (
(238,0,l),
(238,800,l),
(46,800,l),
(46,0,l)
);
}
);
width = 284;
}
);
unicode = 108;
},
{
color = 10;
glyphname = lacute;
kernLeft = l;
kernRight = l;
lastChange = "2022-03-23 14:57:36 +0000";
layers = (
{
background = {
shapes = (
{
closed = 1;
nodes = (
(238,800,l),
(46,800,l),
(46,0,l),
(238,0,l)
);
},
{
closed = 1;
nodes = (
(138,972,l),
(88,850,l),
(210,850,l),
(340,972,l)
);
}
);
};
layerId = "422CF5D5-EDAF-47A9-A829-F34A9B802C97";
shapes = (
{
ref = l;
},
{
pos = (81,100);
ref = acutecomb.case;
}
);
width = 284;
}
);
unicode = 314;
},
{
color = 10;
glyphname = lcaron;
kernLeft = l;
kernRight = l;
lastChange = "2022-03-23 14:57:36 +0000";
layers = (
{
background = {
shapes = (
{
closed = 1;
nodes = (
(238,800,l),
(46,800,l),
(46,0,l),
(238,0,l)
);
},
{
closed = 1;
nodes = (
(392,580,l),
(436,677,ls),
(446,699,o),
(450,717,o),
(450,733,cs),
(450,776,o),
(418,800,o),
(380,800,cs),
(278,800,l),
(278,677,l),
(349,677,l),
(308,580,l)
);
}
);
};
layerId = "422CF5D5-EDAF-47A9-A829-F34A9B802C97";
shapes = (
{
ref = l;
},
{
pos = (224,320);
ref = caroncomb.alt;
}
);
width = 284;
}
);
unicode = 318;
},
{
color = 6;
glyphname = lslash;
lastChange = "2022-03-23 14:57:36 +0000";
layers = (
{
background = {
shapes = (
{
closed = 1;
nodes = (
(85,315,l),
(85,0,l),
(277,0,l),
(277,383,l),
(350,409,l),
(350,511,l),
(277,485,l),
(277,800,l),
(85,800,l),
(85,417,l),
(12,391,l),
(12,289,l)
);
}
);
};
layerId = "422CF5D5-EDAF-47A9-A829-F34A9B802C97";
shapes = (
{
closed = 1;
nodes = (
(277,0,l),
(277,383,l),
(350,409,l),
(350,511,l),
(277,485,l),
(277,800,l),
(85,800,l),
(85,417,l),
(12,391,l),
(12,289,l),
(85,315,l),
(85,0,l)
);
}
);
width = 367;
}
);
unicode = 322;
},
{
color = 6;
glyphname = m;
kernLeft = n;
kernRight = n;
lastChange = "2022-03-23 14:57:36 +0000";
layers = (
{
anchors = (
{
name = bottom;
pos = (537,0);
},
{
name = top;
pos = (537,600);
}
);
background = {
shapes = (
{
closed = 1;
nodes = (
(238,0,l),
(238,474,l),
(442,474,l),
(442,0,l),
(635,0,l),
(635,474,l),
(808,474,ls),
(827,474,o),
(838,463,o),
(838,444,cs),
(838,0,l),
(1031,0,l),
(1031,456,ls),
(1031,549,o),
(980,600,o),
(887,600,cs),
(46,600,l),
(46,0,l)
);
}
);
};
layerId = "422CF5D5-EDAF-47A9-A829-F34A9B802C97";
shapes = (
{
closed = 1;
nodes = (
(238,0,l),
(238,474,l),
(442,474,l),
(442,0,l),
(635,0,l),
(635,474,l),
(808,474,ls),
(827,474,o),
(838,463,o),
(838,444,cs),
(838,0,l),
(1031,0,l),
(1031,456,ls),
(1031,549,o),
(980,600,o),
(887,600,cs),
(46,600,l),
(46,0,l)
);
}
);
width = 1074;
}
);
unicode = 109;
},
{
color = 6;
glyphname = n;
kernLeft = n;
kernRight = n;
lastChange = "2022-03-23 14:57:36 +0000";
layers = (
{
anchors = (
{
name = bottom;
pos = (363,0);
},
{
name = top;
pos = (349,600);
}
);
background = {
shapes = (
{
closed = 1;
nodes = (
(682,0,l),
(682,456,ls),
(682,549,o),
(631,600,o),
(538,600,cs),
(46,600,l),
(46,0,l),
(238,0,l),
(238,474,l),
(459,474,ls),
(478,474,o),
(489,463,o),
(489,444,cs),
(489,0,l)
);
}
);
};
layerId = "422CF5D5-EDAF-47A9-A829-F34A9B802C97";
shapes = (
{
closed = 1;
nodes = (
(238,0,l),
(238,474,l),
(459,474,ls),
(478,474,o),
(489,463,o),
(489,444,cs),
(489,0,l),
(682,0,l),
(682,456,ls),
(682,549,o),
(631,600,o),
(538,600,cs),
(46,600,l),
(46,0,l)
);
}
);
width = 725;
}
);
unicode = 110;
},
{
color = 10;
glyphname = nacute;
kernLeft = n;
kernRight = n;
lastChange = "2022-03-23 14:57:36 +0000";
layers = (
{
background = {
shapes = (
{
closed = 1;
nodes = (
(682,0,l),
(682,456,ls),
(682,549,o),
(631,600,o),
(538,600,cs),
(46,600,l),
(46,0,l),
(238,0,l),
(238,474,l),
(459,474,ls),
(478,474,o),
(489,463,o),
(489,444,cs),
(489,0,l)
);
},
{
closed = 1;
nodes = (
(328,772,l),
(278,650,l),
(400,650,l),
(530,772,l)
);
}
);
};
layerId = "422CF5D5-EDAF-47A9-A829-F34A9B802C97";
shapes = (
{
ref = n;
},
{
pos = (282,0);
ref = acutecomb;
}
);
width = 725;
}
);
unicode = 324;
},
{
color = 10;
glyphname = ncaron;
kernLeft = n;
kernRight = n;
lastChange = "2022-03-23 14:57:36 +0000";
layers = (
{
background = {
shapes = (
{
closed = 1;
nodes = (
(682,0,l),
(682,456,ls),
(682,549,o),
(631,600,o),
(538,600,cs),
(46,600,l),
(46,0,l),
(238,0,l),
(238,474,l),
(459,474,ls),
(478,474,o),
(489,463,o),
(489,444,cs),
(489,0,l)
);
},
{
closed = 1;
nodes = (
(242,650,l),
(439,650,l),
(539,772,l),
(397,772,l),
(341,700,l),
(284,772,l),
(142,772,l)
);
}
);
};
layerId = "422CF5D5-EDAF-47A9-A829-F34A9B802C97";
shapes = (
{
ref = n;
},
{
pos = (150,0);
ref = caroncomb;
}
);
width = 725;
}
);
unicode = 328;
},
{
color = 10;
glyphname = ntilde;
kernLeft = n;
kernRight = n;
lastChange = "2022-03-23 14:57:36 +0000";
layers = (
{
background = {
shapes = (
{
closed = 1;
nodes = (
(682,0,l),
(682,456,ls),
(682,549,o),
(631,600,o),
(538,600,cs),
(46,600,l),
(46,0,l),
(238,0,l),
(238,474,l),
(459,474,ls),
(478,474,o),
(489,463,o),
(489,444,cs),
(489,0,l)
);
},
{
closed = 1;
nodes = (
(303,684,o),
(317,676,cs),
(344,661,o),
(382,641,o),
(437,641,cs),
(515,641,o),
(544,687,o),
(544,783,c),
(434,783,l),
(434,757,o),
(434,743,o),
(417,743,cs),
(408,743,o),
(396,749,o),
(382,757,cs),
(355,772,o),
(317,792,o),
(262,792,cs),
(184,792,o),
(155,746,o),
(155,650,c),
(265,650,l),
(265,676,o),
(265,690,o),
(282,690,cs),
(291,690,o)
);
}
);
};
layerId = "422CF5D5-EDAF-47A9-A829-F34A9B802C97";
shapes = (
{
ref = n;
},
{
pos = (136,0);
ref = tildecomb;
}
);
width = 725;
}
);
unicode = 241;
},
{
color = 6;
glyphname = eng;
kernLeft = n;
kernRight = n;
lastChange = "2022-03-23 14:57:36 +0000";
layers = (
{
anchors = (
{
name = bottom;
pos = (363,0);
},
{
name = top;
pos = (363,600);
}
);
background = {
shapes = (
{
closed = 1;
nodes = (
(238,0,l),
(238,474,l),
(459,474,ls),
(478,474,o),
(489,463,o),
(489,444,c),
(489,-84,ls),
(489,-103,o),
(478,-114,o),
(459,-114,cs),
(339,-114,l),
(339,-240,l),
(555,-240,ls),
(637,-240,o),
(682,-195,o),
(682,-113,cs),
(682,456,ls),
(682,549,o),
(631,600,o),
(538,600,cs),
(46,600,l),
(46,0,l)
);
}
);
};
layerId = "422CF5D5-EDAF-47A9-A829-F34A9B802C97";
shapes = (
{
closed = 1;
nodes = (
(555,-240,ls),
(637,-240,o),
(682,-195,o),
(682,-113,cs),
(682,456,ls),
(682,549,o),
(631,600,o),
(538,600,cs),
(46,600,l),
(46,0,l),
(238,0,l),
(238,474,l),
(459,474,ls),
(478,474,o),
(489,463,o),
(489,444,c),
(489,-84,ls),
(489,-103,o),
(478,-114,o),
(459,-114,cs),
(339,-114,l),
(339,-240,l)
);
}
);
width = 725;
}
);
unicode = 331;
},
{
color = 6;
glyphname = o;
kernLeft = o;
kernRight = o;
lastChange = "2022-03-23 14:57:36 +0000";
layers = (
{
anchors = (
{
name = bottom;
pos = (364,0);
},
{
name = center;
pos = (364,300);
},
{
name = ogonek;
pos = (655,10);
},
{
name = top;
pos = (364,600);
},
{
name = topright;
pos = (708,600);
}
);
background = {
shapes = (
{
closed = 1;
nodes = (
(40,45,o),
(85,0,o),
(167,0,cs),
(561,0,ls),
(643,0,o),
(688,45,o),
(688,127,cs),
(688,473,ls),
(688,555,o),
(643,600,o),
(561,600,cs),
(167,600,ls),
(85,600,o),
(40,555,o),
(40,473,cs),
(40,127,ls)
);
},
{
closed = 1;
nodes = (
(232,444,ls),
(232,463,o),
(243,474,o),
(262,474,cs),
(466,474,ls),
(485,474,o),
(496,463,o),
(496,444,cs),
(496,156,ls),
(496,137,o),
(485,126,o),
(466,126,cs),
(262,126,ls),
(243,126,o),
(232,137,o),
(232,156,cs)
);
}
);
};
layerId = "422CF5D5-EDAF-47A9-A829-F34A9B802C97";
shapes = (
{
closed = 1;
nodes = (
(561,0,ls),
(643,0,o),
(688,45,o),
(688,127,cs),
(688,473,ls),
(688,555,o),
(643,600,o),
(561,600,cs),
(167,600,ls),
(85,600,o),
(40,555,o),
(40,473,cs),
(40,127,ls),
(40,45,o),
(85,0,o),
(167,0,cs)
);
},
{
closed = 1;
nodes = (
(243,126,o),
(232,137,o),
(232,156,cs),
(232,444,ls),
(232,463,o),
(243,474,o),
(262,474,cs),
(466,474,ls),
(485,474,o),
(496,463,o),
(496,444,cs),
(496,156,ls),
(496,137,o),
(485,126,o),
(466,126,cs),
(262,126,ls)
);
}
);
width = 728;
}
);
unicode = 111;
},
{
color = 10;
glyphname = oacute;
kernLeft = o;
kernRight = o;
lastChange = "2022-03-23 14:57:36 +0000";
layers = (
{
background = {
shapes = (
{
closed = 1;
nodes = (
(40,45,o),
(85,0,o),
(167,0,cs),
(561,0,ls),
(643,0,o),
(688,45,o),
(688,127,cs),
(688,473,ls),
(688,555,o),
(643,600,o),
(561,600,cs),
(167,600,ls),
(85,600,o),
(40,555,o),
(40,473,cs),
(40,127,ls)
);
},
{
closed = 1;
nodes = (
(232,444,ls),
(232,463,o),
(243,474,o),
(262,474,cs),
(466,474,ls),
(485,474,o),
(496,463,o),
(496,444,cs),
(496,156,ls),
(496,137,o),
(485,126,o),
(466,126,cs),
(262,126,ls),
(243,126,o),
(232,137,o),
(232,156,cs)
);
},
{
closed = 1;
nodes = (
(328,772,l),
(278,650,l),
(400,650,l),
(530,772,l)
);
}
);
};
layerId = "422CF5D5-EDAF-47A9-A829-F34A9B802C97";
shapes = (
{
ref = o;
},
{
pos = (297,0);
ref = acutecomb;
}
);
userData = {
com.schriftgestaltung.Glyphs.lastChange = "2019-11-24 07:17:57 +0000";
};
width = 728;
}
);
unicode = 243;
},
{
color = 10;
glyphname = ocircumflex;
kernLeft = o;
kernRight = o;
lastChange = "2022-03-23 14:57:36 +0000";
layers = (
{
background = {
shapes = (
{
closed = 1;
nodes = (
(40,45,o),
(85,0,o),
(167,0,cs),
(561,0,ls),
(643,0,o),
(688,45,o),
(688,127,cs),
(688,473,ls),
(688,555,o),
(643,600,o),
(561,600,cs),
(167,600,ls),
(85,600,o),
(40,555,o),
(40,473,cs),
(40,127,ls)
);
},
{
closed = 1;
nodes = (
(232,444,ls),
(232,463,o),
(243,474,o),
(262,474,cs),
(466,474,ls),
(485,474,o),
(496,463,o),
(496,444,cs),
(496,156,ls),
(496,137,o),
(485,126,o),
(466,126,cs),
(262,126,ls),
(243,126,o),
(232,137,o),
(232,156,cs)
);
},
{
closed = 1;
nodes = (
(287,650,l),
(344,722,l),
(400,650,l),
(542,650,l),
(442,772,l),
(245,772,l),
(145,650,l)
);
}
);
};
layerId = "422CF5D5-EDAF-47A9-A829-F34A9B802C97";
shapes = (
{
ref = o;
},
{
pos = (165,0);
ref = circumflexcomb;
}
);
width = 728;
}
);
unicode = 244;
},
{
color = 10;
glyphname = odieresis;
kernLeft = o;
kernRight = o;
lastChange = "2022-03-23 14:57:36 +0000";
layers = (
{
background = {
shapes = (
{
closed = 1;
nodes = (
(40,45,o),
(85,0,o),
(167,0,cs),
(561,0,ls),
(643,0,o),
(688,45,o),
(688,127,cs),
(688,473,ls),
(688,555,o),
(643,600,o),
(561,600,cs),
(167,600,ls),
(85,600,o),
(40,555,o),
(40,473,cs),
(40,127,ls)
);
},
{
closed = 1;
nodes = (
(232,444,ls),
(232,463,o),
(243,474,o),
(262,474,cs),
(466,474,ls),
(485,474,o),
(496,463,o),
(496,444,cs),
(496,156,ls),
(496,137,o),
(485,126,o),
(466,126,cs),
(262,126,ls),
(243,126,o),
(232,137,o),
(232,156,cs)
);
},
{
closed = 1;
nodes = (
(153,650,l),
(325,650,l),
(325,772,l),
(153,772,l)
);
},
{
closed = 1;
nodes = (
(403,650,l),
(575,650,l),
(575,772,l),
(403,772,l)
);
}
);
};
layerId = "422CF5D5-EDAF-47A9-A829-F34A9B802C97";
shapes = (
{
ref = o;
},
{
pos = (105,0);
ref = dieresiscomb;
}
);
width = 728;
}
);
unicode = 246;
},
{
color = 10;
glyphname = ograve;
kernLeft = o;
kernRight = o;
lastChange = "2022-03-23 14:57:36 +0000";
layers = (
{
background = {
shapes = (
{
closed = 1;
nodes = (
(40,45,o),
(85,0,o),
(167,0,cs),
(561,0,ls),
(643,0,o),
(688,45,o),
(688,127,cs),
(688,473,ls),
(688,555,o),
(643,600,o),
(561,600,cs),
(167,600,ls),
(85,600,o),
(40,555,o),
(40,473,cs),
(40,127,ls)
);
},
{
closed = 1;
nodes = (
(232,444,ls),
(232,463,o),
(243,474,o),
(262,474,cs),
(466,474,ls),
(485,474,o),
(496,463,o),
(496,444,cs),
(496,156,ls),
(496,137,o),
(485,126,o),
(466,126,cs),
(262,126,ls),
(243,126,o),
(232,137,o),
(232,156,cs)
);
},
{
closed = 1;
nodes = (
(288,650,l),
(410,650,l),
(360,772,l),
(158,772,l)
);
}
);
};
layerId = "422CF5D5-EDAF-47A9-A829-F34A9B802C97";
shapes = (
{
ref = o;
},
{
pos = (178,0);
ref = gravecomb;
}
);
width = 728;
}
);
unicode = 242;
},
{
color = 10;
glyphname = ohungarumlaut;
kernLeft = o;
kernRight = o;
lastChange = "2022-03-23 14:57:36 +0000";
layers = (
{
background = {
shapes = (
{
closed = 1;
nodes = (
(40,45,o),
(85,0,o),
(167,0,cs),
(561,0,ls),
(643,0,o),
(688,45,o),
(688,127,cs),
(688,473,ls),
(688,555,o),
(643,600,o),
(561,600,cs),
(167,600,ls),
(85,600,o),
(40,555,o),
(40,473,cs),
(40,127,ls)
);
},
{
closed = 1;
nodes = (
(232,444,ls),
(232,463,o),
(243,474,o),
(262,474,cs),
(466,474,ls),
(485,474,o),
(496,463,o),
(496,444,cs),
(496,156,ls),
(496,137,o),
(485,126,o),
(466,126,cs),
(262,126,ls),
(243,126,o),
(232,137,o),
(232,156,cs)
);
},
{
closed = 1;
nodes = (
(238,772,l),
(188,650,l),
(310,650,l),
(440,772,l)
);
},
{
closed = 1;
nodes = (
(468,772,l),
(418,650,l),
(540,650,l),
(670,772,l)
);
}
);
};
layerId = "422CF5D5-EDAF-47A9-A829-F34A9B802C97";
shapes = (
{
ref = o;
},
{
pos = (188,0);
ref = hungarumlautcomb;
}
);
width = 728;
}
);
unicode = 337;
},
{
color = 10;
glyphname = omacron;
kernLeft = o;
kernRight = o;
lastChange = "2022-03-23 14:57:36 +0000";
layers = (
{
background = {
shapes = (
{
closed = 1;
nodes = (
(40,45,o),
(85,0,o),
(167,0,cs),
(561,0,ls),
(643,0,o),
(688,45,o),
(688,127,cs),
(688,473,ls),
(688,555,o),
(643,600,o),
(561,600,cs),
(167,600,ls),
(85,600,o),
(40,555,o),
(40,473,cs),
(40,127,ls)
);
},
{
closed = 1;
nodes = (
(232,444,ls),
(232,463,o),
(243,474,o),
(262,474,cs),
(466,474,ls),
(485,474,o),
(496,463,o),
(496,444,cs),
(496,156,ls),
(496,137,o),
(485,126,o),
(466,126,cs),
(262,126,ls),
(243,126,o),
(232,137,o),
(232,156,cs)
);
},
{
closed = 1;
nodes = (
(550,650,l),
(550,752,l),
(178,752,l),
(178,650,l)
);
}
);
};
layerId = "422CF5D5-EDAF-47A9-A829-F34A9B802C97";
shapes = (
{
ref = o;
},
{
pos = (154,0);
ref = macroncomb;
}
);
userData = {
com.schriftgestaltung.Glyphs.lastChange = "2019-11-24 07:17:58 +0000";
};
width = 728;
}
);
unicode = 333;
},
{
color = 6;
glyphname = oslash;
kernLeft = o;
kernRight = o;
lastChange = "2022-03-23 14:57:36 +0000";
layers = (
{
anchors = (
{
name = top;
pos = (371,600);
}
);
background = {
shapes = (
{
closed = 1;
nodes = (
(76,-84,l),
(160,0,l),
(568,0,ls),
(650,0,o),
(695,45,o),
(695,127,cs),
(695,473,ls),
(695,493,o),
(692,511,o),
(687,527,c),
(755,595,l),
(666,684,l),
(582,600,l),
(174,600,ls),
(92,600,o),
(47,555,o),
(47,473,cs),
(47,127,ls),
(47,107,o),
(50,89,o),
(55,73,c),
(-13,5,l)
);
},
{
closed = 1;
nodes = (
(239,463,o),
(250,474,o),
(269,474,cs),
(456,474,l),
(239,257,l),
(239,444,ls)
);
},
{
closed = 1;
nodes = (
(503,343,l),
(503,156,ls),
(503,137,o),
(492,126,o),
(473,126,cs),
(286,126,l)
);
}
);
};
layerId = "422CF5D5-EDAF-47A9-A829-F34A9B802C97";
shapes = (
{
closed = 1;
nodes = (
(160,0,l),
(568,0,ls),
(650,0,o),
(695,45,o),
(695,127,cs),
(695,473,ls),
(695,493,o),
(692,511,o),
(687,527,c),
(755,595,l),
(666,684,l),
(582,600,l),
(174,600,ls),
(92,600,o),
(47,555,o),
(47,473,cs),
(47,127,ls),
(47,107,o),
(50,89,o),
(55,73,c),
(-13,5,l),
(76,-84,l)
);
},
{
closed = 1;
nodes = (
(503,343,l),
(503,156,ls),
(503,137,o),
(492,126,o),
(473,126,cs),
(286,126,l)
);
},
{
closed = 1;
nodes = (
(239,444,ls),
(239,463,o),
(250,474,o),
(269,474,cs),
(456,474,l),
(239,257,l)
);
}
);
width = 742;
}
);
unicode = 248;
},
{
color = 10;
glyphname = otilde;
kernLeft = o;
kernRight = o;
lastChange = "2022-03-23 14:57:36 +0000";
layers = (
{
background = {
shapes = (
{
closed = 1;
nodes = (
(40,45,o),
(85,0,o),
(167,0,cs),
(561,0,ls),
(643,0,o),
(688,45,o),
(688,127,cs),
(688,473,ls),
(688,555,o),
(643,600,o),
(561,600,cs),
(167,600,ls),
(85,600,o),
(40,555,o),
(40,473,cs),
(40,127,ls)
);
},
{
closed = 1;
nodes = (
(232,444,ls),
(232,463,o),
(243,474,o),
(262,474,cs),
(466,474,ls),
(485,474,o),
(496,463,o),
(496,444,cs),
(496,156,ls),
(496,137,o),
(485,126,o),
(466,126,cs),
(262,126,ls),
(243,126,o),
(232,137,o),
(232,156,cs)
);
},
{
closed = 1;
nodes = (
(306,684,o),
(320,676,cs),
(347,661,o),
(385,641,o),
(440,641,cs),
(518,641,o),
(547,687,o),
(547,783,c),
(437,783,l),
(437,757,o),
(437,743,o),
(420,743,cs),
(411,743,o),
(399,749,o),
(385,757,cs),
(358,772,o),
(320,792,o),
(265,792,cs),
(187,792,o),
(158,746,o),
(158,650,c),
(268,650,l),
(268,676,o),
(268,690,o),
(285,690,cs),
(294,690,o)
);
}
);
};
layerId = "422CF5D5-EDAF-47A9-A829-F34A9B802C97";
shapes = (
{
ref = o;
},
{
pos = (151,0);
ref = tildecomb;
}
);
width = 728;
}
);
unicode = 245;
},
{
color = 6;
glyphname = oe;
kernLeft = o;
kernRight = e;
lastChange = "2022-03-23 14:57:36 +0000";
layers = (
{
anchors = (
{
name = bottom;
pos = (591,0);
},
{
name = top;
pos = (591,600);
}
);
background = {
shapes = (
{
closed = 1;
nodes = (
(40,45,o),
(85,0,o),
(167,0,cs),
(1017,0,ls),
(1099,0,o),
(1144,45,o),
(1144,127,cs),
(1144,186,l),
(952,186,l),
(952,156,ls),
(952,137,o),
(941,126,o),
(922,126,cs),
(718,126,ls),
(699,126,o),
(688,137,o),
(688,156,cs),
(688,236,l),
(1144,236,l),
(1144,473,ls),
(1144,555,o),
(1099,600,o),
(1017,600,cs),
(167,600,ls),
(85,600,o),
(40,555,o),
(40,473,cs),
(40,127,ls)
);
},
{
closed = 1;
nodes = (
(232,444,ls),
(232,463,o),
(243,474,o),
(262,474,cs),
(466,474,ls),
(485,474,o),
(496,463,o),
(496,444,cs),
(496,156,ls),
(496,137,o),
(485,126,o),
(466,126,cs),
(262,126,ls),
(243,126,o),
(232,137,o),
(232,156,cs)
);
},
{
closed = 1;
nodes = (
(688,444,ls),
(688,463,o),
(699,474,o),
(718,474,cs),
(922,474,ls),
(941,474,o),
(952,463,o),
(952,444,cs),
(952,362,l),
(688,362,l)
);
}
);
};
layerId = "422CF5D5-EDAF-47A9-A829-F34A9B802C97";
shapes = (
{
closed = 1;
nodes = (
(1017,0,ls),
(1099,0,o),
(1144,45,o),
(1144,127,cs),
(1144,186,l),
(952,186,l),
(952,156,ls),
(952,137,o),
(941,126,o),
(922,126,cs),
(718,126,ls),
(699,126,o),
(688,137,o),
(688,156,cs),
(688,236,l),
(1144,236,l),
(1144,473,ls),
(1144,555,o),
(1099,600,o),
(1017,600,cs),
(167,600,ls),
(85,600,o),
(40,555,o),
(40,473,cs),
(40,127,ls),
(40,45,o),
(85,0,o),
(167,0,cs)
);
},
{
closed = 1;
nodes = (
(243,126,o),
(232,137,o),
(232,156,cs),
(232,444,ls),
(232,463,o),
(243,474,o),
(262,474,cs),
(466,474,ls),
(485,474,o),
(496,463,o),
(496,444,cs),
(496,156,ls),
(496,137,o),
(485,126,o),
(466,126,cs),
(262,126,ls)
);
},
{
closed = 1;
nodes = (
(688,444,ls),
(688,463,o),
(699,474,o),
(718,474,cs),
(922,474,ls),
(941,474,o),
(952,463,o),
(952,444,cs),
(952,362,l),
(688,362,l)
);
}
);
width = 1182;
}
);
unicode = 339;
},
{
color = 6;
glyphname = p;
kernLeft = n;
kernRight = o;
lastChange = "2022-03-23 14:57:36 +0000";
layers = (
{
anchors = (
{
name = bottom;
pos = (361,0);
},
{
name = top;
pos = (361,600);
}
);
background = {
shapes = (
{
closed = 1;
nodes = (
(46,-200,l),
(238,-200,l),
(238,0,l),
(538,0,ls),
(631,0,o),
(682,51,o),
(682,144,cs),
(682,456,ls),
(682,549,o),
(631,600,o),
(538,600,cs),
(46,600,l)
);
},
{
closed = 1;
nodes = (
(459,474,ls),
(478,474,o),
(489,463,o),
(489,444,cs),
(489,156,ls),
(489,137,o),
(478,126,o),
(459,126,cs),
(238,126,l),
(238,474,l)
);
}
);
};
layerId = "422CF5D5-EDAF-47A9-A829-F34A9B802C97";
shapes = (
{
closed = 1;
nodes = (
(238,-200,l),
(238,0,l),
(538,0,ls),
(631,0,o),
(682,51,o),
(682,144,cs),
(682,456,ls),
(682,549,o),
(631,600,o),
(538,600,cs),
(46,600,l),
(46,-200,l)
);
},
{
closed = 1;
nodes = (
(238,474,l),
(459,474,ls),
(478,474,o),
(489,463,o),
(489,444,cs),
(489,156,ls),
(489,137,o),
(478,126,o),
(459,126,cs),
(238,126,l)
);
}
);
width = 721;
}
);
unicode = 112;
},
{
color = 6;
glyphname = thorn;
kernLeft = h;
kernRight = o;
lastChange = "2022-03-23 14:57:36 +0000";
layers = (
{
anchors = (
{
name = bottom;
pos = (361,0);
},
{
name = top;
pos = (361,600);
}
);
background = {
shapes = (
{
closed = 1;
nodes = (
(238,-200,l),
(238,0,l),
(538,0,ls),
(631,0,o),
(682,51,o),
(682,144,cs),
(682,456,ls),
(682,549,o),
(631,600,o),
(538,600,cs),
(238,600,l),
(238,700,l),
(46,700,l),
(46,-200,l)
);
},
{
closed = 1;
nodes = (
(238,474,l),
(459,474,ls),
(478,474,o),
(489,463,o),
(489,444,cs),
(489,156,ls),
(489,137,o),
(478,126,o),
(459,126,cs),
(238,126,l)
);
}
);
};
layerId = "422CF5D5-EDAF-47A9-A829-F34A9B802C97";
shapes = (
{
closed = 1;
nodes = (
(238,-200,l),
(238,0,l),
(538,0,ls),
(631,0,o),
(682,51,o),
(682,144,cs),
(682,456,ls),
(682,549,o),
(631,600,o),
(538,600,cs),
(238,600,l),
(238,700,l),
(46,700,l),
(46,-200,l)
);
},
{
closed = 1;
nodes = (
(238,474,l),
(459,474,ls),
(478,474,o),
(489,463,o),
(489,444,cs),
(489,156,ls),
(489,137,o),
(478,126,o),
(459,126,cs),
(238,126,l)
);
}
);
width = 721;
}
);
unicode = 254;
},
{
color = 6;
glyphname = q;
kernLeft = o;
kernRight = u;
lastChange = "2022-03-23 14:57:36 +0000";
layers = (
{
anchors = (
{
name = bottom;
pos = (361,0);
},
{
name = top;
pos = (361,600);
}
);
background = {
shapes = (
{
closed = 1;
nodes = (
(183,600,ls),
(90,600,o),
(39,549,o),
(39,456,cs),
(39,144,ls),
(39,51,o),
(90,0,o),
(183,0,cs),
(483,0,l),
(483,-200,l),
(675,-200,l),
(675,600,l)
);
},
{
closed = 1;
nodes = (
(483,126,l),
(262,126,ls),
(243,126,o),
(232,137,o),
(232,156,cs),
(232,444,ls),
(232,463,o),
(243,474,o),
(262,474,cs),
(483,474,l)
);
}
);
};
layerId = "422CF5D5-EDAF-47A9-A829-F34A9B802C97";
shapes = (
{
closed = 1;
nodes = (
(675,-200,l),
(675,600,l),
(183,600,ls),
(90,600,o),
(39,549,o),
(39,456,cs),
(39,144,ls),
(39,51,o),
(90,0,o),
(183,0,cs),
(483,0,l),
(483,-200,l)
);
},
{
closed = 1;
nodes = (
(243,126,o),
(232,137,o),
(232,156,cs),
(232,444,ls),
(232,463,o),
(243,474,o),
(262,474,cs),
(483,474,l),
(483,126,l),
(262,126,ls)
);
}
);
width = 721;
}
);
unicode = 113;
},
{
color = 6;
glyphname = r;
kernLeft = n;
kernRight = r;
lastChange = "2022-03-23 14:57:36 +0000";
layers = (
{
anchors = (
{
name = bottom;
pos = (141,0);
},
{
name = top;
pos = (337,600);
}
);
background = {
shapes = (
{
closed = 1;
nodes = (
(238,0,l),
(238,474,l),
(439,474,ls),
(458,474,o),
(469,463,o),
(469,444,cs),
(469,414,l),
(662,414,l),
(662,456,ls),
(662,549,o),
(611,600,o),
(518,600,cs),
(46,600,l),
(46,0,l)
);
}
);
};
layerId = "422CF5D5-EDAF-47A9-A829-F34A9B802C97";
shapes = (
{
closed = 1;
nodes = (
(238,0,l),
(238,474,l),
(439,474,ls),
(458,474,o),
(469,463,o),
(469,444,cs),
(469,414,l),
(662,414,l),
(662,456,ls),
(662,549,o),
(611,600,o),
(518,600,cs),
(46,600,l),
(46,0,l)
);
}
);
userData = {
com.schriftgestaltung.Glyphs.lastChange = "2019-11-29 01:10:24 +0000";
};
width = 673;
}
);
unicode = 114;
},
{
color = 10;
glyphname = racute;
kernLeft = n;
kernRight = r;
lastChange = "2022-03-23 14:57:36 +0000";
layers = (
{
background = {
shapes = (
{
closed = 1;
nodes = (
(238,0,l),
(238,474,l),
(439,474,ls),
(458,474,o),
(469,463,o),
(469,444,cs),
(469,414,l),
(662,414,l),
(662,456,ls),
(662,549,o),
(611,600,o),
(518,600,cs),
(46,600,l),
(46,0,l)
);
},
{
closed = 1;
nodes = (
(284,772,l),
(234,650,l),
(356,650,l),
(486,772,l)
);
}
);
};
layerId = "422CF5D5-EDAF-47A9-A829-F34A9B802C97";
shapes = (
{
ref = r;
},
{
pos = (270,0);
ref = acutecomb;
}
);
width = 673;
}
);
unicode = 341;
},
{
color = 10;
glyphname = rcaron;
kernLeft = n;
kernRight = r;
lastChange = "2022-03-23 14:57:36 +0000";
layers = (
{
background = {
shapes = (
{
closed = 1;
nodes = (
(238,0,l),
(238,474,l),
(439,474,ls),
(458,474,o),
(469,463,o),
(469,444,cs),
(469,414,l),
(662,414,l),
(662,456,ls),
(662,549,o),
(611,600,o),
(518,600,cs),
(46,600,l),
(46,0,l)
);
},
{
closed = 1;
nodes = (
(232,650,l),
(429,650,l),
(529,772,l),
(387,772,l),
(331,700,l),
(274,772,l),
(132,772,l)
);
}
);
};
layerId = "422CF5D5-EDAF-47A9-A829-F34A9B802C97";
shapes = (
{
ref = r;
},
{
pos = (138,0);
ref = caroncomb;
}
);
width = 673;
}
);
unicode = 345;
},
{
color = 6;
glyphname = s;
kernLeft = s;
kernRight = s;
lastChange = "2022-03-23 14:57:36 +0000";
layers = (
{
anchors = (
{
name = bottom;
pos = (356,0);
},
{
name = top;
pos = (356,600);
}
);
background = {
shapes = (
{
closed = 1;
nodes = (
(536,0,ls),
(629,0,o),
(680,51,o),
(680,144,cs),
(680,220,ls),
(680,313,o),
(629,364,o),
(536,364,cs),
(254,364,ls),
(235,364,o),
(224,375,o),
(224,394,cs),
(224,444,ls),
(224,463,o),
(235,474,o),
(254,474,cs),
(458,474,ls),
(477,474,o),
(488,463,o),
(488,444,cs),
(488,414,l),
(680,414,l),
(680,456,ls),
(680,549,o),
(629,600,o),
(536,600,cs),
(176,600,ls),
(83,600,o),
(32,549,o),
(32,456,cs),
(32,380,ls),
(32,287,o),
(83,236,o),
(176,236,cs),
(458,236,ls),
(477,236,o),
(488,225,o),
(488,206,cs),
(488,156,ls),
(488,137,o),
(477,126,o),
(458,126,cs),
(254,126,ls),
(235,126,o),
(224,137,o),
(224,156,cs),
(224,186,l),
(32,186,l),
(32,144,ls),
(32,51,o),
(83,0,o),
(176,0,cs)
);
}
);
};
layerId = "422CF5D5-EDAF-47A9-A829-F34A9B802C97";
shapes = (
{
closed = 1;
nodes = (
(536,0,ls),
(629,0,o),
(680,51,o),
(680,144,cs),
(680,220,ls),
(680,313,o),
(629,364,o),
(536,364,cs),
(254,364,ls),
(235,364,o),
(224,375,o),
(224,394,cs),
(224,444,ls),
(224,463,o),
(235,474,o),
(254,474,cs),
(458,474,ls),
(477,474,o),
(488,463,o),
(488,444,cs),
(488,414,l),
(680,414,l),
(680,456,ls),
(680,549,o),
(629,600,o),
(536,600,cs),
(176,600,ls),
(83,600,o),
(32,549,o),
(32,456,cs),
(32,380,ls),
(32,287,o),
(83,236,o),
(176,236,cs),
(458,236,ls),
(477,236,o),
(488,225,o),
(488,206,cs),
(488,156,ls),
(488,137,o),
(477,126,o),
(458,126,cs),
(254,126,ls),
(235,126,o),
(224,137,o),
(224,156,cs),
(224,186,l),
(32,186,l),
(32,144,ls),
(32,51,o),
(83,0,o),
(176,0,cs)
);
}
);
userData = {
com.schriftgestaltung.Glyphs.lastChange = "2019-11-25 03:44:44 +0000";
};
width = 712;
}
);
unicode = 115;
},
{
color = 10;
glyphname = sacute;
kernLeft = s;
kernRight = s;
lastChange = "2022-03-23 14:57:36 +0000";
layers = (
{
background = {
shapes = (
{
closed = 1;
nodes = (
(536,0,ls),
(629,0,o),
(680,51,o),
(680,144,cs),
(680,220,ls),
(680,313,o),
(629,364,o),
(536,364,cs),
(254,364,ls),
(235,364,o),
(224,375,o),
(224,394,cs),
(224,444,ls),
(224,463,o),
(235,474,o),
(254,474,cs),
(458,474,ls),
(477,474,o),
(488,463,o),
(488,444,cs),
(488,414,l),
(680,414,l),
(680,456,ls),
(680,549,o),
(629,600,o),
(536,600,cs),
(176,600,ls),
(83,600,o),
(32,549,o),
(32,456,cs),
(32,380,ls),
(32,287,o),
(83,236,o),
(176,236,cs),
(458,236,ls),
(477,236,o),
(488,225,o),
(488,206,cs),
(488,156,ls),
(488,137,o),
(477,126,o),
(458,126,cs),
(254,126,ls),
(235,126,o),
(224,137,o),
(224,156,cs),
(224,186,l),
(32,186,l),
(32,144,ls),
(32,51,o),
(83,0,o),
(176,0,cs)
);
},
{
closed = 1;
nodes = (
(320,772,l),
(270,650,l),
(392,650,l),
(522,772,l)
);
}
);
};
layerId = "422CF5D5-EDAF-47A9-A829-F34A9B802C97";
shapes = (
{
ref = s;
},
{
pos = (289,0);
ref = acutecomb;
}
);
width = 712;
}
);
unicode = 347;
},
{
color = 10;
glyphname = scaron;
kernLeft = s;
kernRight = s;
lastChange = "2022-03-23 14:57:36 +0000";
layers = (
{
background = {
shapes = (
{
closed = 1;
nodes = (
(536,0,ls),
(629,0,o),
(680,51,o),
(680,144,cs),
(680,220,ls),
(680,313,o),
(629,364,o),
(536,364,cs),
(254,364,ls),
(235,364,o),
(224,375,o),
(224,394,cs),
(224,444,ls),
(224,463,o),
(235,474,o),
(254,474,cs),
(458,474,ls),
(477,474,o),
(488,463,o),
(488,444,cs),
(488,414,l),
(680,414,l),
(680,456,ls),
(680,549,o),
(629,600,o),
(536,600,cs),
(176,600,ls),
(83,600,o),
(32,549,o),
(32,456,cs),
(32,380,ls),
(32,287,o),
(83,236,o),
(176,236,cs),
(458,236,ls),
(477,236,o),
(488,225,o),
(488,206,cs),
(488,156,ls),
(488,137,o),
(477,126,o),
(458,126,cs),
(254,126,ls),
(235,126,o),
(224,137,o),
(224,156,cs),
(224,186,l),
(32,186,l),
(32,144,ls),
(32,51,o),
(83,0,o),
(176,0,cs)
);
},
{
closed = 1;
nodes = (
(258,650,l),
(455,650,l),
(555,772,l),
(413,772,l),
(357,700,l),
(300,772,l),
(158,772,l)
);
}
);
};
layerId = "422CF5D5-EDAF-47A9-A829-F34A9B802C97";
shapes = (
{
ref = s;
},
{
pos = (157,0);
ref = caroncomb;
}
);
width = 712;
}
);
unicode = 353;
},
{
color = 10;
glyphname = scedilla;
kernLeft = s;
kernRight = s;
lastChange = "2022-03-23 14:57:36 +0000";
layers = (
{
background = {
shapes = (
{
closed = 1;
nodes = (
(536,0,ls),
(629,0,o),
(680,51,o),
(680,144,cs),
(680,220,ls),
(680,313,o),
(629,364,o),
(536,364,cs),
(254,364,ls),
(235,364,o),
(224,375,o),
(224,394,cs),
(224,444,ls),
(224,463,o),
(235,474,o),
(254,474,cs),
(458,474,ls),
(477,474,o),
(488,463,o),
(488,444,cs),
(488,414,l),
(680,414,l),
(680,456,ls),
(680,549,o),
(629,600,o),
(536,600,cs),
(176,600,ls),
(83,600,o),
(32,549,o),
(32,456,cs),
(32,380,ls),
(32,287,o),
(83,236,o),
(176,236,cs),
(458,236,ls),
(477,236,o),
(488,225,o),
(488,206,cs),
(488,156,ls),
(488,137,o),
(477,126,o),
(458,126,cs),
(254,126,ls),
(235,126,o),
(224,137,o),
(224,156,cs),
(224,186,l),
(32,186,l),
(32,144,ls),
(32,51,o),
(83,0,o),
(176,0,cs)
);
},
{
closed = 1;
nodes = (
(226,-270,l),
(358,-270,ls),
(429,-270,o),
(468,-231,o),
(468,-160,cs),
(468,-89,o),
(429,-51,o),
(358,-51,cs),
(276,-51,l),
(276,-130,l),
(326,-130,ls),
(346,-130,o),
(358,-141,o),
(358,-160,cs),
(358,-179,o),
(346,-191,o),
(326,-191,cs),
(226,-191,l)
);
}
);
};
layerId = "422CF5D5-EDAF-47A9-A829-F34A9B802C97";
shapes = (
{
ref = s;
},
{
pos = (211,0);
ref = cedillacomb;
}
);
width = 712;
}
);
unicode = 351;
},
{
color = 6;
glyphname = germandbls;
kernLeft = h;
lastChange = "2022-03-23 14:57:36 +0000";
layers = (
{
anchors = (
{
name = bottom;
pos = (414,0);
},
{
name = top;
pos = (414,800);
}
);
background = {
shapes = (
{
closed = 1;
nodes = (
(250,526,l),
(250,545,o),
(261,556,o),
(280,556,cs),
(560,556,ls),
(579,556,o),
(590,545,o),
(590,526,cs),
(590,456,ls),
(590,437,o),
(579,426,o),
(560,426,cs),
(380,426,l),
(380,282,l),
(560,282,ls),
(579,282,o),
(590,271,o),
(590,252,cs),
(590,174,ls),
(590,155,o),
(579,144,o),
(560,144,cs),
(380,144,l),
(380,0,l),
(650,0,ls),
(743,0,o),
(794,51,o),
(794,144,cs),
(794,200,ls),
(794,293,o),
(743,344,o),
(650,344,c),
(743,344,o),
(794,395,o),
(794,488,cs),
(794,556,ls),
(794,649,o),
(743,700,o),
(650,700,cs),
(190,700,ls),
(97,700,o),
(46,649,o),
(46,556,cs),
(46,0,l),
(250,0,l)
);
}
);
};
layerId = "422CF5D5-EDAF-47A9-A829-F34A9B802C97";
shapes = (
{
closed = 1;
nodes = (
(250,0,l),
(250,526,l),
(250,545,o),
(261,556,o),
(280,556,cs),
(560,556,ls),
(579,556,o),
(590,545,o),
(590,526,cs),
(590,456,ls),
(590,437,o),
(579,426,o),
(560,426,cs),
(380,426,l),
(380,282,l),
(560,282,ls),
(579,282,o),
(590,271,o),
(590,252,cs),
(590,174,ls),
(590,155,o),
(579,144,o),
(560,144,cs),
(380,144,l),
(380,0,l),
(650,0,ls),
(743,0,o),
(794,51,o),
(794,144,cs),
(794,200,ls),
(794,293,o),
(743,344,o),
(650,344,c),
(743,344,o),
(794,395,o),
(794,488,cs),
(794,556,ls),
(794,649,o),
(743,700,o),
(650,700,cs),
(190,700,ls),
(97,700,o),
(46,649,o),
(46,556,cs),
(46,0,l)
);
}
);
width = 828;
}
);
unicode = 223;
},
{
color = 6;
glyphname = t;
kernLeft = t;
kernRight = t;
lastChange = "2022-03-23 14:57:36 +0000";
layers = (
{
anchors = (
{
name = bottom;
pos = (453,0);
},
{
name = center;
pos = (383,300);
},
{
name = top;
pos = (383,600);
},
{
name = topright;
pos = (446,649);
}
);
background = {
shapes = (
{
closed = 1;
nodes = (
(156,474,l),
(156,127,ls),
(156,45,o),
(201,0,o),
(283,0,cs),
(627,0,ls),
(709,0,o),
(754,45,o),
(754,127,cs),
(754,186,l),
(562,186,l),
(562,156,ls),
(562,137,o),
(551,126,o),
(532,126,cs),
(378,126,ls),
(359,126,o),
(348,137,o),
(348,156,cs),
(348,474,l),
(754,474,l),
(754,600,l),
(348,600,l),
(348,800,l),
(156,800,l),
(156,600,l),
(12,600,l),
(12,474,l)
);
}
);
};
layerId = "422CF5D5-EDAF-47A9-A829-F34A9B802C97";
shapes = (
{
closed = 1;
nodes = (
(627,0,ls),
(709,0,o),
(754,45,o),
(754,127,cs),
(754,186,l),
(562,186,l),
(562,156,ls),
(562,137,o),
(551,126,o),
(532,126,cs),
(378,126,ls),
(359,126,o),
(348,137,o),
(348,156,cs),
(348,474,l),
(754,474,l),
(754,600,l),
(348,600,l),
(348,800,l),
(156,800,l),
(156,600,l),
(12,600,l),
(12,474,l),
(156,474,l),
(156,127,ls),
(156,45,o),
(201,0,o),
(283,0,cs)
);
}
);
width = 766;
}
);
unicode = 116;
},
{
color = 6;
glyphname = tbar;
kernLeft = t;
kernRight = t;
lastChange = "2022-03-23 14:57:36 +0000";
layers = (
{
background = {
shapes = (
{
closed = 1;
nodes = (
(164,474,l),
(164,381,l),
(21,381,l),
(21,279,l),
(164,279,l),
(164,127,ls),
(164,45,o),
(209,0,o),
(291,0,cs),
(635,0,ls),
(717,0,o),
(762,45,o),
(762,127,cs),
(762,186,l),
(570,186,l),
(570,156,ls),
(570,137,o),
(559,126,o),
(540,126,cs),
(386,126,ls),
(367,126,o),
(356,137,o),
(356,156,cs),
(356,279,l),
(762,279,l),
(762,381,l),
(356,381,l),
(356,474,l),
(762,474,l),
(762,600,l),
(356,600,l),
(356,800,l),
(164,800,l),
(164,600,l),
(20,600,l),
(20,474,l)
);
}
);
};
layerId = "422CF5D5-EDAF-47A9-A829-F34A9B802C97";
shapes = (
{
closed = 1;
nodes = (
(635,0,ls),
(717,0,o),
(762,45,o),
(762,127,cs),
(762,186,l),
(570,186,l),
(570,156,ls),
(570,137,o),
(559,126,o),
(540,126,cs),
(386,126,ls),
(367,126,o),
(356,137,o),
(356,156,cs),
(356,279,l),
(762,279,l),
(762,381,l),
(356,381,l),
(356,474,l),
(762,474,l),
(762,600,l),
(356,600,l),
(356,800,l),
(164,800,l),
(164,600,l),
(20,600,l),
(20,474,l),
(164,474,l),
(164,381,l),
(21,381,l),
(21,279,l),
(164,279,l),
(164,127,ls),
(164,45,o),
(209,0,o),
(291,0,cs)
);
}
);
width = 777;
}
);
unicode = 359;
},
{
color = 10;
glyphname = tcaron;
kernLeft = t;
kernRight = t;
lastChange = "2022-03-23 14:57:36 +0000";
layers = (
{
background = {
shapes = (
{
closed = 1;
nodes = (
(156,474,l),
(156,127,ls),
(156,45,o),
(201,0,o),
(283,0,cs),
(627,0,ls),
(709,0,o),
(754,45,o),
(754,127,cs),
(754,186,l),
(562,186,l),
(562,156,ls),
(562,137,o),
(551,126,o),
(532,126,cs),
(378,126,ls),
(359,126,o),
(348,137,o),
(348,156,cs),
(348,474,l),
(754,474,l),
(754,600,l),
(348,600,l),
(348,800,l),
(156,800,l),
(156,600,l),
(12,600,l),
(12,474,l)
);
},
{
closed = 1;
nodes = (
(530,649,l),
(574,746,ls),
(584,768,o),
(588,786,o),
(588,802,cs),
(588,845,o),
(556,869,o),
(518,869,cs),
(416,869,l),
(416,746,l),
(487,746,l),
(446,649,l)
);
}
);
};
layerId = "422CF5D5-EDAF-47A9-A829-F34A9B802C97";
shapes = (
{
ref = t;
},
{
pos = (406,169);
ref = caroncomb.alt;
}
);
width = 766;
}
);
unicode = 357;
},
{
color = 6;
glyphname = u;
kernLeft = u;
kernRight = u;
lastChange = "2022-03-23 14:57:36 +0000";
layers = (
{
anchors = (
{
name = bottom;
pos = (363,0);
},
{
name = ogonek;
pos = (653,10);
},
{
name = top;
pos = (363,600);
},
{
name = topright;
pos = (706,600);
}
);
background = {
shapes = (
{
closed = 1;
nodes = (
(44,600,l),
(44,144,ls),
(44,51,o),
(95,0,o),
(188,0,cs),
(680,0,l),
(680,600,l),
(488,600,l),
(488,126,l),
(267,126,ls),
(248,126,o),
(237,137,o),
(237,156,cs),
(237,600,l)
);
}
);
};
layerId = "422CF5D5-EDAF-47A9-A829-F34A9B802C97";
shapes = (
{
closed = 1;
nodes = (
(680,0,l),
(680,600,l),
(488,600,l),
(488,126,l),
(267,126,ls),
(248,126,o),
(237,137,o),
(237,156,cs),
(237,600,l),
(44,600,l),
(44,144,ls),
(44,51,o),
(95,0,o),
(188,0,cs)
);
}
);
width = 726;
}
);
unicode = 117;
},
{
color = 10;
glyphname = uacute;
kernLeft = u;
kernRight = u;
lastChange = "2022-03-23 14:57:36 +0000";
layers = (
{
background = {
shapes = (
{
closed = 1;
nodes = (
(44,600,l),
(44,144,ls),
(44,51,o),
(95,0,o),
(188,0,cs),
(680,0,l),
(680,600,l),
(488,600,l),
(488,126,l),
(267,126,ls),
(248,126,o),
(237,137,o),
(237,156,cs),
(237,600,l)
);
},
{
closed = 1;
nodes = (
(336,772,l),
(286,650,l),
(408,650,l),
(538,772,l)
);
}
);
};
layerId = "422CF5D5-EDAF-47A9-A829-F34A9B802C97";
shapes = (
{
ref = u;
},
{
pos = (296,0);
ref = acutecomb;
}
);
width = 726;
}
);
unicode = 250;
},
{
color = 10;
glyphname = ucircumflex;
kernLeft = u;
kernRight = u;
lastChange = "2022-03-23 14:57:36 +0000";
layers = (
{
background = {
shapes = (
{
closed = 1;
nodes = (
(44,600,l),
(44,144,ls),
(44,51,o),
(95,0,o),
(188,0,cs),
(680,0,l),
(680,600,l),
(488,600,l),
(488,126,l),
(267,126,ls),
(248,126,o),
(237,137,o),
(237,156,cs),
(237,600,l)
);
},
{
closed = 1;
nodes = (
(306,650,l),
(363,722,l),
(419,650,l),
(561,650,l),
(461,772,l),
(264,772,l),
(164,650,l)
);
}
);
};
layerId = "422CF5D5-EDAF-47A9-A829-F34A9B802C97";
shapes = (
{
ref = u;
},
{
pos = (164,0);
ref = circumflexcomb;
}
);
width = 726;
}
);
unicode = 251;
},
{
color = 10;
glyphname = udieresis;
kernLeft = u;
kernRight = u;
lastChange = "2022-03-23 14:57:36 +0000";
layers = (
{
background = {
shapes = (
{
closed = 1;
nodes = (
(44,600,l),
(44,144,ls),
(44,51,o),
(95,0,o),
(188,0,cs),
(680,0,l),
(680,600,l),
(488,600,l),
(488,126,l),
(267,126,ls),
(248,126,o),
(237,137,o),
(237,156,cs),
(237,600,l)
);
},
{
closed = 1;
nodes = (
(151,650,l),
(323,650,l),
(323,772,l),
(151,772,l)
);
},
{
closed = 1;
nodes = (
(401,650,l),
(573,650,l),
(573,772,l),
(401,772,l)
);
}
);
};
layerId = "422CF5D5-EDAF-47A9-A829-F34A9B802C97";
shapes = (
{
ref = u;
},
{
pos = (104,0);
ref = dieresiscomb;
}
);
width = 726;
}
);
unicode = 252;
},
{
color = 10;
glyphname = ugrave;
kernLeft = u;
kernRight = u;
lastChange = "2022-03-23 14:57:36 +0000";
layers = (
{
background = {
shapes = (
{
closed = 1;
nodes = (
(44,600,l),
(44,144,ls),
(44,51,o),
(95,0,o),
(188,0,cs),
(680,0,l),
(680,600,l),
(488,600,l),
(488,126,l),
(267,126,ls),
(248,126,o),
(237,137,o),
(237,156,cs),
(237,600,l)
);
},
{
closed = 1;
nodes = (
(296,650,l),
(418,650,l),
(368,772,l),
(166,772,l)
);
}
);
};
layerId = "422CF5D5-EDAF-47A9-A829-F34A9B802C97";
shapes = (
{
ref = u;
},
{
pos = (177,0);
ref = gravecomb;
}
);
width = 726;
}
);
unicode = 249;
},
{
color = 10;
glyphname = uhungarumlaut;
kernLeft = u;
kernRight = u;
lastChange = "2022-03-23 14:57:36 +0000";
layers = (
{
background = {
shapes = (
{
closed = 1;
nodes = (
(44,600,l),
(44,144,ls),
(44,51,o),
(95,0,o),
(188,0,cs),
(680,0,l),
(680,600,l),
(488,600,l),
(488,126,l),
(267,126,ls),
(248,126,o),
(237,137,o),
(237,156,cs),
(237,600,l)
);
},
{
closed = 1;
nodes = (
(226,772,l),
(176,650,l),
(298,650,l),
(428,772,l)
);
},
{
closed = 1;
nodes = (
(456,772,l),
(406,650,l),
(528,650,l),
(658,772,l)
);
}
);
};
layerId = "422CF5D5-EDAF-47A9-A829-F34A9B802C97";
shapes = (
{
ref = u;
},
{
pos = (187,0);
ref = hungarumlautcomb;
}
);
width = 726;
}
);
unicode = 369;
},
{
color = 10;
glyphname = umacron;
kernLeft = u;
kernRight = u;
lastChange = "2022-03-23 14:57:36 +0000";
layers = (
{
background = {
shapes = (
{
closed = 1;
nodes = (
(44,600,l),
(44,144,ls),
(44,51,o),
(95,0,o),
(188,0,cs),
(680,0,l),
(680,600,l),
(488,600,l),
(488,126,l),
(267,126,ls),
(248,126,o),
(237,137,o),
(237,156,cs),
(237,600,l)
);
},
{
closed = 1;
nodes = (
(548,650,l),
(548,752,l),
(176,752,l),
(176,650,l)
);
}
);
};
layerId = "422CF5D5-EDAF-47A9-A829-F34A9B802C97";
shapes = (
{
ref = u;
},
{
pos = (153,0);
ref = macroncomb;
}
);
userData = {
com.schriftgestaltung.Glyphs.lastChange = "2019-11-24 07:18:12 +0000";
};
width = 726;
}
);
unicode = 363;
},
{
color = 10;
glyphname = uni0123;
kernLeft = o;
kernRight = u;
lastChange = "2022-03-23 14:57:36 +0000";
layers = (
{
background = {
shapes = (
{
closed = 1;
nodes = (
(40,126,ls),
(40,45,o),
(85,0,o),
(167,0,cs),
(496,0,l),
(496,-84,ls),
(496,-103,o),
(485,-114,o),
(466,-114,cs),
(262,-114,ls),
(243,-114,o),
(232,-103,o),
(232,-84,cs),
(232,-54,l),
(40,-54,l),
(40,-113,ls),
(40,-195,o),
(85,-240,o),
(167,-240,cs),
(561,-240,ls),
(643,-240,o),
(688,-195,o),
(688,-113,cs),
(688,600,l),
(167,600,ls),
(85,600,o),
(40,555,o),
(40,473,cs)
);
},
{
closed = 1;
nodes = (
(496,474,l),
(496,126,l),
(262,126,ls),
(243,126,o),
(232,137,o),
(232,156,cs),
(232,444,ls),
(232,463,o),
(243,474,o),
(262,474,cs)
);
},
{
closed = 1;
nodes = (
(336,870,l),
(292,773,ls),
(282,751,o),
(278,733,o),
(278,717,cs),
(278,674,o),
(310,650,o),
(348,650,cs),
(450,650,l),
(450,773,l),
(379,773,l),
(420,870,l)
);
}
);
};
layerId = "422CF5D5-EDAF-47A9-A829-F34A9B802C97";
shapes = (
{
ref = g;
},
{
pos = (254,0);
ref = commaturnedabovecomb;
}
);
width = 734;
}
);
unicode = 291;
},
{
color = 10;
glyphname = uni0137;
kernLeft = h;
kernRight = k;
lastChange = "2022-03-23 14:57:36 +0000";
layers = (
{
background = {
shapes = (
{
closed = 1;
nodes = (
(238,0,l),
(238,237,l),
(393,237,l),
(529,0,l),
(742,0,l),
(557,300,l),
(742,600,l),
(529,600,l),
(392,363,l),
(238,363,l),
(238,800,l),
(46,800,l),
(46,0,l)
);
},
{
closed = 1;
nodes = (
(392,-270,l),
(436,-173,ls),
(446,-151,o),
(450,-133,o),
(450,-117,cs),
(450,-74,o),
(418,-50,o),
(380,-50,cs),
(278,-50,l),
(278,-173,l),
(349,-173,l),
(308,-270,l)
);
}
);
};
layerId = "422CF5D5-EDAF-47A9-A829-F34A9B802C97";
shapes = (
{
ref = k;
},
{
pos = (258,0);
ref = commaaccentcomb;
}
);
width = 734;
}
);
unicode = 311;
},
{
color = 10;
glyphname = uni013C;
kernLeft = l;
kernRight = l;
lastChange = "2022-03-23 14:57:36 +0000";
layers = (
{
background = {
shapes = (
{
closed = 1;
nodes = (
(238,800,l),
(46,800,l),
(46,0,l),
(238,0,l)
);
},
{
closed = 1;
nodes = (
(180,-270,l),
(224,-173,ls),
(234,-151,o),
(238,-133,o),
(238,-117,cs),
(238,-74,o),
(206,-50,o),
(168,-50,cs),
(66,-50,l),
(66,-173,l),
(137,-173,l),
(96,-270,l)
);
}
);
};
layerId = "422CF5D5-EDAF-47A9-A829-F34A9B802C97";
shapes = (
{
ref = l;
},
{
pos = (33,0);
ref = commaaccentcomb;
}
);
width = 284;
}
);
unicode = 316;
},
{
color = 10;
glyphname = uni0146;
kernLeft = n;
kernRight = n;
lastChange = "2022-03-23 14:57:36 +0000";
layers = (
{
background = {
shapes = (
{
closed = 1;
nodes = (
(682,0,l),
(682,456,ls),
(682,549,o),
(631,600,o),
(538,600,cs),
(46,600,l),
(46,0,l),
(238,0,l),
(238,474,l),
(459,474,ls),
(478,474,o),
(489,463,o),
(489,444,cs),
(489,0,l)
);
},
{
closed = 1;
nodes = (
(392,-270,l),
(436,-173,ls),
(446,-151,o),
(450,-133,o),
(450,-117,cs),
(450,-74,o),
(418,-50,o),
(380,-50,cs),
(278,-50,l),
(278,-173,l),
(349,-173,l),
(308,-270,l)
);
}
);
};
layerId = "422CF5D5-EDAF-47A9-A829-F34A9B802C97";
shapes = (
{
ref = n;
},
{
pos = (254,0);
ref = commaaccentcomb;
}
);
width = 725;
}
);
unicode = 326;
},
{
color = 10;
glyphname = uni0157;
kernLeft = n;
kernRight = r;
lastChange = "2022-03-23 14:57:36 +0000";
layers = (
{
background = {
shapes = (
{
closed = 1;
nodes = (
(238,0,l),
(238,474,l),
(439,474,ls),
(458,474,o),
(469,463,o),
(469,444,cs),
(469,414,l),
(662,414,l),
(662,456,ls),
(662,549,o),
(611,600,o),
(518,600,cs),
(46,600,l),
(46,0,l)
);
},
{
closed = 1;
nodes = (
(170,-270,l),
(214,-173,ls),
(224,-151,o),
(228,-133,o),
(228,-117,cs),
(228,-74,o),
(196,-50,o),
(158,-50,cs),
(56,-50,l),
(56,-173,l),
(127,-173,l),
(86,-270,l)
);
}
);
};
layerId = "422CF5D5-EDAF-47A9-A829-F34A9B802C97";
shapes = (
{
ref = r;
},
{
pos = (32,0);
ref = commaaccentcomb;
}
);
width = 673;
}
);
unicode = 343;
},
{
color = 10;
glyphname = uni0163;
kernLeft = t;
kernRight = t;
lastChange = "2022-03-23 14:57:36 +0000";
layers = (
{
background = {
shapes = (
{
closed = 1;
nodes = (
(156,474,l),
(156,127,ls),
(156,45,o),
(201,0,o),
(283,0,cs),
(627,0,ls),
(709,0,o),
(754,45,o),
(754,127,cs),
(754,186,l),
(562,186,l),
(562,156,ls),
(562,137,o),
(551,126,o),
(532,126,cs),
(378,126,ls),
(359,126,o),
(348,137,o),
(348,156,cs),
(348,474,l),
(754,474,l),
(754,600,l),
(348,600,l),
(348,800,l),
(156,800,l),
(156,600,l),
(12,600,l),
(12,474,l)
);
},
{
closed = 1;
nodes = (
(332,-269,l),
(464,-269,ls),
(535,-269,o),
(574,-230,o),
(574,-159,cs),
(574,-88,o),
(535,-50,o),
(464,-50,cs),
(382,-50,l),
(382,-129,l),
(432,-129,ls),
(452,-129,o),
(464,-140,o),
(464,-159,cs),
(464,-178,o),
(452,-190,o),
(432,-190,cs),
(332,-190,l)
);
}
);
};
layerId = "422CF5D5-EDAF-47A9-A829-F34A9B802C97";
shapes = (
{
ref = t;
},
{
pos = (308,0);
ref = cedillacomb;
}
);
width = 766;
}
);
unicode = 355;
},
{
color = 10;
glyphname = uni0219;
kernLeft = s;
kernRight = s;
lastChange = "2022-03-23 14:57:36 +0000";
layers = (
{
background = {
shapes = (
{
closed = 1;
nodes = (
(536,0,ls),
(629,0,o),
(680,51,o),
(680,144,cs),
(680,220,ls),
(680,313,o),
(629,364,o),
(536,364,cs),
(254,364,ls),
(235,364,o),
(224,375,o),
(224,394,cs),
(224,444,ls),
(224,463,o),
(235,474,o),
(254,474,cs),
(458,474,ls),
(477,474,o),
(488,463,o),
(488,444,cs),
(488,414,l),
(680,414,l),
(680,456,ls),
(680,549,o),
(629,600,o),
(536,600,cs),
(176,600,ls),
(83,600,o),
(32,549,o),
(32,456,cs),
(32,380,ls),
(32,287,o),
(83,236,o),
(176,236,cs),
(458,236,ls),
(477,236,o),
(488,225,o),
(488,206,cs),
(488,156,ls),
(488,137,o),
(477,126,o),
(458,126,cs),
(254,126,ls),
(235,126,o),
(224,137,o),
(224,156,cs),
(224,186,l),
(32,186,l),
(32,144,ls),
(32,51,o),
(83,0,o),
(176,0,cs)
);
},
{
closed = 1;
nodes = (
(375,-270,l),
(419,-173,ls),
(429,-151,o),
(433,-133,o),
(433,-117,cs),
(433,-74,o),
(401,-50,o),
(363,-50,cs),
(261,-50,l),
(261,-173,l),
(332,-173,l),
(291,-270,l)
);
}
);
};
layerId = "422CF5D5-EDAF-47A9-A829-F34A9B802C97";
shapes = (
{
ref = s;
},
{
pos = (247,0);
ref = commaaccentcomb;
}
);
width = 712;
}
);
unicode = 537;
},
{
color = 10;
glyphname = uni021B;
kernLeft = t;
kernRight = t;
lastChange = "2022-03-23 14:57:36 +0000";
layers = (
{
background = {
shapes = (
{
closed = 1;
nodes = (
(156,474,l),
(156,127,ls),
(156,45,o),
(201,0,o),
(283,0,cs),
(627,0,ls),
(709,0,o),
(754,45,o),
(754,127,cs),
(754,186,l),
(562,186,l),
(562,156,ls),
(562,137,o),
(551,126,o),
(532,126,cs),
(378,126,ls),
(359,126,o),
(348,137,o),
(348,156,cs),
(348,474,l),
(754,474,l),
(754,600,l),
(348,600,l),
(348,800,l),
(156,800,l),
(156,600,l),
(12,600,l),
(12,474,l)
);
},
{
closed = 1;
nodes = (
(490,-270,l),
(534,-173,ls),
(544,-151,o),
(548,-133,o),
(548,-117,cs),
(548,-74,o),
(516,-50,o),
(478,-50,cs),
(376,-50,l),
(376,-173,l),
(447,-173,l),
(406,-270,l)
);
}
);
};
layerId = "422CF5D5-EDAF-47A9-A829-F34A9B802C97";
shapes = (
{
ref = t;
},
{
pos = (344,0);
ref = commaaccentcomb;
}
);
width = 766;
}
);
unicode = 539;
},
{
color = 10;
glyphname = uogonek;
kernLeft = u;
kernRight = u;
lastChange = "2022-03-23 14:57:36 +0000";
layers = (
{
background = {
shapes = (
{
closed = 1;
nodes = (
(44,600,l),
(44,144,ls),
(44,51,o),
(95,0,o),
(188,0,cs),
(680,0,l),
(680,600,l),
(488,600,l),
(488,126,l),
(267,126,ls),
(248,126,o),
(237,137,o),
(237,156,cs),
(237,600,l)
);
},
{
closed = 1;
nodes = (
(456,-73,o),
(457,-46,o),
(488,0,c),
(426,0,l),
(375,-30,o),
(346,-59,o),
(346,-109,cs),
(346,-180,o),
(385,-219,o),
(456,-219,cs),
(570,-219,ls),
(641,-219,o),
(680,-180,o),
(680,-109,c),
(570,-109,l),
(570,-128,o),
(558,-140,o),
(538,-140,cs),
(488,-140,ls),
(468,-140,o),
(456,-128,o),
(456,-109,cs)
);
}
);
};
layerId = "422CF5D5-EDAF-47A9-A829-F34A9B802C97";
shapes = (
{
ref = u;
},
{
pos = (330,0);
ref = ogonekcomb;
}
);
width = 726;
}
);
unicode = 371;
},
{
color = 10;
glyphname = uring;
kernLeft = u;
kernRight = u;
lastChange = "2022-03-23 14:57:36 +0000";
layers = (
{
background = {
shapes = (
{
closed = 1;
nodes = (
(44,600,l),
(44,144,ls),
(44,51,o),
(95,0,o),
(188,0,cs),
(680,0,l),
(680,600,l),
(488,600,l),
(488,126,l),
(267,126,ls),
(248,126,o),
(237,137,o),
(237,156,cs),
(237,600,l)
);
},
{
closed = 1;
nodes = (
(404,640,ls),
(475,640,o),
(514,679,o),
(514,750,cs),
(514,821,o),
(475,859,o),
(404,859,cs),
(290,859,ls),
(219,859,o),
(180,820,o),
(180,750,cs),
(180,679,o),
(219,640,o),
(290,640,cs)
);
},
{
closed = 1;
nodes = (
(290,770,o),
(302,780,o),
(322,780,cs),
(372,780,ls),
(392,780,o),
(404,769,o),
(404,750,cs),
(404,731,o),
(392,719,o),
(372,719,cs),
(322,719,ls),
(302,719,o),
(290,731,o),
(290,750,cs)
);
}
);
};
layerId = "422CF5D5-EDAF-47A9-A829-F34A9B802C97";
shapes = (
{
ref = u;
},
{
pos = (178,0);
ref = ringcomb;
}
);
width = 726;
}
);
unicode = 367;
},
{
color = 6;
glyphname = v;
kernLeft = v;
kernRight = v;
lastChange = "2022-03-23 14:57:36 +0000";
layers = (
{
anchors = (
{
name = bottom;
pos = (363,0);
},
{
name = top;
pos = (363,600);
}
);
background = {
shapes = (
{
closed = 1;
nodes = (
(393,0,l),
(193,600,l),
(0,600,l),
(200,0,l)
);
},
{
closed = 1;
nodes = (
(526,0,l),
(726,600,l),
(534,600,l),
(334,0,l)
);
}
);
};
layerId = "422CF5D5-EDAF-47A9-A829-F34A9B802C97";
shapes = (
{
closed = 1;
nodes = (
(393,0,l),
(193,600,l),
(0,600,l),
(200,0,l)
);
},
{
closed = 1;
nodes = (
(526,0,l),
(726,600,l),
(534,600,l),
(334,0,l)
);
}
);
width = 726;
}
);
unicode = 118;
},
{
color = 6;
glyphname = w;
kernLeft = u;
kernRight = u;
lastChange = "2022-03-23 14:57:36 +0000";
layers = (
{
anchors = (
{
name = bottom;
pos = (538,0);
},
{
name = top;
pos = (538,600);
}
);
background = {
shapes = (
{
closed = 1;
nodes = (
(837,600,l),
(837,126,l),
(633,126,l),
(633,600,l),
(440,600,l),
(440,126,l),
(267,126,ls),
(248,126,o),
(237,137,o),
(237,156,cs),
(237,600,l),
(44,600,l),
(44,144,ls),
(44,51,o),
(95,0,o),
(188,0,cs),
(1029,0,l),
(1029,600,l)
);
}
);
};
layerId = "422CF5D5-EDAF-47A9-A829-F34A9B802C97";
shapes = (
{
closed = 1;
nodes = (
(1029,0,l),
(1029,600,l),
(837,600,l),
(837,126,l),
(633,126,l),
(633,600,l),
(440,600,l),
(440,126,l),
(267,126,ls),
(248,126,o),
(237,137,o),
(237,156,cs),
(237,600,l),
(44,600,l),
(44,144,ls),
(44,51,o),
(95,0,o),
(188,0,cs)
);
}
);
width = 1075;
}
);
unicode = 119;
},
{
color = 10;
glyphname = wacute;
kernLeft = u;
kernRight = u;
lastChange = "2022-03-23 14:57:36 +0000";
layers = (
{
background = {
shapes = (
{
closed = 1;
nodes = (
(837,600,l),
(837,126,l),
(633,126,l),
(633,600,l),
(440,600,l),
(440,126,l),
(267,126,ls),
(248,126,o),
(237,137,o),
(237,156,cs),
(237,600,l),
(44,600,l),
(44,144,ls),
(44,51,o),
(95,0,o),
(188,0,cs),
(1029,0,l),
(1029,600,l)
);
},
{
closed = 1;
nodes = (
(516,772,l),
(466,650,l),
(588,650,l),
(718,772,l)
);
}
);
};
layerId = "422CF5D5-EDAF-47A9-A829-F34A9B802C97";
shapes = (
{
ref = w;
},
{
pos = (471,0);
ref = acutecomb;
}
);
width = 1075;
}
);
unicode = 7811;
},
{
color = 10;
glyphname = wcircumflex;
kernLeft = u;
kernRight = u;
lastChange = "2022-03-23 14:57:36 +0000";
layers = (
{
background = {
shapes = (
{
closed = 1;
nodes = (
(837,600,l),
(837,126,l),
(633,126,l),
(633,600,l),
(440,600,l),
(440,126,l),
(267,126,ls),
(248,126,o),
(237,137,o),
(237,156,cs),
(237,600,l),
(44,600,l),
(44,144,ls),
(44,51,o),
(95,0,o),
(188,0,cs),
(1029,0,l),
(1029,600,l)
);
},
{
closed = 1;
nodes = (
(480,650,l),
(537,722,l),
(593,650,l),
(735,650,l),
(635,772,l),
(438,772,l),
(338,650,l)
);
}
);
};
layerId = "422CF5D5-EDAF-47A9-A829-F34A9B802C97";
shapes = (
{
ref = w;
},
{
pos = (339,0);
ref = circumflexcomb;
}
);
width = 1075;
}
);
unicode = 373;
},
{
color = 10;
glyphname = wdieresis;
kernLeft = u;
kernRight = u;
lastChange = "2022-03-23 14:57:36 +0000";
layers = (
{
background = {
shapes = (
{
closed = 1;
nodes = (
(837,600,l),
(837,126,l),
(633,126,l),
(633,600,l),
(440,600,l),
(440,126,l),
(267,126,ls),
(248,126,o),
(237,137,o),
(237,156,cs),
(237,600,l),
(44,600,l),
(44,144,ls),
(44,51,o),
(95,0,o),
(188,0,cs),
(1029,0,l),
(1029,600,l)
);
},
{
closed = 1;
nodes = (
(326,650,l),
(498,650,l),
(498,772,l),
(326,772,l)
);
},
{
closed = 1;
nodes = (
(576,650,l),
(748,650,l),
(748,772,l),
(576,772,l)
);
}
);
};
layerId = "422CF5D5-EDAF-47A9-A829-F34A9B802C97";
shapes = (
{
ref = w;
},
{
pos = (279,0);
ref = dieresiscomb;
}
);
width = 1075;
}
);
unicode = 7813;
},
{
color = 10;
glyphname = wgrave;
kernLeft = u;
kernRight = u;
lastChange = "2022-03-23 14:57:36 +0000";
layers = (
{
background = {
shapes = (
{
closed = 1;
nodes = (
(837,600,l),
(837,126,l),
(633,126,l),
(633,600,l),
(440,600,l),
(440,126,l),
(267,126,ls),
(248,126,o),
(237,137,o),
(237,156,cs),
(237,600,l),
(44,600,l),
(44,144,ls),
(44,51,o),
(95,0,o),
(188,0,cs),
(1029,0,l),
(1029,600,l)
);
},
{
closed = 1;
nodes = (
(466,650,l),
(588,650,l),
(538,772,l),
(336,772,l)
);
}
);
};
layerId = "422CF5D5-EDAF-47A9-A829-F34A9B802C97";
shapes = (
{
ref = w;
},
{
pos = (352,0);
ref = gravecomb;
}
);
width = 1075;
}
);
unicode = 7809;
},
{
color = 6;
glyphname = x;
lastChange = "2022-03-23 14:57:36 +0000";
layers = (
{
anchors = (
{
name = bottom;
pos = (392,0);
},
{
name = top;
pos = (392,600);
}
);
background = {
shapes = (
{
closed = 1;
nodes = (
(214,600,l),
(-9,600,l),
(345,219,l),
(352,369,l),
(-12,0,l),
(190,0,l),
(517,332,l),
(507,284,l)
);
},
{
closed = 1;
nodes = (
(570,0,l),
(793,0,l),
(439,381,l),
(432,231,l),
(796,600,l),
(594,600,l),
(267,268,l),
(277,316,l)
);
}
);
};
layerId = "422CF5D5-EDAF-47A9-A829-F34A9B802C97";
shapes = (
{
closed = 1;
nodes = (
(793,0,l),
(439,381,l),
(432,231,l),
(796,600,l),
(594,600,l),
(267,268,l),
(277,316,l),
(570,0,l)
);
},
{
closed = 1;
nodes = (
(190,0,l),
(517,332,l),
(507,284,l),
(214,600,l),
(-9,600,l),
(345,219,l),
(352,369,l),
(-12,0,l)
);
}
);
width = 784;
}
);
unicode = 120;
},
{
color = 6;
glyphname = y;
kernLeft = u;
kernRight = u;
lastChange = "2022-03-23 14:57:36 +0000";
layers = (
{
anchors = (
{
name = bottom;
pos = (369,0);
},
{
name = top;
pos = (369,600);
}
);
background = {
shapes = (
{
closed = 1;
nodes = (
(500,600,l),
(500,126,l),
(266,126,ls),
(247,126,o),
(236,137,o),
(236,156,cs),
(236,600,l),
(44,600,l),
(44,126,ls),
(44,45,o),
(89,0,o),
(171,0,cs),
(500,0,l),
(500,-84,ls),
(500,-103,o),
(489,-114,o),
(470,-114,cs),
(266,-114,ls),
(247,-114,o),
(236,-103,o),
(236,-84,cs),
(236,-54,l),
(44,-54,l),
(44,-113,ls),
(44,-195,o),
(89,-240,o),
(171,-240,cs),
(565,-240,ls),
(647,-240,o),
(692,-195,o),
(692,-113,cs),
(692,600,l)
);
}
);
};
layerId = "422CF5D5-EDAF-47A9-A829-F34A9B802C97";
shapes = (
{
closed = 1;
nodes = (
(565,-240,ls),
(647,-240,o),
(692,-195,o),
(692,-113,cs),
(692,600,l),
(500,600,l),
(500,126,l),
(266,126,ls),
(247,126,o),
(236,137,o),
(236,156,cs),
(236,600,l),
(44,600,l),
(44,126,ls),
(44,45,o),
(89,0,o),
(171,0,cs),
(500,0,l),
(500,-84,ls),
(500,-103,o),
(489,-114,o),
(470,-114,cs),
(266,-114,ls),
(247,-114,o),
(236,-103,o),
(236,-84,cs),
(236,-54,l),
(44,-54,l),
(44,-113,ls),
(44,-195,o),
(89,-240,o),
(171,-240,cs)
);
}
);
width = 738;
}
);
unicode = 121;
},
{
color = 10;
glyphname = yacute;
kernLeft = u;
kernRight = u;
lastChange = "2022-03-23 14:57:36 +0000";
layers = (
{
background = {
shapes = (
{
closed = 1;
nodes = (
(500,600,l),
(500,126,l),
(266,126,ls),
(247,126,o),
(236,137,o),
(236,156,cs),
(236,600,l),
(44,600,l),
(44,126,ls),
(44,45,o),
(89,0,o),
(171,0,cs),
(500,0,l),
(500,-84,ls),
(500,-103,o),
(489,-114,o),
(470,-114,cs),
(266,-114,ls),
(247,-114,o),
(236,-103,o),
(236,-84,cs),
(236,-54,l),
(44,-54,l),
(44,-113,ls),
(44,-195,o),
(89,-240,o),
(171,-240,cs),
(565,-240,ls),
(647,-240,o),
(692,-195,o),
(692,-113,cs),
(692,600,l)
);
},
{
closed = 1;
nodes = (
(332,772,l),
(282,650,l),
(404,650,l),
(534,772,l)
);
}
);
};
layerId = "422CF5D5-EDAF-47A9-A829-F34A9B802C97";
shapes = (
{
ref = y;
},
{
pos = (302,0);
ref = acutecomb;
}
);
width = 738;
}
);
unicode = 253;
},
{
color = 10;
glyphname = ycircumflex;
kernLeft = u;
kernRight = u;
lastChange = "2022-03-23 14:57:36 +0000";
layers = (
{
background = {
shapes = (
{
closed = 1;
nodes = (
(500,600,l),
(500,126,l),
(266,126,ls),
(247,126,o),
(236,137,o),
(236,156,cs),
(236,600,l),
(44,600,l),
(44,126,ls),
(44,45,o),
(89,0,o),
(171,0,cs),
(500,0,l),
(500,-84,ls),
(500,-103,o),
(489,-114,o),
(470,-114,cs),
(266,-114,ls),
(247,-114,o),
(236,-103,o),
(236,-84,cs),
(236,-54,l),
(44,-54,l),
(44,-113,ls),
(44,-195,o),
(89,-240,o),
(171,-240,cs),
(565,-240,ls),
(647,-240,o),
(692,-195,o),
(692,-113,cs),
(692,600,l)
);
},
{
closed = 1;
nodes = (
(312,650,l),
(369,722,l),
(425,650,l),
(567,650,l),
(467,772,l),
(270,772,l),
(170,650,l)
);
}
);
};
layerId = "422CF5D5-EDAF-47A9-A829-F34A9B802C97";
shapes = (
{
ref = y;
},
{
pos = (170,0);
ref = circumflexcomb;
}
);
width = 738;
}
);
unicode = 375;
},
